<?xml version="1.0" encoding="utf-8"?>
<!-- Generator: Adobe Illustrator 23.0.3, SVG Export Plug-In . SVG Version: 6.00 Build 0)  -->
<svg version="1.1" id="Layer_1" xmlns="http://www.w3.org/2000/svg" xmlns:xlink="http://www.w3.org/1999/xlink" x="0px" y="0px"
	 viewBox="0 0 4508.1 4418.9" style="enable-background:new 0 0 4508.1 4418.9;" xml:space="preserve">
<style type="text/css">
	.st0{display:none;fill:none;stroke:#D12455;stroke-width:10;stroke-miterlimit:10;}
	.st1{fill:#FFFFFF;}
</style>
<circle class="st0" cx="7254" cy="7209.4" r="1203.2"/>
<g>
	<g id="page1">
		<g transform="matrix(0.996264 0 0 0.996264 198.171 198.483)">
			<path class="st1" d="M2063.6-198.8C839-198.8-153.7,793.9-153.7,2018.5S839,4235.7,2063.6,4235.7S4280.8,3243,4280.8,2018.5
				S3288.1-198.8,2063.6-198.8z"/>
		</g>
		<g transform="matrix(0.996264 0 0 0.996264 198.171 198.483)">
			<path d="M2063.6-198.8C839-198.8-153.7,793.9-153.7,2018.5S839,4235.7,2063.6,4235.7l0,0c-612.3,0-1108.6-496.4-1108.6-1108.6
				s496.3-1108.6,1108.6-1108.6l0,0l0,0c612.3,0,1108.6-496.3,1108.6-1108.6S2675.9-198.8,2063.6-198.8L2063.6-198.8z"/>
		</g>
	</g>
	<g>
		<path d="M3935.8,1296c-5.8,0.1-14.1-0.3-24.8-1.3c-13.1-1.1-23.5-1.5-31.3-1.2l-2.2-4c8.6-5.1,17.2-11,25.6-17.7
			c5.5-4.3,10.2-7.6,14-9.7l4.4-2.1c6.7-3.2,13.3-4,20-2.2c6.7,1.7,11.8,5.7,15.3,12c2.4,4.4,3.2,8.5,2.3,12.4s-3.4,7.1-7.5,9.6
			C3946.9,1294.5,3941.6,1295.8,3935.8,1296z M3961.6,1342.1c-5.8,0.1-14.1-0.3-24.8-1.3c-13.1-1.1-23.5-1.5-31.3-1.2l-2.2-4
			c8.6-5.1,17.2-11,25.6-17.7c5.5-4.3,10.2-7.6,14-9.7l4.4-2.1c6.7-3.2,13.3-4,20-2.2c6.7,1.7,11.8,5.7,15.3,12
			c2.4,4.4,3.2,8.5,2.2,12.4c-0.9,3.9-3.4,7.1-7.5,9.6C3972.7,1340.6,3967.4,1342,3961.6,1342.1z"/>
		<path d="M3930.8,1410c3.9-1.9,5.1-4.6,3.4-8.1c-1.7-3.5-5-5.9-10.1-7.1c-5-1.2-12.4-1.5-22.2-0.7l-17.8,1.2l-2.7-5.6l26.3-2.4
			c23.7-2.3,40.3,6.5,49.8,26.6c4.3,9,5.2,16.7,2.7,22.9c-2.5,6.2-7.2,11-14.3,14.4c-5.7,2.7-12,4.4-18.9,5l-104.9,11.8
			c-4.1,0.5-7.2,1.3-9.4,2.3c-4.1,2-5.3,4.9-3.4,8.8c1.4,2.9,4.5,5.2,9.3,6.6c4.8,1.5,12.4,1.8,22.8,0.9l16.7-1.4l2.7,5.6l-25.1,2.5
			c-23.5,2.7-39.9-5.7-49.2-25.4c-8.5-17.9-4.6-30.7,11.7-38.4c6.5-3.1,14.6-5.1,24.5-6.2l98.3-11.2
			C3926.1,1411.4,3929.4,1410.7,3930.8,1410z M4023.9,1387.9c7.4,3.5,13.1,9.4,17.1,17.9c3.3,6.9,4.2,13,2.8,18.4s-5,9.4-10.7,12.1
			c-7.9,3.7-15.7,3.9-23.6,0.4c-7.9-3.5-13.9-9.5-18-18.2c-3.4-7.1-4.2-13.3-2.5-18.7c1.7-5.4,5.5-9.3,11.6-11.6
			C4008.7,1384.5,4016.5,1384.5,4023.9,1387.9z"/>
		<path d="M3833.8,1556.2c3,7.7,7.8,13,14.2,15.8c6.5,2.8,13.8,2.7,21.9-0.5c6.5-2.5,12.6-6.6,18.4-12.1
			c5.8-5.5,11.9-12.8,18.4-21.9c0.9-1.3,3.6-5.1,8.1-11.4s9.2-11.5,14-15.7c4.8-4.1,10-7.2,15.4-9.4c13.2-5.2,25.8-4.5,38,2.1
			c12.1,6.6,21.6,18.5,28.3,35.7c5.2,13.2,7.1,25.1,5.8,35.7c-1.3,10.7-7.7,18.3-19.3,22.8c-5.7,2.2-11.5,2.6-17.4,1.2
			s-10-5.1-12.3-10.9c-2-5.1-1.6-9.9,1-14.4c2.7-4.5,6.9-8,12.8-10.3c5.1-2,10.1-2.9,15.2-2.8c5.1,0.1,9.6,0.9,13.7,2.3
			c0.6-3.3,0-7.1-1.7-11.6c-2.9-7.3-7.4-12.1-13.6-14.5c-6.2-2.4-13.4-2.1-21.5,0.9c-5.5,2.1-10,5.2-13.6,9
			c-3.6,3.9-8.5,9.9-14.6,18.2l-4.7,6.8c-8.2,10.7-15.2,18.7-21,24.2c-5.8,5.4-12.2,9.5-19,12.2c-8.9,3.5-17.8,4.3-26.6,2.4
			s-16.9-6.4-24.4-13.4c-7.4-7-13.4-16.3-17.9-27.8c-5.6-14.4-7.5-27.4-5.7-39.1s8.9-20,21.3-24.8c6.1-2.4,11.8-2.9,17.3-1.5
			c5.4,1.4,9.2,4.7,11.3,10s1.5,10.3-1.7,15.2c-3.2,4.9-8.3,8.7-15.2,11.4c-4.5,1.7-8.7,2.8-12.6,3.2c-3.9,0.4-8.8,0.5-14.7,0.5
			C3831,1547.2,3831.9,1551.4,3833.8,1556.2z"/>
		<path d="M3931.5,1768.2c-2.3-0.1-4.5,0.1-6.6,0.7c-3.2,0.8-5.3,2.3-6.4,4.4c-1.1,2.1-1.3,4.6-0.6,7.6c1.2,4.6,4.6,8.5,10.3,11.7
			c5.6,3.1,13.4,5.2,23.4,6.2l14.2,1.4l1.6,6l-20-1.6c-27-1.8-43.5-14.3-49.6-37.7c-2.8-10.7-2.1-19.5,2.1-26.3
			c4.2-6.8,11.1-11.5,20.8-14c6.1-1.6,12.7-2.3,19.7-2.1l119.4,3l-7.4-28.4l6.7-0.1l7.5,28.7l50.6,1.4c4.8,17.8,10.3,32.7,16.3,44.6
			l-55.3-1.5l9.3,35.7l-6.6,0.7l-9.5-36.6L3931.5,1768.2z"/>
		<path d="M4026.6,1828.1c20.5,4.7,38.5,13.8,54.1,27.4c15.6,13.5,25.3,31.2,29.1,53.1c2.9,16.7,0.6,30.4-7,40.9
			c-7.5,10.6-19.9,17.4-37,20.3c-17.6,3.1-36.6,2.2-57-2.5c-20.5-4.7-38.5-13.8-54.1-27.4c-15.6-13.5-25.3-31.2-29.1-53.1
			c-2.9-16.7-0.6-30.4,7-40.9c7.5-10.6,19.9-17.4,37-20.3C3987.1,1822.6,4006.1,1823.4,4026.6,1828.1z M4075.7,1886
			c-16.9-6.8-36.9-11.5-60.1-14.1c-23.2-2.6-44.3-2.2-63.4,1.1c-7.7,1.3-13.1,3.2-16.3,5.5c-3.1,2.3-4.4,5.4-3.7,9.2
			c1.4,7.9,10.3,15.3,26.7,22c16.4,6.8,36.1,11.4,59.2,14c23.1,2.6,44.5,2.2,64.2-1.2c8.4-1.5,14-3.3,17.1-5.6
			c3-2.3,4.2-5.3,3.6-8.9C4101.7,1900.1,4092.6,1892.8,4075.7,1886z"/>
		<path d="M4014.5,2248.5l0.1,6.2l-24.9-8.6c-12-4-20.6-9.9-25.9-17.6c-5.3-7.7-8-16.3-8-25.9c0-5.9,0.9-10.9,2.8-15
			c1.9-4.2,4.6-7.2,8.1-9.2c3.9-2,8.3-3,13.3-3s12.1,1,21.2,3.1l33.7,8.5c-20.5-8.3-36.6-16.3-48.2-24.1
			c-11.6-7.7-19.8-15.6-24.5-23.6s-7.2-17-7.2-27c-0.1-9.8,2.1-17.1,6.7-22.1c4.5-4.9,11.1-7.4,19.8-7.5c6.7-0.1,14.3,1.3,22.5,4.1
			l96.5,30.8c3.9,1.3,7.1,1.9,9.5,1.9c4.6,0,6.8-2.1,6.8-6.3c0-3.5-1.9-6.9-5.6-10.2s-10.5-6.7-20.3-10.1l-15.7-5.7l-0.1-6.2l23.9,8
			c22.5,7.6,33.8,22.1,34,43.4c0.2,19.8-8.8,29.8-26.8,29.9c-6.7,0.1-15-1.4-24.8-4.4l-88.3-28.6c-5.9-1.9-10.6-2.8-14.1-2.8
			c-5,0-7.5,2.1-7.5,6.3c0.1,6.5,6.5,14.2,19.4,23s30,17.6,51.3,26.5c21.3,8.8,44.1,16.7,68.5,23.4l18.3,4.7
			c0.6,19.3,2.2,35.1,5,47.3l-145.8-39.6c-4.6-1.3-8.2-1.9-10.8-1.9c-3.7,0-5.5,1.9-5.5,5.6c0,4.1,2,7.8,6,11
			c3.9,3.2,10.6,6.4,20,9.6L4014.5,2248.5z"/>
		<path d="M3999,2449.9l-23-10.2c-21.6-9.8-31.5-25.3-29.6-46.5c1.1-12.1,5.4-20.5,13-25c4.4-2.5,9.6-3.4,15.6-2.9
			c6.9,0.6,15.3,3.1,25.2,7.5l85.2,37c5.7,2.5,10.2,3.9,13.7,4.2c5,0.4,7.7-1.4,8-5.5c0.6-6.5-5.3-14.9-17.7-25.3
			c-12.4-10.4-29-21.2-49.7-32.4s-42.7-21.3-65.9-30.4l-15.9-5.7l4-45.8l136.9,51.7c3.8,1.6,7.2,2.6,10.2,2.9c3.9,0.3,6-1.3,6.3-5
			c0.4-4.1-1.2-7.9-4.7-11.4s-9.9-7.4-19.1-11.7l-16-7.6l0.5-6.2l23.9,11c11.5,5.2,19.6,11.4,24.2,18.8c4.6,7.4,6.4,16.1,5.6,26
			c-1.6,18.6-11.4,27.2-29.1,25.6c-6.1-0.5-12.3-2-18.6-4.3l-38.4-13.5c21.3,10.8,37.7,20.8,49.3,30.1c11.5,9.2,19.4,18.2,23.7,27
			c4.2,8.8,5.9,18.3,5,28.4c-1.7,19.5-11.2,28.5-28.6,27c-6.5-0.6-14.1-2.7-22.7-6.3l-93-40.3c-3.8-1.6-6.9-2.6-9.3-2.8
			c-4.5-0.4-7,1.5-7.4,5.6c-0.3,3.5,1.2,7,4.6,10.7c3.4,3.7,9.8,7.7,19.2,12l15.1,7.2L3999,2449.9z"/>
		<path d="M3964.5,2629.1l-1.2,6.1l-21.8-12.4c-11.4-6.3-18.8-13.7-22.2-22.2c-3.4-8.6-4.2-17.4-2.3-26.6
			c2.6-13.2,9.2-20.7,19.8-22.3c4.2-0.9,8.8-0.9,13.9,0.1c6.2,1.2,13.5,4,21.9,8.4l1.2,0.6c-16.5-11.7-28-23-34.5-33.7
			s-8.5-22.4-6-35c2.3-11.3,7.8-19.7,16.7-25.3c8.9-5.5,20.8-6.8,35.7-3.8c17.3,3.5,35.2,11.7,53.8,24.7s33.3,29.1,44.3,48.1
			c10.9,19,14.3,38.9,10.2,59.6c-2,10-6.9,15.8-14.8,17.3l51.5,25.3c3.6,1.8,6.5,3,8.6,3.4c4.3,0.9,7.7-0.2,10.3-3.1
			c2.6-2.9,4.7-8.3,6.2-16.2l6.3,3.3c-2.7,14.8-4.2,28.4-4.5,40.8c-0.3,12.5,0.6,24.7,2.6,36.6l-214.5-108.2
			c-2.8-1.7-5.5-2.8-8.3-3.3c-4.9-1-7.8,0.5-8.6,4.6c-0.6,3.2,0.6,6.8,3.7,10.7c3.1,3.9,9,8.6,17.7,13.9L3964.5,2629.1z M4072,2609
			c7.9-0.9,12.5-4.4,13.8-10.6c1.8-9.2-2.8-20-13.9-32.6c-11.1-12.5-26-24.2-44.7-34.9s-37.9-18.1-57.5-22
			c-7.5-1.5-13.2-1.8-17.1-0.9c-3.9,0.9-6.3,3.1-7,6.7c-0.9,4.3,1.3,9.9,6.4,16.9c5.1,7,13,14.9,23.7,23.6
			c10.7,8.7,23.7,17.2,39.1,25.6L4072,2609z"/>
		<path d="M3969.3,2779.7c-7-23.3-10.2-48.8-9.4-76.5c-6.7-3.4-13.6-6.2-20.7-8.3c-11-3.4-19.4-3.7-25.3-1
			c-5.8,2.7-9.9,7.9-12.3,15.9c-2,6.4-2.2,14.3-0.6,23.7c1.6,9.3,5.7,19.2,12.3,29.7l-4,4.2c-9.4-11-16.2-24.1-20.5-39.1
			c-4.3-15.1-4-30.4,0.7-46c4.4-14.4,11.8-24.9,22.3-31.8c10.5-6.8,22.7-8.1,36.6-3.9c18.5,5.6,36.1,16.5,52.9,32.5
			c16.7,16,29,34.6,36.7,55.8s8.5,42.1,2.2,62.7c-2.9,9.6-7.4,16.7-13.5,21.5c-6.1,4.7-13.1,5.9-21,3.5
			C3988.5,2817.2,3976.3,2802.9,3969.3,2779.7z M4029.9,2764.3c-6.2-10.3-15.1-20.7-26.8-31.3s-24.2-19.6-37.6-27.1
			c2,16.7,5.4,30.3,10.5,40.7c5,10.6,11.5,19.8,19.8,27.5c8.2,7.7,17.8,13.3,28.9,16.6c3.9,1.2,6.8,1.6,8.5,1.2
			c1.7-0.4,2.8-1.4,3.3-3.1C4038.3,2782.8,4036.1,2774.6,4029.9,2764.3z"/>
		<path d="M3962,2981.5c-6.3,2.5-13.1,2.3-20.3-0.6c-8.7-3.5-15-9.3-18.9-17.3s-4.2-16.1-1-24.1c2.4-5.9,5.7-9.8,10.2-11.7
			c4.4-2,9.6-1.8,15.4,0.6c7.1,2.8,12.5,7.8,16.3,15s5.1,14.6,3.9,22.3c0.2-0.4,0.6-1,1.2-1.6c0.6-0.7,1.1-1.3,1.3-1.9
			c4.1-10.3,0.9-23.8-9.7-40.5c-10.6-16.7-32.9-38.3-66.7-64.9l-46.4-34.2l17.2-42.7l115.8,89.6c2.8,2.3,5.7,4.1,8.8,5.3
			c3.8,1.5,6.4,0.7,7.7-2.5c1.5-3.8,1.1-8-1.3-12.5c-2.4-4.5-7.3-10.1-14.7-16.8l-13.1-12l2.3-5.8l19.7,17.4
			c17.8,15.8,22.6,33.9,14.3,54.3c-6.3,15.5-17.6,20-33.9,13.4c-5.9-2.4-11.5-5.6-16.9-9.6l-8.7-6.3c16.2,15.2,26.6,28.2,31.2,39.1
			c4.6,10.9,4.8,21.8,0.4,32.7C3972.9,2973.9,3968.3,2979,3962,2981.5z"/>
		<path d="M3795.9,2947.2c-3.7,7.4-4.5,14.4-2.2,21.1c2.2,6.7,7.2,12,15,15.9c6.2,3.1,13.3,5,21.3,5.6s17.5,0.3,28.6-1
			c1.6-0.2,6.2-0.7,13.9-1.6c7.7-0.9,14.7-0.9,21,0c6.3,0.8,12,2.6,17.3,5.2c12.6,6.3,20.6,16.2,23.8,29.7
			c3.2,13.4,0.7,28.4-7.6,44.9c-6.3,12.6-13.9,22-22.7,28.2s-18.8,6.5-29.8,0.9c-5.4-2.7-9.6-6.8-12.5-12.1
			c-2.9-5.4-2.9-10.9-0.1-16.5c2.4-4.9,6.2-7.8,11.4-8.9c5.2-1.1,10.5-0.2,16.2,2.7c4.9,2.4,8.9,5.6,12.2,9.4
			c3.3,3.8,5.8,7.8,7.4,11.8c2.8-1.7,5.3-4.8,7.5-9c3.5-7,4.1-13.6,1.7-19.8c-2.4-6.2-7.4-11.3-15.1-15.4c-5.2-2.6-10.5-4-15.8-4.1
			s-13.1,0.3-23.3,1.3l-8.2,1c-13.4,1-24.1,1.2-32,0.5s-15.2-2.7-21.8-6c-8.6-4.3-15.1-10.4-19.5-18.2c-4.5-7.8-6.6-16.9-6.3-27.1
			c0.3-10.2,3.2-20.9,8.7-31.9c6.9-13.8,15.4-23.9,25.3-30.4c9.9-6.4,20.8-6.7,32.7-0.7c5.8,2.9,10.1,6.9,12.7,11.8
			c2.6,5,2.7,10,0.1,15c-2.5,5.1-6.7,8-12.5,8.9s-12-0.4-18.6-3.7c-4.3-2.1-7.9-4.6-10.8-7.2c-2.9-2.7-6.3-6.2-10.2-10.6
			C3800.9,2939.1,3798.3,2942.6,3795.9,2947.2z"/>
		<path d="M3746.9,3092.2c-1.5-1.7-3.2-3.1-5.1-4.2c-2.8-1.7-5.3-2.2-7.6-1.5s-4.2,2.3-5.8,4.9c-2.4,4.1-2.8,9.3-1.1,15.5
			s5.7,13.2,12,21l9,11l-3.2,5.3l-12.9-15.3c-17.7-20.4-20.4-41-8-61.7c5.7-9.5,12.4-15.2,20.2-17s16-0.2,24.6,5
			c5.4,3.2,10.5,7.4,15.3,12.5l81.8,87.1l15-25.2l4.8,4.7l-15.2,25.5l34.6,36.9c-9.3,16-16,30.3-20.3,43l-37.8-40.4l-18.9,31.7
			l-5.1-4.2l19.4-32.5L3746.9,3092.2z"/>
		<path d="M3644.2,3289.9l-3.6,5l-14.6-20.5c-7.4-10.6-10.9-20.6-10.5-29.8c0.3-9.3,3.1-17.5,8.3-24.8c6.6-9.2,14-13.8,22.3-13.7
			c5-0.2,10.3,1.7,15.9,5.8c4.6,3.3,9.2,7.8,13.9,13.6c-8.8-15.4-13.5-28.8-14-40.3c-0.6-11.5,2.3-21.7,8.6-30.5
			c7-9.7,15.1-15,24.5-16c9.4-0.9,19.2,2.3,29.4,9.6c15.7,11.3,29.4,27.4,41,48.4s18.7,42.2,21.3,63.6c2.6,21.4-0.5,38.3-9.4,50.7
			c-3.4,4.8-7.6,7.6-12.5,8.5s-10.4-0.4-16.4-3.9l10.3,13c-10,14.3-17.8,28-23.6,41.3l-93.4-119.4c-2.4-3-4.5-5.3-6.5-6.6
			c-3.9-2.8-7-2.5-9.4,0.9c-4.4,6.2-1.4,16.7,9.2,31.4L3644.2,3289.9z M3740,3305.2c0.8,0.8,2,1.8,3.8,3.1c4.4,3.2,8.3,4.8,11.7,5
			c3.4,0.1,6.1-1.3,8.3-4.3c4.3-6,3.8-16.7-1.5-32.1c-5.3-15.4-14.1-31.6-26.5-48.7c-12.4-17-26.2-31-41.4-41.9
			c-5.8-4.2-10.4-6.6-13.8-7.3c-3.4-0.7-6,0.3-7.9,2.9c-2.8,3.9-3.2,10.1-1.1,18.7c2,8.5,6.5,18.8,13.3,30.8s15.9,24.7,27.4,38.3
			l-5.4-5.9L3740,3305.2z"/>
		<path d="M3511.3,3442.9L3499,3421c-11.5-20.8-10.2-39.1,4-55c8.1-9.1,16.6-13.2,25.4-12.3c5,0.6,9.7,3,14.3,7
			c5.2,4.6,10.4,11.6,15.8,21l46.2,80.5c3.1,5.4,5.9,9.2,8.5,11.5c3.7,3.3,7,3.4,9.7,0.4c4.3-4.9,4.6-15.2,0.9-30.9
			c-3.7-15.7-10.6-34.3-20.5-55.7s-21.5-42.6-34.7-63.7l-9.3-14l30.6-34.3l78.9,123.3c2.1,3.6,4.2,6.4,6.5,8.4
			c2.9,2.6,5.6,2.5,8.1-0.2c2.8-3.1,3.8-7.1,3-12c-0.7-4.9-3.5-11.8-8.3-20.8l-8.3-15.7l4.1-4.6l12.6,23.1c6.2,11,8.9,20.9,8.2,29.6
			c-0.7,8.7-4.4,16.7-11.1,24.2c-12.4,14-25.3,15-38.6,3.1c-4.5-4.1-8.7-8.9-12.4-14.5l-22.7-33.8c10.6,21.4,17.8,39.3,21.5,53.5
			c3.7,14.3,4.7,26.2,2.9,35.8s-6.2,18.2-13,25.8c-13,14.6-26,16.1-39,4.5c-4.9-4.3-9.7-10.5-14.5-18.6l-50.5-87.9
			c-2.1-3.6-4-6.2-5.8-7.8c-3.4-3-6.5-3-9.2,0.1c-2.3,2.6-3.2,6.4-2.7,11.4s3.3,12,8.3,21.1l7.8,14.8L3511.3,3442.9z"/>
		<path d="M3376.6,3566l-4.6,4.1l-10.1-22.9c-5.4-11.8-6.9-22.2-4.5-31.1c2.4-8.9,7.1-16.5,14-22.7c10-9,19.7-11.1,29.2-6.1
			c3.9,1.7,7.6,4.6,11.1,8.4c4.2,4.7,8.4,11.3,12.6,19.8l0.6,1.2c-6.2-19.3-8.8-35.1-7.6-47.6s6.5-23,16.1-31.6
			c8.6-7.7,18.1-11.2,28.5-10.3c10.4,0.8,20.7,6.9,30.9,18.2c11.8,13.1,21.3,30.4,28.4,51.9c7.1,21.5,9.4,43.2,6.8,65
			c-2.6,21.8-11.7,39.8-27.4,53.9c-7.6,6.8-15,8.5-22.2,5.1l26.2,51c1.8,3.6,3.4,6.3,4.9,7.9c2.9,3.2,6.3,4.4,10.1,3.6
			c3.8-0.8,8.7-3.9,14.7-9.3l3.1,6.4c-11,10.2-20.3,20.2-28,30.1c-7.7,9.8-14.2,20.2-19.7,31l-107.6-214.8c-1.2-3-2.8-5.5-4.7-7.6
			c-3.4-3.7-6.6-4.2-9.6-1.4c-2.4,2.2-3.6,5.8-3.4,10.8c0.1,5,2.1,12.2,5.9,21.7L3376.6,3566z M3474.8,3614.1c6.9,4,12.7,4,17.3-0.3
			c6.9-6.3,9.7-17.7,8.2-34.4s-6.5-34.9-15.1-54.7s-19.6-37.1-33-51.9c-5.1-5.7-9.5-9.3-13.2-11s-6.9-1.2-9.6,1.2
			c-3.2,2.9-4.9,8.7-4.9,17.4c-0.1,8.7,1.6,19.7,5,33.1c3.4,13.3,8.8,28,16.1,43.9L3474.8,3614.1z"/>
		<path d="M3147,3630.8c-1.1-3.7-2.3-6.5-3.7-8.5c-2.6-4-6.1-6-10.3-5.9s-9.5,1.9-15.7,5.5l-2.1-6.8l6.7-4
			c18.9-11.7,31-19.2,36.2-22.7c6.4-4.2,19.5-13.3,39.3-27.5l2.1,6.8c-8.2,5.7-13.4,11.3-15.5,16.8s-1.8,12.3,0.8,20.2l25.6,76.9
			c-3.3-20.5-3.6-36.7-0.7-48.5c2.8-11.9,8.9-20.9,18.2-27c11.1-7.3,21.8-9.2,32.3-5.8c10.4,3.4,20.2,11.9,29.1,25.5
			c9.6,14.5,16.2,32.6,19.9,54.3c3.7,21.6,2.8,42.5-2.6,62.5c-5.4,20-16.1,35.2-31.9,45.6c-5.3,3.5-10.7,5.5-16.2,6.2
			c-5.6,0.7-10.5-0.2-14.9-2.5c-8.8,6.8-18,18.6-27.5,35.3l-5.6,1c-0.7-5.8-2.2-12.5-4.6-20L3147,3630.8z M3245.3,3787.2
			c6.2,1.9,11.8,1.2,16.7-2c8.5-5.6,12.9-17.1,13.1-34.4c0.2-17.3-2.8-36.2-8.8-56.7c-6.1-20.5-13.5-37.4-22.4-50.9
			c-4.1-6.2-7.7-10.1-11-11.7c-3.3-1.6-6.5-1.4-9.5,0.6c-4.4,2.9-7.2,9.3-8.4,19.2c-1.3,9.9-0.9,21.9,1.1,35.8
			c2,13.9,5.5,27.8,10.5,41.7l-1.9-4.6L3245.3,3787.2z"/>
		<path d="M2990.8,3810.4l-5.5,2.8l-3.5-26.1c-1.8-12.5-0.5-22.9,4-31.1c4.5-8.2,11-14.5,19.5-18.8c5.2-2.7,10.1-4.1,14.7-4.3
			c4.6-0.2,8.5,0.9,11.9,3.1c3.5,2.6,6.4,6.1,8.7,10.5s4.6,11.2,6.8,20.3l7.6,33.9c-1.8-22.1-1.9-40-0.2-53.8s5-24.7,10-32.5
			s12-14.1,20.9-18.6c8.7-4.5,16.3-5.8,22.7-4s11.7,6.6,15.6,14.3c3.1,6,5.3,13.3,6.5,21.9l16,100c0.6,4.1,1.5,7.2,2.6,9.3
			c2.1,4.1,5,5.1,8.6,3.2c3.1-1.6,5.3-4.8,6.6-9.6s1.3-12.4-0.1-22.7l-2-16.6l5.5-2.8l3.7,24.9c3.3,23.5-4.5,40.1-23.5,49.9
			c-17.6,9.1-30.5,5.6-38.8-10.5c-3.1-6-5.5-14-7.3-24.1l-14.3-91.7c-1-6.1-2.2-10.7-3.8-13.8c-2.3-4.4-5.3-5.7-8.9-3.8
			c-5.8,3-9.7,12.2-11.8,27.7c-2,15.5-2.2,34.7-0.5,57.7s5,46.9,10,71.7l4,18.5c-17,9.3-30.3,17.8-40,25.7l-30.4-148
			c-0.9-4.7-2-8.1-3.2-10.5c-1.7-3.3-4.2-4.1-7.5-2.4c-3.7,1.9-6.1,5.3-7.2,10.3c-1.1,5-1,12.4,0.4,22.2L2990.8,3810.4z"/>
		<path d="M2976.4,3872.6c-0.6,21-6,40.5-16.1,58.4c-10.2,18-25.6,31-46.3,39c-15.8,6.2-29.6,6.6-41.5,1.3s-21-16.1-27.3-32.3
			c-6.5-16.6-9.4-35.4-8.8-56.4c0.6-21,6-40.5,16.1-58.4c10.2-18,25.6-31,46.3-39c15.8-6.2,29.6-6.6,41.5-1.3s20.9,16.1,27.3,32.3
			C2974,3832.8,2977,3851.6,2976.4,3872.6z M2929.4,3932.2c3.3-17.9,4-38.4,1.9-61.6c-2-23.2-6.6-43.9-13.6-61.9
			c-2.8-7.3-5.7-12.3-8.6-14.9c-2.9-2.6-6.1-3.2-9.8-1.8c-7.5,2.9-12.9,13.1-16.3,30.5c-3.4,17.4-4.1,37.7-2.1,60.8
			s6.6,44,13.9,62.7c3.1,7.9,6,13.1,8.9,15.6c2.8,2.5,6,3.1,9.4,1.8C2920.7,3960.4,2926.1,3950,2929.4,3932.2z"/>
		<path d="M2753,3870.7c0-2.3-0.3-4.5-0.9-6.5c-0.9-3.1-2.5-5.2-4.6-6.3s-4.7-1.2-7.6-0.3c-4.6,1.4-8.3,4.9-11.3,10.7
			c-2.9,5.7-4.7,13.6-5.4,23.6l-0.9,14.2l-5.9,1.8l0.9-20c0.8-27,12.8-44,35.9-50.8c10.6-3.2,19.4-2.8,26.4,1.2
			c7,3.9,11.9,10.7,14.7,20.3c1.8,6,2.7,12.6,2.8,19.6l1.1,119.5l28.1-8.4l0.3,6.7l-28.5,8.5l0.4,50.6c-17.7,5.5-32.3,11.4-44,17.9
			l-0.5-55.3l-35.3,10.5l-0.9-6.5l36.3-10.8L2753,3870.7z"/>
		<path d="M2543.5,3946.3l-6.1,1.3l3.2-25c1.8-12.8,6-22.5,12.5-29.1s14.2-10.8,22.9-12.6c11.1-2.3,19.6-0.6,25.7,5
			c3.8,3.2,6.4,8.2,7.8,15c1.1,5.5,1.5,12,1,19.4c4-17.3,9.7-30.3,17-39.2c7.4-8.9,16.4-14.4,27-16.6c11.7-2.4,21.3-0.8,28.8,4.9
			s12.5,14.7,15.1,27c3.9,19,3,40.1-2.7,63.4c-5.7,23.3-14.9,43.7-27.5,61.2s-26.3,27.8-41.3,30.9c-5.8,1.2-10.7,0.4-15-2.2
			c-4.2-2.7-7.4-7.4-9.4-14l-1.2,16.6c-17,3.7-32.1,8.5-45.3,14.4l12.4-151.1c0.3-3.8,0.2-6.9-0.3-9.3c-1-4.7-3.5-6.6-7.5-5.8
			c-7.5,1.5-12.3,11.3-14.6,29.3L2543.5,3946.3z M2603.6,4022.5c0,1.1,0.2,2.7,0.7,4.9c1.1,5.3,2.8,9.2,5.2,11.6
			c2.4,2.4,5.4,3.2,9,2.5c7.2-1.5,14.1-9.7,20.7-24.6c6.6-14.9,11.1-32.8,13.5-53.8c2.4-20.9,1.8-40.6-2-58.9
			c-1.5-7-3.2-11.9-5.2-14.7s-4.6-3.9-7.8-3.2c-4.7,1-9.2,5.3-13.5,12.9c-4.3,7.7-8,18.2-11.1,31.6c-3.1,13.4-5.1,29-5.8,46.7v-8
			L2603.6,4022.5z"/>
		<path d="M2467.2,3930.5c0.4-2.2,0.5-4.4,0.2-6.6c-0.4-3.2-1.5-5.6-3.5-7c-1.9-1.4-4.4-1.9-7.4-1.6c-4.7,0.6-9.1,3.4-12.9,8.6
			c-3.9,5.2-7,12.6-9.3,22.3l-3.3,13.9l-6.2,0.7l4.2-19.6c5.4-26.5,20-41.2,44-44.1c11-1.3,19.6,0.5,25.8,5.6s9.9,12.6,11.1,22.5
			c0.8,6.3,0.6,12.9-0.6,19.8l-19,117.9l29.1-3.5l-0.8,6.7l-29.5,3.5l-8.1,49.9c-18.3,2.4-33.8,5.8-46.4,10.2l8.9-54.6l-36.6,4.4
			l0.2-6.6l37.6-4.5L2467.2,3930.5z"/>
		<path d="M2352.8,4157.7c-6,5.6-13.7,8.6-23,9.2c-7.6,0.4-13.6-1-18.1-4.3c-4.4-3.3-6.8-8.2-7.2-14.4c-0.5-8.7,2.3-16,8.5-22.1
			c6.2-6,14.1-9.3,23.6-9.9c7.8-0.5,13.9,1.1,18.2,4.7s6.5,8.6,6.4,15.1C2361.6,4144.9,2358.7,4152.1,2352.8,4157.7z M2367.2,4063.1
			c0.3,4.3,2.3,6.4,6.2,6.2s7.4-2.4,10.4-6.6c3-4.2,6-11,9-20.3l5.6-17l6.2-0.4l-7.7,25.3c-6.7,22.8-21.2,34.9-43.3,36.2
			c-10,0.6-17.4-1.4-22.2-6.1c-4.8-4.6-7.5-10.8-7.9-18.7c-0.4-6.3,0.5-12.8,2.5-19.4l28.4-101.6c1.1-4,1.5-7.2,1.4-9.6
			c-0.3-4.6-2.6-6.7-6.9-6.5c-3.3,0.2-6.5,2.2-9.6,6.1c-3.1,3.9-6.3,10.8-9.4,20.8l-5,16l-6.2,0.4l7.1-24.3
			c6.3-22.8,20.3-34.8,42-36.1c19.8-1.1,30.2,7.3,31.2,25.3c0.4,7.2-0.7,15.5-3.5,25l-26.5,95.3
			C2367.7,4058.3,2367.1,4061.6,2367.2,4063.1z"/>
		<path d="M2287.3,4021.9c-8.5,19.2-20.9,35.2-37.2,47.9c-16.2,12.7-35.4,18.9-57.6,18.4c-17-0.3-29.9-5.2-38.9-14.6
			c-9-9.4-13.3-22.8-12.9-40.2c0.4-17.8,4.8-36.3,13.3-55.5s20.9-35.2,37.2-47.9c16.2-12.7,35.4-18.9,57.6-18.4
			c17,0.3,29.9,5.2,38.9,14.6c9,9.4,13.3,22.8,12.9,40.2C2300.2,3984.2,2295.8,4002.7,2287.3,4021.9z M2221.1,4059.1
			c9.9-15.3,18.3-34,25.3-56.3s10.6-43.1,11-62.4c0.2-7.8-0.6-13.5-2.3-17s-4.5-5.3-8.4-5.4c-8-0.2-16.9,7.2-26.7,22
			s-18.1,33.3-25.1,55.5s-10.6,43.2-11,63.2c-0.2,8.5,0.6,14.4,2.3,17.8c1.7,3.4,4.4,5.1,8.1,5.2
			C2202.3,4081.9,2211.3,4074.3,2221.1,4059.1z"/>
		<path d="M1951,3944.7l11-22.6c10.5-21.3,26.4-30.6,47.5-27.9c12.1,1.5,20.3,6.1,24.6,13.9c2.3,4.4,3.1,9.7,2.3,15.7
			c-0.9,6.9-3.6,15.2-8.4,24.9l-40,83.8c-2.7,5.6-4.2,10.1-4.6,13.6c-0.6,5,1.1,7.7,5.2,8.2c6.5,0.8,15.1-4.8,25.9-16.8
			s22.2-28.2,34.1-48.5c12-20.3,22.9-41.9,32.7-64.8l6.2-15.7l45.6,5.7l-56.6,135c-1.8,3.7-2.9,7.1-3.2,10.1
			c-0.5,3.9,1.1,6.1,4.8,6.5c4.1,0.5,8-0.9,11.5-4.3c3.6-3.4,7.7-9.6,12.4-18.7l8.2-15.7l6.2,0.8l-11.8,23.5
			c-5.6,11.4-12.1,19.2-19.7,23.5c-7.5,4.3-16.3,5.9-26.2,4.6c-18.6-2.3-26.7-12.3-24.5-30c0.8-6,2.4-12.2,4.9-18.5l14.9-37.9
			c-11.6,20.9-22.2,37-31.8,48.1c-9.6,11.2-18.9,18.7-27.8,22.7c-8.9,3.9-18.5,5.3-28.6,4c-19.4-2.4-28.1-12.3-25.9-29.5
			c0.8-6.5,3.2-14,7.1-22.5l43.6-91.5c1.8-3.7,2.8-6.8,3.1-9.1c0.6-4.5-1.2-7.1-5.3-7.6c-3.5-0.4-7.1,1-10.9,4.2s-8,9.5-12.7,18.8
			l-7.8,14.8L1951,3944.7z"/>
		<path d="M1768.9,4062.2c3.8-4.4,9.6-10.3,17.4-17.7c9.6-9,16.8-16.6,21.7-22.6l4.5,1c-1.9,9.8-3.2,20.1-3.8,30.9
			c-0.4,7-1.1,12.7-2,16.9l-1.4,4.7c-2,7.1-5.9,12.6-11.6,16.5s-12.1,5-19.1,3.5c-4.9-1.1-8.5-3.3-10.8-6.5c-2.3-3.3-3-7.3-2.2-12
			C1762.7,4071.5,1765.2,4066.6,1768.9,4062.2z M1820.5,4073.6c3.8-4.4,9.6-10.3,17.4-17.7c9.6-9,16.8-16.6,21.7-22.6l4.5,1
			c-1.9,9.8-3.2,20.1-3.8,30.9c-0.4,7-1.1,12.7-2,16.9l-1.4,4.7c-2,7.1-5.9,12.6-11.6,16.5s-12.1,5-19.1,3.5
			c-4.9-1.1-8.5-3.3-10.8-6.5c-2.3-3.3-3-7.3-2.2-12C1814.3,4082.9,1816.8,4078,1820.5,4073.6z"/>
		<path class="st1" d="M860.2,3234.7c1.8-0.7,3.5-1.5,5-2.6c2.3-1.7,3.5-3.5,3.8-5.5c0.2-2-0.4-4.1-2-6.2c-2.4-3.3-6.4-5.3-11.9-6
			s-12.4,0.1-20.6,2.4l-11.7,3.4l-3.1-4.3l16.4-5.1c22.1-7.2,39.2-2.4,51.5,14.3c5.6,7.7,7.9,14.9,6.7,21.7s-5.2,12.7-12.1,17.8
			c-4.4,3.2-9.4,5.8-15,7.9L771,3308l14.9,20.3l-5.3,2.2l-15.1-20.5l-40.8,15c-9.5-12.7-18.6-22.8-27.2-30.4l44.6-16.4l-18.7-25.5
			l5-2.6l19.2,26.2L860.2,3234.7z"/>
		<path class="st1" d="M732.9,3081.5l21-4.9c19.9-4.5,34.6,1,44.4,16.5c9,14.4,7.1,25.6-5.7,33.6c-5.7,3.6-12.6,6.2-20.7,8l-77.3,19
			c-5.5,1.5-9.4,2.9-11.8,4.4c-3.5,2.2-4.3,4.8-2.4,7.8c2.8,4.4,10.2,7.1,22.2,8s27,0.2,44.9-2.2s36.7-6.1,56.4-11.2l23.5-6.8
			c0.3,0.1,0.5,0,0.9-0.2l-0.2,0.1l3.1-0.9l21,33.5l-187.7,52.2c-3.3,1-5.8,2-7.4,3c-3.2,2-4.7,4.6-4.6,8c0.1,3.3,2,7.9,5.7,13.8
			l-5.9,1.7c-7.1-11-14.2-20.4-21.3-28.1c-7.1-7.8-14.8-14.8-23.1-21l130.5-36.9c-22.9,3.1-40.3,3-52.2-0.5s-20.9-10.2-27.2-20.2
			c-4.7-7.4-6.4-14-5.2-19.6s4.8-10.3,10.6-13.9c5.1-3.2,11.4-5.6,18.9-7.2l84.6-20.6c3.4-0.8,6-1.8,7.8-2.9c3.3-2.1,4-4.7,2-7.9
			c-3.3-5.2-12.6-6.2-28-3l-14.1,2.9L732.9,3081.5z"/>
		<path class="st1" d="M642.8,2996.5c18.3,10.1,35.5,23.9,51.6,41.4c6.2-1.9,12.1-4.3,17.7-7.2c8.8-4.5,14.2-9.4,16.1-14.5
			c2-5.1,1.3-10.8-1.9-17.1c-2.7-5.1-7.3-10.1-13.8-14.9s-15-8.4-25.3-10.9l-0.1-5c12.4,1.2,24.4,5.1,36,11.8
			c11.7,6.7,20.7,16.3,27.1,28.7c5.9,11.4,7.7,22.4,5.3,32.9s-9.1,18.6-20.2,24.3c-14.8,7.6-32.1,11.5-51.9,11.7
			c-19.9,0.2-38.5-3.9-56-12.3c-17.5-8.4-30.5-20.8-38.9-37.2c-3.9-7.6-5.5-14.7-4.5-21.3c0.9-6.6,4.5-11.5,10.8-14.7
			C608.6,2984.9,624.6,2986.4,642.8,2996.5z M614.8,3042.2c10,2.6,21.7,3.7,35.2,3.2s26.6-2.4,39.4-5.8
			c-11.2-9.1-21.5-15.4-30.8-18.7c-9.4-3.5-18.9-5.2-28.6-5.1c-9.7,0.2-18.9,2.5-27.7,7.1c-3.1,1.6-5.1,3.1-6,4.3
			c-0.8,1.3-0.9,2.6-0.2,3.9C598.6,3035.9,604.8,3039.6,614.8,3042.2z"/>
		<path class="st1" d="M503.9,2794.9c4.9-8.1,13.9-14.5,27-19.4c14.4-5.3,30.8-7.6,49.3-6.8s35.6,5.4,51.2,13.7
			c15.6,8.3,26.4,20.6,32.4,36.7c1.8,4.9,2.5,9.7,2.1,14.5c-0.4,4.7-2,8.7-4.8,11.9c2.2,4.8,5.3,9.5,9.3,14.3c4.1,4.8,9,10,15,15.8
			l-0.4,4.6c-5.6-0.5-11.4-0.4-17.5,0.2L487.9,2893c-2.5,0.1-5.1,0.7-7.7,1.7c-3.5,1.3-5.6,3.6-6.2,6.8s0.3,8.1,2.7,14.5l-6.1,0.5
			c-4.7-12-9.6-22.5-15-31.5c-5.3-9-11.4-17.4-18.3-25.2l118-8.8c-15.4-1.7-27.2-4.7-35.7-9.2c-8.4-4.4-14.1-10.7-17.1-18.7
			C498.6,2812.3,499.1,2803,503.9,2794.9z M633.2,2811.3c-14.1-3.7-30.3-5-48.5-3.8s-34.2,4.3-48,9.4c-6.5,2.4-10.8,4.9-13.1,7.4
			c-2.2,2.5-2.8,5.3-1.7,8.3c1.8,4.9,8.2,8.8,19.1,11.6c10.9,2.8,24.3,4.4,40.1,4.7l76.4-5.6c2.6-4.8,3.1-9.4,1.4-14
			C655.9,2821,647.3,2815,633.2,2811.3z"/>
		<path class="st1" d="M517.7,2657.4c15.8,13.6,29.9,30.6,42.2,51c6.4-0.6,12.7-1.8,18.8-3.5c9.5-2.7,15.8-6.3,18.7-10.9
			c3-4.6,3.5-10.3,1.6-17.2c-1.6-5.6-5.1-11.4-10.6-17.4s-13-11.3-22.6-15.8l0.9-4.9c11.9,3.6,22.9,9.9,32.9,18.8
			c10.1,8.9,17,20.1,20.8,33.6c3.5,12.4,3,23.5-1.4,33.3s-12.7,16.4-24.7,19.7c-16,4.5-33.7,4.8-53.2,1s-37-11.6-52.4-23.4
			c-15.4-11.8-25.6-26.5-30.6-44.3c-2.3-8.3-2.4-15.5-0.2-21.8c2.2-6.2,6.7-10.3,13.6-12.2C486.5,2639.1,501.9,2643.8,517.7,2657.4z
			 M481,2696.5c9.2,4.6,20.5,8,33.9,10.3c13.3,2.3,26.6,3,39.7,2.2c-9.2-11.2-18-19.4-26.4-24.6c-8.5-5.4-17.5-8.9-27-10.7
			s-19-1.3-28.6,1.3c-3.4,1-5.6,2-6.7,3c-1.1,1.1-1.4,2.3-1,3.8C466.4,2687,471.8,2691.9,481,2696.5z"/>
		<path class="st1" d="M586.3,2582c-1.4-6.9-4.7-12.1-9.7-15.4c-5.1-3.3-11.3-4.3-18.6-2.8c-5.8,1.2-11.6,3.7-17.3,7.6
			c-5.7,3.8-11.9,9.1-18.8,15.9c-0.9,1-3.8,3.8-8.5,8.5c-4.8,4.7-9.5,8.4-14.1,11.2c-4.7,2.8-9.5,4.7-14.4,5.7
			c-11.9,2.4-22.5,0-31.8-7.3s-15.6-18.8-18.8-34.3c-2.4-11.9-2.3-22.2,0.3-31.1c2.7-8.8,9.2-14.3,19.6-16.5
			c5.1-1.1,10.1-0.5,14.9,1.5c4.8,2.1,7.8,5.7,8.8,11c0.9,4.6,0,8.6-3,12c-2.9,3.5-7,5.7-12.3,6.8c-4.6,0.9-9,1-13.3,0.2
			s-8-2.2-11.3-4c-1,2.7-1,6-0.2,10.1c1.4,6.6,4.5,11.3,9.4,14.2s11,3.7,18.4,2.4c4.9-1,9.2-2.9,12.8-5.6c3.6-2.7,8.6-7.2,15-13.2
			l5-5c8.5-7.8,15.6-13.6,21.3-17.4c5.7-3.7,11.7-6.3,17.9-7.5c8-1.7,15.7-1,22.8,1.9c7.2,2.9,13.4,7.9,18.6,14.9
			c5.3,7,9,15.7,11.1,26.2c2.7,13,2.4,24.3-0.9,33.9c-3.3,9.6-10.5,15.6-21.6,17.9c-5.5,1.1-10.4,0.7-14.8-1.2
			c-4.4-2-7.1-5.3-8.1-10.1s0.3-9,3.7-12.6c3.4-3.7,8.3-6.1,14.5-7.4c4-0.8,7.7-1.1,11.1-0.9c3.4,0.3,7.6,0.8,12.5,1.7
			C587.3,2590.1,587.2,2586.4,586.3,2582z"/>
		<path class="st1" d="M541.7,2458.6c1.9,0.3,3.8,0.3,5.7,0c2.8-0.4,4.7-1.4,5.9-3.1c1.2-1.7,1.6-3.8,1.2-6.4
			c-0.6-4.1-3.1-7.7-7.6-10.9s-11-5.7-19.3-7.6l-12-2.5l-0.7-5.3l16.9,3.3c22.8,4.1,35.7,16.4,38.6,36.9c1.3,9.4-0.1,16.8-4.3,22.3
			c-4.2,5.4-10.6,8.7-19.1,9.9c-5.4,0.8-11,0.7-17-0.1L428.4,2481l3.5,25l-5.7-0.6l-3.6-25.2l-43-6c-2.4-15.7-5.6-28.9-9.6-39.6
			l47,6.6l-4.5-31.3h5.7l4.6,32.2L541.7,2458.6z"/>
		<path class="st1" d="M458.3,2163.8c15.1-0.1,29.8,2.2,44.2,7.1c14.3,4.8,26.1,12.1,35.3,21.8s13.9,21.5,14,35.3
			c0.1,14.9-4.9,25.6-15.1,32c10.4,11.7,15.6,25.4,15.7,41c0.1,12.1-3,21.4-9.4,27.9s-14.5,9.8-24.4,9.9c-11,0.1-22.2-3.8-33.6-11.8
			c-11.4-7.9-22.6-18.2-33.7-30.8s-24.5-29.2-40.2-49.8c0.8,4.7,2.3,8.9,4.4,12.7c2.2,3.8,5.1,8.1,8.6,12.9
			c3.2,4.1,5.6,7.5,7.2,10.3s2.4,5.7,2.5,8.7c0,2.6-0.9,5.6-2.7,9c-1.7,2.6-2.5,5.1-2.5,7.3c0,2.4,1.1,4.5,3.1,6.1
			c2.1,1.7,5.5,3.2,10.4,4.7l7.6,2.5v5.3l-20.5-6c-10.7-3.3-18.1-7.1-22.4-11.6c-4.2-4.4-6.4-9.4-6.4-14.8c0-2.2,0.2-4.3,0.8-6.2
			c0.5-1.9,1.5-4.1,2.7-6.7c0.2-0.6,0.7-2,1.6-4.2s1.6-4.6,2-7.2c0.4-2.5,0.7-5.1,0.6-7.7c-0.1-7.7-2.1-14.8-6.1-21.5l-5.3-3
			l2.8-5.9c19.9,19.3,40.6,34.9,61.8,47c21.3,12.1,40.5,18,57.7,17.9c7.1-0.1,12.3-1.2,15.7-3.5c3.3-2.3,5-5.9,4.9-11
			c-0.1-6.5-2.5-13-7.4-19.5c-5,2.3-11.3,3.5-18.7,3.5c-10.8,0.1-21.4-2.3-31.7-7.2c-10.3-4.9-18.7-10.9-25.1-18s-9.6-13.6-9.7-19.4
			c-0.1-7.1,6.1-10.7,18.4-10.8c10.1-0.1,19.9,1.8,29.4,5.8c9.6,3.9,18.5,9.9,26.7,17.8c8.5-4.7,12.8-11.9,12.7-21.4
			c-0.1-9.3-3.8-17.2-11.3-23.7c-7.4-6.5-16.8-11.2-28.1-14.3c-11.3-3.1-22.7-4.6-34.1-4.5c-4.1,0-7.1,0.2-9,0.4
			c-4,10.5-8.9,19.3-14.6,26.3s-13.2,10.6-22.3,10.7c-4.5,0-8.3-1.4-11.5-4.4s-4.8-7-4.9-12c-0.1-8.6,4.8-14.9,14.7-19
			c9.9-4.1,21.1-6.6,33.8-7.4C452.2,2164,455.9,2163.8,458.3,2163.8z M460.2,2229.3c4.5,2.8,10.4,5.1,17.6,6.9
			c7.2,1.8,14.5,2.7,22,2.6c6.2-0.1,11.8-0.9,16.8-2.7c-7.1-6.1-15.1-10.9-23.9-14.4s-17.5-5.2-26.1-5.1c-8.8,0.1-13.1,1.7-13.1,4.9
			C453.5,2223.9,455.7,2226.5,460.2,2229.3z"/>
		<path class="st1" d="M512.2,2011.7l0.4-5.3l19.8,8.6c10.1,4.5,17.1,10.3,21,17.2c3.9,6.9,5.5,14.2,4.9,21.9
			c-0.7,9.7-4.2,16.3-10.3,20c-3.6,2.3-8.3,3.3-14.3,2.8c-4.8-0.4-10.3-1.6-16.3-3.8c13.3,7.4,22.7,15.2,28.2,23.4s8,17,7.2,26.3
			c-0.8,10.2-4.4,17.8-10.9,22.6s-15.1,6.8-25.9,6c-16.6-1.3-33.8-7.1-51.6-17.3c-17.8-10.3-32.5-22.7-43.9-37.2
			s-16.6-28.3-15.6-41.4c0.4-5,2.2-9,5.4-11.8c3.2-2.8,7.8-4.3,13.8-4.4l-13.4-5c1-14.9,0.6-28.5-1.1-40.8l121.7,46.2
			c3.1,1.2,5.7,1.8,7.7,2c4.1,0.3,6.3-1.3,6.6-4.8c0.5-6.5-6.4-12.9-20.7-19L512.2,2011.7z M435.1,2043.1c-0.9-0.3-2.3-0.5-4.2-0.6
			c-4.6-0.4-8.2,0.2-10.8,1.5c-2.5,1.4-3.9,3.7-4.2,6.8c-0.5,6.3,4.6,14,15.4,23c10.7,9,24.4,17,41.1,24s33,11.1,49,12.4
			c6.1,0.5,10.6,0.2,13.4-0.8c2.8-1,4.3-2.9,4.5-5.7c0.3-4.1-2.2-8.8-7.5-14.2s-13.1-10.9-23.4-16.7c-10.3-5.8-22.7-11.1-37.1-15.9
			l6.6,1.9L435.1,2043.1z"/>
		<path class="st1" d="M458,1853.2c16.6,2.7,35.5,11.2,56.7,25.6s39.6,30.5,55,48.3c9.7,11.2,18,23.2,24.8,35.9
			c6.8,12.7,11.3,25.4,13.4,38c1.6,7.8,1.9,14.6,1,20.3c-1,5.9-3.1,10.3-6.4,13.3c-3.3,3-7.4,4.1-12.2,3.3c-5-0.8-8.8-3.3-11.4-7.4
			c-2.6-4.1-3.5-8.9-2.6-14.5c1.8-10.9,9.7-19.7,23.8-26.5c-4.3-14.3-10.9-27.7-19.6-40l-135.6,0.2c-5.3,0.1-8.9,0.5-10.8,1.2
			s-3,2-3.3,3.9c-0.3,2,0.7,4.2,3.2,6.5s7.5,5.6,15.1,9.8l12.7,7.2l-0.8,5.3l-19.1-10.2c-9.9-5.4-16.5-11.2-19.9-17.5
			c-3.3-6.3-4.4-13.3-3.1-21.1c1.3-7.9,4.5-13.7,9.6-17.4s13.4-5.5,24.7-5.4l96.9,2.6c-10.3-10-21-18.9-32.1-26.7
			c-11.1-7.8-22-14-32.6-18.6c-5.3,6.9-11.4,12.2-18.5,16c-7,3.8-14.1,5-21.3,3.7c-5.7-0.9-10-3.3-12.9-7.2
			c-2.9-3.9-3.8-8.7-2.9-14.4C431.8,1855.2,441.2,1850.5,458,1853.2z"/>
		<path class="st1" d="M584.2,1754.6c1.7,1,3.4,1.8,5.2,2.3c2.7,0.7,4.9,0.6,6.7-0.5c1.7-1.1,3-2.9,3.7-5.4c1.1-4,0.2-8.3-2.7-13.1
			c-2.9-4.7-7.8-9.6-14.7-14.6l-10-7.1l1.4-5.1l14.2,9.7c19.3,12.8,26.2,29.3,20.8,49.2c-2.5,9.2-6.8,15.4-12.8,18.7
			c-6,3.3-13.2,3.8-21.5,1.5c-5.2-1.4-10.4-3.7-15.5-6.9l-87.6-53.3l-6.7,24.3l-5-2.8l6.7-24.6l-37.1-22.6c4-15.3,6.3-28.7,7-40.2
			l40.5,24.8l8.4-30.5l5.2,2.3l-8.6,31.3L584.2,1754.6z"/>
		<path class="st1" d="M538.7,1670.3c-13.3-12.1-23-26.5-29-43.2s-5.9-34,0.5-51.9c4.8-13.7,12.3-23,22.4-27.7
			c10.1-4.8,22.2-4.7,36.3,0.3c14.4,5.1,28.3,13.7,41.7,25.8c13.4,12.1,23,26.5,29,43.2s5.9,34-0.5,51.9
			c-4.8,13.7-12.3,23-22.4,27.7c-10.1,4.8-22.2,4.7-36.3-0.3C566,1691,552.1,1682.5,538.7,1670.3z M526.2,1606.4
			c9.8,12.1,22.8,24,39.1,35.7s32.3,20.2,47.9,25.8c6.3,2.2,11.2,3.1,14.5,2.7s5.5-2.2,6.6-5.4c2.3-6.5-1.3-15.7-10.7-27.7
			c-9.5-11.9-22.3-23.7-38.5-35.3c-16.2-11.6-32.4-20.3-48.6-26c-6.9-2.4-11.9-3.4-15.1-2.9c-3.2,0.5-5.4,2.2-6.4,5.2
			C512.7,1584.9,516.4,1594.3,526.2,1606.4z"/>
		<path class="st1" d="M719.6,1359.5l2.4-4.7l15.6,16.4c7.6,7.8,11.8,15.7,12.8,23.6s-0.4,15.6-4.1,22.9c-2.3,4.5-5,7.9-8.1,10.4
			c-3.1,2.4-6.4,3.7-9.8,3.8c-3.8,0-7.5-1-11.4-2.9c-3.8-1.9-8.8-5.5-15-10.7l-22.3-19.8c12.4,14.4,21.4,26.9,27.2,37.3
			c5.8,10.5,8.9,19.7,9.4,27.7s-1.3,15.8-5.1,23.5c-3.8,7.5-8.4,12.2-13.8,14.2c-5.4,2-11.4,1.3-18.1-2.1c-5.2-2.6-10.4-6.6-15.6-12
			l-61.4-61.5c-2.5-2.5-4.7-4.2-6.5-5.2c-3.5-1.8-6-1.1-7.6,2.1c-1.3,2.7-1.3,6,0.3,10c1.5,4,5.4,9.3,11.5,15.7l9.7,10.6l-2.4,4.7
			l-15.1-15.5c-14.1-14.7-17-30.2-8.8-46.5c7.7-15.2,18.4-19.2,32.2-12.2c5.2,2.6,10.9,7,17.2,13.1l56.1,56.6
			c3.7,3.8,6.9,6.3,9.6,7.7c3.8,1.9,6.5,1.3,8.1-1.8c2.5-5,0.6-13.4-5.8-25.2c-6.4-11.8-15.9-25.3-28.7-40.4
			c-12.7-15.1-27.1-30.1-43-44.9l-12.1-10.8c7.2-15,12.1-27.7,14.8-38l95.6,87.6c3,2.8,5.5,4.7,7.5,5.7c2.8,1.4,5,0.7,6.4-2.1
			c1.6-3.2,1.5-6.8-0.2-10.8s-5.5-9.1-11.4-15.2L719.6,1359.5z"/>
		<path class="st1" d="M811.3,1213.1l13.5,16.8c12.7,16,14.1,31.7,4.3,47.1c-5.6,8.8-12.2,13.5-19.8,14c-4.3,0.2-8.6-1.2-13.1-4
			c-5-3.2-10.5-8.4-16.3-15.6l-50.4-61.7c-3.4-4.1-6.3-7-8.8-8.6c-3.6-2.3-6.4-1.9-8.3,1.1c-3,4.7-1.8,13.5,3.6,26.3
			c5.4,12.8,13.8,27.5,25.2,44.3c11.4,16.7,24.2,33.1,38.3,49.1l9.9,10.6l-21.1,33.4l-84.1-93.3c-2.2-2.7-4.5-4.8-6.7-6.2
			c-2.8-1.8-5.1-1.4-6.8,1.3c-1.9,3-2.2,6.5-0.9,10.5s4.6,9.5,10,16.4l9.2,12.1l-2.8,4.5l-13.9-17.8c-6.8-8.5-10.5-16.4-11.1-23.9
			c-0.6-7.4,1.4-14.8,6-22c8.6-13.6,19.3-16.3,32.3-8.1c4.4,2.8,8.6,6.3,12.5,10.6l24,25.5c-12-16.6-20.6-30.7-25.8-42.3
			c-5.2-11.6-7.6-21.5-7.4-29.9c0.2-8.4,2.7-16.3,7.4-23.7c9-14.2,19.8-17.3,32.4-9.3c4.7,3,9.7,7.6,14.9,13.7l55.1,67.4
			c2.2,2.7,4.2,4.7,6,5.8c3.3,2.1,5.9,1.6,7.8-1.4c1.6-2.5,1.8-5.9,0.7-10s-4.5-9.7-10-16.7l-8.7-11.4L811.3,1213.1z"/>
		<path class="st1" d="M905.8,1089.1l3.3-4.2l12.1,17.8c6.4,9.2,9.2,17.7,8.6,25.5c-0.7,7.9-3.4,15-8.3,21.3
			c-7.1,9.2-15,12.4-23.7,9.6c-3.6-0.9-7.1-2.7-10.7-5.4c-4.3-3.3-8.8-8.2-13.7-14.8l-0.7-0.9c8.2,15.3,12.8,28.3,13.7,39.1
			c0.9,10.7-2,20.5-8.7,29.2c-6,7.8-13.5,12.2-22.5,13.1s-18.6-2.7-28.9-10.7c-12-9.2-22.6-22.4-31.9-39.5
			c-9.3-17.1-14.5-35.1-15.7-53.9s3.8-35.4,14.9-49.7c5.4-6.9,11.4-9.5,18-7.7l-30-39.1c-2.1-2.8-3.9-4.8-5.3-5.9
			c-3-2.3-6-2.8-9.1-1.5s-6.8,4.6-11,10.1l-3.6-4.9c7.7-10.3,14.1-20.2,19-29.7c5-9.5,8.9-19.2,11.9-29.2l123.8,165
			c1.5,2.3,3.2,4.2,5.1,5.7c3.4,2.6,6.2,2.5,8.3-0.3c1.7-2.2,2.1-5.4,1.3-9.6c-0.9-4.2-3.6-10-8.3-17.4L905.8,1089.1z M815.5,1063.6
			c-6.4-2.4-11.3-1.4-14.6,2.9c-4.9,6.4-5.5,16.5-1.7,30.4s10.8,28.5,21.1,43.9s22.2,28.3,35.8,38.8c5.2,4,9.4,6.4,12.8,7.2
			c3.4,0.8,6,0,8-2.5c2.3-3,2.8-8.1,1.5-15.5s-4.4-16.4-9.3-27.2c-4.9-10.7-11.7-22.3-20.3-34.6L815.5,1063.6z"/>
		<path class="st1" d="M957.5,971.3c-3.2,20.6-10.2,41.5-21,62.8c3.9,5.1,8.2,9.8,12.9,14.1c7.3,6.7,13.7,10.1,19.2,10.1
			c5.5,0.1,10.6-2.5,15.4-7.7c3.9-4.3,7-10.3,9.2-18.2c2.2-7.8,2.7-17,1.4-27.5l4.7-1.8c3.2,12,3.6,24.6,1.4,37.9
			c-2.2,13.2-8.1,25-17.5,35.4c-8.7,9.5-18.4,15-29,16.4s-20.6-2.1-29.8-10.6c-12.3-11.2-21.9-26.1-29-44.7
			c-7-18.6-9.6-37.5-7.8-56.8s9-35.8,21.5-49.4c5.8-6.3,11.9-10.2,18.4-11.6c6.5-1.4,12.3,0.3,17.6,5.1
			C956.5,935.1,960.7,950.7,957.5,971.3z M904.9,960.8c1,10.3,4,21.7,9.2,34.2c5.1,12.5,11.5,24.2,19.1,34.9
			c4.7-13.7,7-25.5,6.9-35.4c0.1-10-1.6-19.6-5.1-28.6s-8.9-16.9-16.2-23.5c-2.6-2.4-4.7-3.8-6.1-4.1c-1.5-0.3-2.7,0.1-3.7,1.2
			C905.2,943.4,903.9,950.5,904.9,960.8z"/>
		<path class="st1" d="M1035.2,817.6c5.8,0.3,11,2.9,15.6,7.8c5.5,5.8,8.3,12.6,8.5,20.3s-2.5,14.1-7.9,19.2
			c-3.9,3.7-8,5.5-12.1,5.5c-4.2-0.1-8.1-2.1-11.8-6c-4.5-4.8-6.9-10.6-7.3-17.5c-0.4-6.9,1.3-13.2,5-18.8c-0.3,0.3-0.8,0.5-1.5,0.8
			c-0.7,0.3-1.3,0.7-1.7,1c-6.9,6.5-9.2,18.2-7,35.1c2.3,16.8,11.9,41.7,28.7,74.5l23.9,43.3l-28.7,27.1l-58.1-111.4
			c-1.4-2.8-3-5.2-4.9-7.3c-2.4-2.6-4.7-2.8-6.9-0.8c-2.6,2.4-3.7,5.8-3.5,10.2c0.3,4.4,2.1,10.5,5.4,18.4l5.9,14l-3.9,3.6
			l-9.1-20.7c-8.2-18.7-5.4-34.6,8.3-47.5c10.5-9.9,20.9-9.3,31.2,1.7c3.7,3.9,6.9,8.5,9.7,13.6l4.5,8.1
			c-7.1-17.6-10.6-31.5-10.3-41.7s4.1-18.7,11.4-25.6C1023.9,819.6,1029.4,817.3,1035.2,817.6z"/>
		<path class="st1" d="M1152.1,903.7c5.5-4.5,8.5-9.8,9.1-15.8s-1.5-12-6.2-17.7c-3.8-4.6-8.7-8.6-14.7-11.8
			c-6-3.3-13.6-6.3-22.8-9.2c-1.3-0.4-5.1-1.6-11.5-3.6s-11.9-4.5-16.5-7.3s-8.5-6.2-11.7-10.1c-7.7-9.4-10.4-19.9-8.3-31.6
			c2.2-11.7,9.4-22.5,21.7-32.6c9.4-7.7,18.6-12.4,27.7-14.1c9.1-1.7,17,1.5,23.7,9.7c3.3,4,5.2,8.7,5.6,13.9s-1.5,9.5-5.7,13
			c-3.6,3-7.6,3.9-12,3c-4.4-1-8.3-3.6-11.8-7.7c-3-3.6-5.1-7.5-6.3-11.7c-1.2-4.2-1.8-8.1-1.7-11.8c-2.8,0.4-5.8,1.9-9,4.5
			c-5.2,4.3-8,9.2-8.3,14.9s1.8,11.5,6.4,17.4c3.2,3.9,6.8,6.8,11,8.8c4.1,1.9,10.3,4.3,18.7,7.1l6.8,2.1
			c10.9,3.9,19.3,7.5,25.3,10.8s11,7.4,15,12.3c5.2,6.4,8.2,13.4,8.9,21.1c0.8,7.7-0.8,15.5-4.5,23.4c-3.8,7.9-9.8,15.2-18,22
			c-10.3,8.4-20.4,13.4-30.4,15s-18.7-2-25.9-10.8c-3.5-4.3-5.5-8.9-5.8-13.7s1.4-8.7,5.2-11.8c3.8-3.1,8.1-3.9,12.9-2.6
			c4.8,1.3,9.3,4.5,13.3,9.4c2.6,3.2,4.6,6.3,5.9,9.4c1.3,3.1,2.8,7.1,4.3,11.9C1145.4,908.3,1148.6,906.5,1152.1,903.7z"/>
		<path class="st1" d="M1240.7,806.9c0.6,1.8,1.5,3.5,2.6,5c1.6,2.3,3.5,3.5,5.5,3.8s4.1-0.4,6.2-1.9c3.3-2.4,5.4-6.3,6.1-11.8
			c0.8-5.5,0-12.4-2.3-20.6l-3.3-11.8l4.3-3.1l5,16.4c7,22.1,2.1,39.2-14.8,51.4c-7.7,5.6-15,7.7-21.7,6.5
			c-6.8-1.2-12.6-5.3-17.7-12.3c-3.2-4.4-5.8-9.4-7.8-15.1l-34.7-96.5l-20.4,14.7l-2.1-5.4l20.7-14.9l-14.6-40.9
			c12.8-9.4,23-18.4,30.6-26.9l16,44.7l25.7-18.5l2.6,5l-26.3,19L1240.7,806.9z"/>
		<path class="st1" d="M1387.8,685.2l4.5-2.8l4.8,21.1c2.3,10.9,1.8,19.9-1.6,27.1c-3.3,7.2-8.3,12.8-14.8,16.8
			c-8.3,5.1-15.7,6.3-22.2,3.5c-4-1.5-7.5-4.8-10.7-9.9c-2.5-4.1-4.7-9.3-6.5-15.4c1.8,15.1,1.1,27.3-2.3,36.6s-9,16.4-17,21.3
			c-8.7,5.4-17,6.9-24.7,4.5s-14.4-8.2-20.1-17.4c-8.7-14.1-14.2-31.4-16.4-51.9c-2.2-20.5-0.8-39.6,4.3-57.4
			c5-17.8,13.1-30.1,24.2-37c4.3-2.6,8.5-3.5,12.7-2.6s8.1,3.8,11.7,8.6l-3.9-13.7c12.6-8,23.4-16.3,32.4-24.9l34.3,125.6
			c0.9,3.2,1.8,5.7,2.9,7.4c2.2,3.5,4.7,4.3,7.8,2.5c5.6-3.4,6.6-12.7,3.2-27.9L1387.8,685.2z M1317.1,641.4c-0.3-0.9-1-2.1-2-3.7
			c-2.4-4-5-6.6-7.6-7.8s-5.3-1-8,0.6c-5.4,3.3-8.6,12-9.5,25.9c-0.9,14,0.7,29.7,4.8,47.3c4.2,17.6,10.5,33.2,18.9,46.9
			c3.2,5.2,6.1,8.7,8.5,10.4c2.5,1.7,4.9,1.8,7.3,0.3c3.5-2.2,5.9-6.9,7.1-14.4c1.2-7.4,1.1-17-0.3-28.8c-1.4-11.7-4.4-24.9-9-39.4
			l2.3,6.5L1317.1,641.4z"/>
		<path class="st1" d="M1542.2,606.7l2.8,21.4c2.5,20.2-4.4,34.4-20.8,42.5c-9.4,4.6-17.4,5.2-24.2,1.7c-3.7-2.1-6.8-5.5-9.1-10.2
			c-2.6-5.4-4.6-12.6-5.8-21.8l-11-78.9c-0.7-5.3-1.8-9.2-3.1-11.9c-1.9-3.8-4.4-5-7.6-3.4c-5,2.5-8.6,10.6-10.6,24.3
			c-2.1,13.7-2.6,30.7-1.5,50.9c1,20.2,3.4,40.8,7.2,61.9l3,14.2l-35.4,17.5l-23.3-123.4c-0.5-3.5-1.3-6.4-2.5-8.8
			c-1.5-3-3.7-3.8-6.5-2.4c-3.2,1.6-5.3,4.4-6.2,8.6c-1,4.1-1,10.5,0,19.2l1.6,15.2l-4.8,2.4l-2.7-22.4c-1.4-10.8-0.4-19.5,3-26.2
			s8.9-11.9,16.6-15.7c14.4-7.1,25-3.8,31.8,9.9c2.3,4.7,4.1,9.9,5.2,15.5l7.3,34.2c-1.6-20.5-1.6-37,0-49.5
			c1.6-12.6,4.7-22.4,9.2-29.4s10.7-12.5,18.6-16.4c15.1-7.5,25.9-4.5,32.5,8.9c2.5,5,4.3,11.5,5.6,19.4l12.1,86.2
			c0.5,3.5,1.2,6.2,2.1,8c1.7,3.5,4.2,4.5,7.4,2.9c2.7-1.3,4.6-4,5.8-8.2c1.2-4.1,1.3-10.6,0.2-19.5l-1.4-14.3L1542.2,606.7z"/>
		<path class="st1" d="M1687.5,550.1l5-1.9l1,21.5c0.7,11.1-1.3,19.9-6,26.3c-4.7,6.4-10.7,11-18.2,13.9
			c-10.8,4.1-19.2,2.8-25.3-4.1c-2.6-2.6-4.7-6-6.3-10.2c-1.9-5.1-3.3-11.6-4-19.8l-0.1-1.1c-1,17.4-3.8,30.8-8.7,40.5
			c-4.8,9.6-12.4,16.4-22.6,20.4c-9.2,3.5-17.9,3.3-26-0.6c-8.1-3.9-14.5-12-19.1-24.2c-5.4-14.1-7.6-30.9-6.7-50.4
			c1-19.4,5.8-37.5,14.7-54.2c8.8-16.7,21.7-28.2,38.6-34.7c8.2-3.1,14.6-2.2,19.4,2.8l-5.2-49c-0.3-3.5-0.8-6.1-1.5-7.8
			c-1.3-3.5-3.7-5.5-7-6s-8.2,0.4-14.6,2.9l-0.5-6.1c12-4.8,22.5-9.9,31.7-15.4s17.6-11.7,25.4-18.7l19.7,205.3
			c0.1,2.8,0.5,5.3,1.4,7.6c1.5,4,4,5.4,7.3,4.1c2.6-1,4.6-3.5,6.1-7.6c1.4-4,2.1-10.4,2-19.2L1687.5,550.1z M1623.7,481.3
			c-4.3-5.4-8.9-7.1-14-5.2c-7.5,2.9-13.2,11.2-17.3,25c-4,13.8-5.6,30-4.8,48.5c0.8,18.5,4.2,35.8,10.4,51.8
			c2.3,6.1,4.7,10.4,7.2,12.8c2.4,2.5,5.1,3.1,8.1,2c3.5-1.3,6.6-5.5,9.3-12.4c2.7-6.9,4.8-16.3,6.2-28c1.4-11.7,1.6-25.1,0.7-40.1
			L1623.7,481.3z"/>
		<path class="st1" d="M1891.1,566.4c-0.2,3.3,0,6,0.5,8c1,4,3.2,6.6,6.6,7.8c3.5,1.2,8.2,1.3,14.3,0.2l-0.3,6.1l-6.6,1.3
			c-18.7,3.9-30.6,6.4-35.9,7.7c-6.4,1.5-19.6,5.1-39.8,10.6l0.3-6.1c8.3-2.2,14.1-5.2,17.4-9c3.3-3.9,5.1-9.4,5.3-16.5l1.9-69.5
			c-3.3,17.5-7.9,30.6-13.6,39.4c-5.8,8.8-13.3,14.3-22.6,16.5c-11.1,2.6-20.3,1.1-27.8-4.8c-7.4-5.8-12.8-15.5-16-29.1
			c-3.5-14.5-3.5-31.1-0.2-49.6c3.4-18.5,10.2-35.1,20.4-49.6c10.3-14.5,23.3-23.7,39.1-27.4c5.3-1.3,10.2-1.3,14.9-0.2
			c4.7,1.1,8.4,3.2,11.3,6.4c9.1-2.9,19.9-9.7,32.6-20.4l4.8,0.9c-1.1,4.9-1.9,10.7-2.2,17.5L1891.1,566.4z M1857.6,411.5
			c-4.4-3.4-9.1-4.4-14-3.3c-8.5,2-15.4,10-20.6,23.9s-8.4,30-9.5,48.3s-0.1,34.2,3.1,47.6c1.5,6.2,3.3,10.4,5.5,12.7s4.8,3,7.9,2.3
			c4.4-1,8.5-5.4,12.4-13c3.9-7.7,7.1-17.4,9.6-29.2s3.7-24.1,3.8-36.7l0.2,4.3L1857.6,411.5z"/>
		<path class="st1" d="M2068.7,465.3l5.3-0.8l-4.5,22.1c-2.1,10.7-6,18.7-12,24.1c-5.9,5.4-13,8.6-21.1,9.8c-5,0.7-9.4,0.5-13.1-0.7
			c-3.8-1.2-6.7-3.1-8.8-5.8c-2.1-3.1-3.5-6.8-4.1-11s-0.5-10.4,0.2-18.4l3.4-29.6c-4.7,18.4-9.7,33-14.9,43.7
			c-5.2,10.8-11,18.6-17.3,23.6s-13.7,8-22.1,9.3c-8.3,1.2-14.8,0.1-19.5-3.1c-4.7-3.3-7.6-8.6-8.7-16c-0.8-5.7-0.5-12.3,0.9-19.6
			l15.1-85.6c0.6-3.5,0.8-6.2,0.5-8.3c-0.6-3.9-2.6-5.6-6.1-5.1c-3,0.4-5.6,2.4-8.1,6c-2.4,3.6-4.5,9.7-6.3,18.4l-3.1,14l-5.3,0.8
			l4-21.2c3.9-20,14.9-31.3,33-33.9c16.8-2.4,26.3,4,28.5,19.4c0.8,5.7,0.5,12.9-0.9,21.6l-14.2,78.4c-0.9,5.2-1.2,9.3-0.8,12.3
			c0.6,4.3,2.7,6.1,6.2,5.6c5.5-0.8,11.3-7.2,17.3-19.2s11.6-27.5,16.6-46.7c5.1-19.1,9.1-39.4,12-61l1.9-16.1
			c16.4-2.7,29.6-5.9,39.6-9.6l-16.9,128.6c-0.6,4-0.7,7.2-0.4,9.4c0.5,3.1,2.2,4.5,5.4,4c3.5-0.5,6.4-2.6,8.7-6.3
			c2.3-3.7,4.3-9.8,5.9-18.1L2068.7,465.3z"/>
		<path class="st1" d="M2096.4,418.8c6.1-17,15.7-31.4,28.8-43.3s29.2-18.4,48.2-19.4c14.5-0.8,25.9,2.6,34.2,10.1
			s12.8,18.7,13.6,33.6c0.8,15.3-1.8,31.4-7.9,48.4c-6.1,17-15.7,31.4-28.8,43.3s-29.2,18.4-48.2,19.4c-14.5,0.8-25.9-2.6-34.2-10.1
			s-12.8-18.7-13.6-33.6C2087.7,451.8,2090.3,435.7,2096.4,418.8z M2150.7,382.7c-7.5,13.7-13.5,30.3-18.1,49.8s-6.4,37.5-5.5,54.1
			c0.4,6.7,1.4,11.5,3,14.4s4.2,4.3,7.5,4.1c6.9-0.4,14.1-7.2,21.5-20.5s13.4-29.6,18-49.1c4.6-19.4,6.4-37.7,5.5-54.8
			c-0.4-7.3-1.4-12.3-3.1-15.1c-1.7-2.8-4.1-4.1-7.2-4C2165.4,362,2158.2,369.1,2150.7,382.7z"/>
		<path class="st1" d="M2277.8,479.4c-0.6,1.9-0.9,3.7-0.9,5.6c0,2.8,0.7,4.9,2.1,6.3c1.5,1.4,3.5,2.2,6.1,2.2
			c4.1,0.1,8.1-1.9,12-5.8c3.9-4,7.4-9.9,10.5-17.9l4.4-11.4l5.3,0.1l-5.8,16.2c-7.6,21.9-21.8,32.7-42.5,32.4
			c-9.5-0.1-16.6-2.7-21.3-7.7s-7-11.8-6.8-20.4c0.1-5.4,1-11,2.8-16.8l29.8-98.1l-25.2-0.4l1.5-5.6l25.5,0.4L2288,317
			c15.9,0.1,29.4-1,40.7-3.3l-13.8,45.4l31.6,0.5l-0.9,5.6l-32.5-0.5L2277.8,479.4z"/>
		<path class="st1" d="M2468.5,469.6l5.3,0.5l-8.7,19.8c-4.6,10.1-10.4,17-17.4,20.8c-7,3.8-14.3,5.4-21.9,4.7
			c-9.7-0.8-16.3-4.3-19.9-10.4c-2.3-3.6-3.2-8.3-2.7-14.3c0.4-4.8,1.7-10.2,3.9-16.2c-7.5,13.2-15.4,22.5-23.7,28s-17,7.8-26.3,7
			c-10.2-0.9-17.7-4.6-22.5-11.1s-6.7-15.2-5.8-25.9c1.4-16.5,7.4-33.7,17.8-51.4c10.4-17.7,23-32.2,37.7-43.5s28.5-16.3,41.5-15.2
			c5,0.4,8.9,2.3,11.7,5.5s4.2,7.9,4.3,13.9l5.1-13.3c14.9,1.1,28.5,0.9,40.8-0.7L2440.3,489c-1.2,3.1-1.9,5.6-2.1,7.7
			c-0.4,4.1,1.2,6.3,4.8,6.6c6.5,0.6,12.9-6.3,19.2-20.5L2468.5,469.6z M2437.9,392.1c0.3-0.9,0.5-2.3,0.6-4.2
			c0.4-4.6-0.1-8.2-1.4-10.8c-1.4-2.6-3.6-4-6.8-4.2c-6.3-0.6-14,4.5-23.1,15.1s-17.2,24.3-24.4,40.9s-11.4,32.9-12.8,48.9
			c-0.5,6.1-0.3,10.6,0.7,13.4s2.9,4.3,5.6,4.6c4.1,0.4,8.8-2.1,14.3-7.3c5.4-5.2,11.1-13,16.9-23.3c5.9-10.3,11.3-22.6,16.3-36.9
			l-2,6.6L2437.9,392.1z"/>
		<path class="st1" d="M2527.2,500.6c-0.8,1.8-1.4,3.6-1.7,5.4c-0.4,2.8,0,5,1.2,6.6s3.2,2.6,5.7,3.1c4.1,0.7,8.3-0.7,12.7-4.1
			s8.7-8.8,13-16.2l6-10.7l5.3,0.8l-8.1,15.1c-10.7,20.6-26.3,29.2-46.7,26c-9.4-1.5-16.1-5.1-20-10.7c-3.9-5.6-5.2-12.7-3.8-21.2
			c0.9-5.3,2.6-10.7,5.2-16.2l43.6-92.8l-24.9-4l2.3-5.3l25.2,4l18.5-39.3c15.7,2.3,29.3,3.2,40.7,2.6l-20.2,43l31.2,5l-1.7,5.4
			l-32.1-5.2L2527.2,500.6z"/>
		<path class="st1" d="M2640,414.3c0.8-3.6-0.5-5.8-3.7-6.5c-3.3-0.7-6.7,0.3-10.1,3.1c-3.5,2.8-7.5,7.7-12.1,14.7l-8.5,12.8
			l-5.2-1.1l12.2-19.1c10.8-17.3,25.5-24,44.1-19.9c8.4,1.8,14.1,5.2,17,10.1s3.7,10.7,2.3,17.3c-1.1,5.3-3.3,10.5-6.5,15.5
			l-46.9,77.5c-1.8,3-2.9,5.6-3.4,7.6c-0.8,3.8,0.6,6.1,4.2,6.9c2.7,0.6,5.9-0.4,9.4-2.8c3.5-2.5,7.7-7.5,12.6-15l7.8-12.1l5.2,1.1
			l-11.4,18.4c-10.5,17.4-24.8,24.1-43,20.2c-16.6-3.6-23.3-13-20-28.1c1.3-6,4.2-12.7,8.6-19.9l43.8-72.7
			C2638.5,418.2,2639.8,415.6,2640,414.3z M2673.7,339.4c6.2-3.2,13.3-4,21.1-2.3c6.4,1.4,11,4,13.9,7.7c2.9,3.8,3.8,8.3,2.6,13.6
			c-1.6,7.3-5.6,12.7-12.1,16.3c-6.5,3.6-13.8,4.5-21.8,2.7c-6.6-1.4-11.2-4.1-14-8s-3.4-8.6-1.8-14
			C2663.5,348,2667.5,342.6,2673.7,339.4z"/>
		<path class="st1" d="M2695.8,466.5c11.3-14,25.2-24.5,41.4-31.4s33.6-7.8,51.9-2.5c14,4,23.6,11,29,20.8
			c5.3,9.8,5.9,21.9,1.8,36.2c-4.3,14.7-12,29.1-23.4,43.1c-11.3,14-25.2,24.5-41.4,31.4c-16.3,6.9-33.6,7.8-51.9,2.5
			c-14-4-23.6-11-29-20.8c-5.3-9.8-5.9-21.9-1.8-36.2C2676.6,494.9,2684.4,480.6,2695.8,466.5z M2758.9,450.4
			c-11.6,10.5-22.7,24.1-33.4,41s-18.4,33.4-23,49.3c-1.9,6.5-2.5,11.3-1.9,14.6s2.5,5.4,5.7,6.3c6.6,1.9,15.6-2.2,27-12.3
			s22.4-23.6,33.1-40.4c10.7-16.8,18.4-33.5,23.2-50c2-7,2.7-12.1,2.1-15.3c-0.6-3.2-2.5-5.2-5.5-6.1
			C2779.5,435.7,2770.4,439.9,2758.9,450.4z"/>
		<path class="st1" d="M2957.5,603l-13.9,16.5c-13.3,15.5-28.4,19.9-45.4,13.2c-9.7-3.8-15.6-9.4-17.5-16.8c-1-4.2-0.5-8.7,1.4-13.6
			c2.2-5.6,6.2-11.9,12.2-19l51-61.3c3.4-4.1,5.6-7.5,6.7-10.3c1.6-4,0.7-6.6-2.6-7.9c-5.2-2-13.6,0.8-25.1,8.5
			c-11.5,7.7-24.4,18.8-38.6,33.2c-14.2,14.4-27.9,30.1-40.9,47l-8.5,11.7l-36.8-14.4l75.5-100.4c2.3-2.7,3.9-5.3,4.8-7.7
			c1.2-3.1,0.4-5.3-2.6-6.4c-3.3-1.3-6.8-0.9-10.5,1.2s-8.5,6.4-14.2,12.9l-10.1,11.4l-5-1.9L2852,482c7-8.3,14.1-13.4,21.3-15.4
			s14.8-1.4,22.8,1.7c15,5.8,19.6,15.9,14.1,30.1c-1.9,4.9-4.6,9.6-8,14.3l-20.4,28.4c14.1-15,26.3-26.1,36.6-33.4
			c10.4-7.3,19.7-11.6,27.9-13c8.3-1.4,16.5-0.5,24.6,2.7c15.7,6.1,20.8,16.1,15.3,30c-2,5.2-5.6,10.9-10.6,17.2l-55.6,67
			c-2.3,2.7-3.8,5-4.5,7c-1.4,3.7-0.5,6.1,2.8,7.4c2.8,1.1,6.1,0.7,9.9-1.2c3.8-1.9,8.7-6.2,14.5-13l9.6-10.7L2957.5,603z"/>
	</g>
</g>
</svg>
