<?xml version="1.0" encoding="utf-8"?>
<!-- Generator: Adobe Illustrator 23.0.3, SVG Export Plug-In . SVG Version: 6.00 Build 0)  -->
<svg version="1.1" id="Layer_1" xmlns="http://www.w3.org/2000/svg" xmlns:xlink="http://www.w3.org/1999/xlink" x="0px" y="0px"
	 viewBox="0 0 7110 7110" style="enable-background:new 0 0 7110 7110;" xml:space="preserve">
<style type="text/css">
	.st0{fill:#FFFFFF;}
</style>
<g>
	<path class="st0" d="M2890.1,572.3c-0.3,4.5,0,8.9,0.9,13.1c1.4,6.3,4.1,10.7,8.2,13.2c4.1,2.4,9.1,3,15,1.7
		c9.3-2,17.3-8.6,24-19.6c6.7-11,11.4-26.3,14.2-46l3.8-28.1l12.1-2.6l-4.6,39.6c-5.6,53.6-31.8,85.5-78.8,95.8
		c-21.6,4.7-39,2.7-52.3-6.2c-13.3-8.8-22-23-26.3-42.5c-2.7-12.3-3.6-25.4-2.6-39.3l15.2-237.5l-57.1,12.5l0.4-13.4l57.8-12.7
		l6.6-100.6c35.9-8.3,65.9-18,90.1-29.1l-7.2,110l71.7-15.7l0.9,13.1l-73.7,16.1L2890.1,572.3z"/>
	<path class="st0" d="M3337.4,453.3l-10.5,49c-10.2,46.2-36.4,71.8-78.5,76.8c-39.2,4.7-60.8-10.4-65-45.3
		c-1.9-15.5-0.6-32.7,3.7-51.5l36.6-181.1c2.4-12.9,3.2-22.6,2.4-29.1c-1.1-9.5-5.8-13.7-14-12.7c-12.1,1.4-25,14.3-38.9,38.7
		c-13.9,24.4-27.2,56.5-39.9,96.4c-12.7,39.9-23.4,83.1-32.3,129.6l-9,56.1c-0.4,0.5-0.5,1.2-0.4,2l-0.1-0.6l-1.1,7.3l-91,10.9
		l76.3-445.8c1.2-8,1.6-14.2,1.1-18.5c-1-8.6-5.1-14.4-12.2-17.5c-7.1-3.1-18.7-3.7-34.6-1.8l2.3-14c30.1-4,56.8-9.6,80.1-16.8
		c23.4-7.2,45.7-16.4,67.1-27.7l-51.9,310.6c16.1-51.2,33.7-87.6,52.7-109.1c19-21.5,42.1-33.8,69.2-37.1
		c20.2-2.4,35.6,0.4,46.2,8.5c10.6,8.1,16.8,20.1,18.7,36.1c1.6,13.8,0.5,29.4-3.6,46.9l-40.5,198c-1.7,8.1-2.2,14.5-1.6,19.2
		c1.1,9,5.9,13,14.5,12c14.2-1.7,25.5-20.3,33.9-55.8l7.9-32.4L3337.4,453.3z"/>
	<path class="st0" d="M3608.8,354.2c-39.9,27.5-86.3,49.1-139.4,64.7c-2.4,14.8-3.4,29.5-3.2,44.3c0.4,23,4.9,39.1,13.5,48.5
		c8.6,9.4,21.1,14,37.6,13.7c13.4-0.2,28.5-4.7,45.3-13.4c16.8-8.7,33-22.5,48.7-41.4l10.5,5c-15.2,24.5-35.8,45.4-61.7,62.8
		c-25.9,17.3-55.2,26.2-87.7,26.8c-29.9,0.5-54.5-7.1-73.8-22.9c-19.3-15.7-29.2-38.1-29.7-67.1c-0.6-38.6,9.1-78.6,29.3-120.1
		c20.1-41.5,47.9-76.1,83.5-103.7c35.5-27.7,74.7-41.8,117.6-42.5c19.9-0.3,36.2,3.9,49,12.5c12.7,8.7,19.2,21.3,19.5,37.7
		C3668.2,295,3648.6,326.7,3608.8,354.2z M3542.7,248.7c-15.7,18-30.1,41.3-43.1,69.9c-13,28.6-22.5,57.9-28.5,87.9
		c30.5-13.9,54.1-28.8,70.8-44.7c17.1-15.9,30.4-34,40.1-54.3c9.6-20.3,14.3-41.9,13.9-64.9c-0.1-8.2-1.1-13.8-2.9-16.9
		c-1.8-3-4.4-4.5-7.9-4.4C3572.6,221.5,3558.4,230.6,3542.7,248.7z"/>
	<path class="st0" d="M4180.3,291.5c11,18.9,14.1,44.5,9.4,76.6c-5.2,35.2-18.9,71.1-41.2,107.9c-22.3,36.8-50.7,66.4-85.1,89
		c-34.4,22.5-71.4,30.9-110.8,25c-12-1.8-22.6-5.7-31.8-11.9c-9.2-6.2-15.5-13.9-18.9-23.2c-12.1-0.9-25.3,0.1-39.5,3
		c-14.2,2.9-30.5,7.2-48.9,12.8l-9-5.9c7.3-10.8,13.7-22.7,19.1-35.9l174.9-379.6c2.5-5.3,4.3-11.2,5.2-17.6
		c1.3-8.6-1-15.3-6.9-20.1c-5.9-4.8-16.7-8.4-32.6-10.7l5.9-12.9c29.6,3.9,56.6,5.5,80.8,4.7c24.2-0.8,48.1-3.8,71.7-9.1l-113.8,250
		c20.5-29.4,40-50.2,58.5-62.3c18.4-12.2,37.5-16.8,57.2-13.9C4150.7,261.1,4169.3,272.5,4180.3,291.5z M4002.6,536.3
		c23.3-24.6,44-56,61.9-94.4c17.9-38.3,29.4-74.4,34.4-108.3c2.3-15.9,2.2-27.5-0.4-34.9c-2.6-7.4-7.6-11.6-14.9-12.7
		c-12-1.8-27,6.9-44.9,25.9c-17.9,19-36,44.5-54.3,76.4l-73.8,161.9c6.7,10.6,15.7,16.8,26.8,18.4
		C3957.5,571.7,3979.3,560.9,4002.6,536.3z"/>
	<path class="st0" d="M4447,480.1c-45.7,15.9-96.3,24.3-151.6,25.2c-6.2,13.6-11.2,27.6-14.8,41.8c-5.8,22.2-5.7,39,0.1,50.4
		c5.8,11.3,16.7,19.1,32.6,23.2c13,3.4,28.7,3.1,47.2-0.9c18.5-3.9,37.8-12.9,58-27l8.8,7.6c-21.2,19.6-46.6,34.3-76.2,44.1
		c-29.6,9.8-60.2,10.6-91.6,2.5c-28.9-7.5-50.6-21.4-65.1-41.7c-14.5-20.3-18-44.5-10.8-72.6c9.7-37.3,29.7-73.3,60.2-108
		c30.4-34.6,66.5-60.6,108.1-77.8c41.6-17.2,83.2-20.4,124.7-9.7c19.3,5,33.9,13.4,43.9,25.1c9.9,11.8,12.8,25.6,8.7,41.5
		C4520.1,438.9,4492.7,464.2,4447,480.1z M4411.4,360.8c-20,13.2-40,31.8-60.1,55.9c-20.1,24.1-37.1,49.8-50.8,77.1
		c33.1-5.3,59.9-13.4,80.1-24.3c20.7-10.8,38.4-24.6,53.1-41.7c14.7-17,24.9-36.6,30.7-58.9c2.1-8,2.6-13.6,1.7-17
		c-0.9-3.4-3.1-5.5-6.4-6.4C4447.4,342.6,4431.4,347.6,4411.4,360.8z"/>
	<path class="st0" d="M4516.8,707c15.5,5.6,29.6,5.4,42.4-0.6c12.8-6,22.1-17.1,28-33.4c4.7-13,6.7-27.5,6-43.4
		c-0.7-15.9-3.6-34.7-8.7-56.3c-0.8-3-2.9-12.1-6.4-27.2c-3.5-15.1-5.2-28.9-5-41.6c0.2-12.6,2.3-24.4,6.2-35.4
		c9.6-26.5,27.3-44.5,53.1-54.1c25.8-9.6,56-8.1,90.7,4.4c26.5,9.6,46.9,22.4,61.1,38.3c14.3,16,17.2,35.6,8.8,58.8
		c-4.1,11.4-11.1,20.6-21,27.6c-9.9,7-20.8,8.4-32.6,4.1c-10.2-3.7-16.9-10.5-20.3-20.5c-3.3-9.9-2.8-20.8,1.4-32.7
		c3.7-10.2,8.9-19,15.8-26.4c6.8-7.4,14-13.3,21.5-17.5c-4.1-5.2-10.7-9.4-19.6-12.6c-14.7-5.3-27.8-4.9-39.5,1.3
		c-11.7,6.1-20.7,17.3-26.9,33.5c-4,11-5.4,21.8-4.4,32.3c1,10.5,3.7,25.8,8,45.7l3.9,15.9c5.2,26.3,8.1,47.4,8.6,63.2
		c0.5,15.8-1.8,30.7-6.8,44.6c-6.5,17.9-16.9,32.2-31.4,42.9c-14.5,10.7-31.8,17-52.1,18.8c-20.3,1.9-42-1.4-65.2-9.8
		c-28.9-10.5-51-24.8-66.1-42.9c-15.1-18.1-18.2-39.6-9.2-64.5c4.4-12.2,11.2-21.5,20.4-27.9c9.2-6.3,19.1-7.6,29.7-3.8
		c10.6,3.8,17.4,11.4,20.5,22.6c3.1,11.3,2.1,23.8-2.9,37.7c-3.2,9-7.2,16.7-11.8,23c-4.6,6.4-10.8,14-18.6,22.7
		C4499.6,699.2,4507.1,703.5,4516.8,707z"/>
	<path class="st0" d="M4814.3,770.5c-3,3.4-5.4,7.1-7.2,11c-2.7,5.9-3.2,11.1-1.3,15.5c1.8,4.4,5.5,7.8,11,10.4
		c8.7,4,19,3.5,30.9-1.2c11.9-4.8,24.9-14.2,39-28.3l19.9-20.2l11.2,5.1l-27.5,28.9c-36.6,39.5-76.8,49.3-120.5,29.3
		c-20.1-9.2-32.8-21.3-38.1-36.3c-5.3-15-3.8-31.6,4.5-49.8c5.2-11.4,12.4-22.4,21.5-33.1L4912.4,521l-53.2-24.3l8.4-10.5l53.8,24.5
		l65.6-76.5c33.7,14.9,63.5,25.2,89.5,30.8l-71.8,83.7l66.8,30.5l-7.2,11l-68.6-31.3L4814.3,770.5z"/>
	<path class="st0" d="M5491.7,992.1c-19.5,29.2-43.3,54.3-71.2,75.5c-28,21.2-57.3,34.3-88,39.3c-30.7,5-59.4-1.4-86.1-19.2
		c-28.8-19.3-42.7-42.9-41.7-70.9c-35.9,4.6-69-3.2-99.3-23.4c-23.4-15.7-37.2-33.9-41.3-54.6s0.2-40.6,13-59.7
		c14.2-21.2,36.3-37.6,66.4-49c30.1-11.4,64.4-19.6,103.2-24.5c38.7-4.9,88-8.9,148-12c-10-4.6-20-7.3-30.2-8.1
		c-10.2-0.8-22.2-0.9-36.1-0.3c-12,0.8-21.8,1-29.2,0.4c-7.5-0.5-14.1-2.8-19.8-6.6c-5-3.4-9.6-9-13.7-17
		c-2.9-6.6-6.5-11.4-10.8-14.3c-4.7-3.1-10-3.8-15.9-2c-5.9,1.8-13.4,6.4-22.6,13.8l-14.6,11.3l-10.3-6.9l38.3-31.5
		c20.2-16.2,37.4-25.5,51.4-27.8c14.1-2.3,26.3,0,36.8,7c4.3,2.9,7.9,6.1,10.8,9.6c2.9,3.5,6,8.2,9.4,14.1c0.8,1.1,2.8,4,5.9,8.7
		c3.1,4.7,6.8,9.1,11.1,13.3c4.3,4.2,8.9,7.9,14,11.3c14.8,9.9,31.2,15.4,49.2,16.5l12.8-6.3l7.7,13c-63,13.1-120,32.2-170.9,57.4
		c-50.9,25.1-87.5,54.2-109.6,87.4c-9.2,13.7-13.7,25.2-13.8,34.6s4.8,17.3,14.6,23.8c12.6,8.4,28.3,12.2,47.2,11.2
		c2.2-12.6,8.1-26.1,17.7-40.5c14-20.9,32.3-38.1,55.1-51.5c22.8-13.4,45.2-21.6,67.3-24.6c22-3,38.7-0.7,49.8,6.7
		c13.7,9.2,12.6,25.6-3.3,49.4c-13,19.5-29.5,35.8-49.6,49c-20,13.2-43.1,22.5-69.2,28c-2.1,22.6,6.1,40,24.4,52.3
		c18,12,38.1,15.2,60.2,9.4c22.1-5.8,43.5-17.5,64.2-35.2c20.7-17.7,38.4-37.5,53.1-59.5c5.3-7.9,9-13.8,11-17.7
		c-14.9-21.4-25.3-42.2-31.4-62.4c-6-20.2-3.2-39.1,8.6-56.8c5.8-8.6,13.6-14.1,23.5-16.4c9.9-2.3,19.7-0.2,29.4,6.4
		c16.6,11.1,22.3,28.8,17.3,53c-5,24.3-15,49.1-29.9,74.6C5499.1,980.1,5494.8,987.4,5491.7,992.1z M5363.4,910.2
		c-11.2,5-23.2,13.3-36.1,24.7c-12.9,11.5-24.1,24.4-33.8,38.8c-7.9,11.9-13.6,23.8-16.8,35.7c21-5.7,40.6-14.8,58.8-27.1
		c18.2-12.4,32.8-26.8,43.9-43.4c11.3-16.9,13.9-27.4,7.8-31.5C5382.5,904.3,5374.6,905.2,5363.4,910.2z"/>
	<path class="st0" d="M5703.4,1308.5l9.3,8.1l-43.5,25c-22.5,12.6-42.9,17.6-61.2,15.2c-18.3-2.5-34.1-9.5-47.5-21.2
		c-17-14.8-24.6-30.4-23-46.8c0.6-9.9,5.4-20,14.5-30.5c7.4-8.5,17.3-16.8,29.6-25c-32.2,14.5-59.8,21.1-82.7,20.1
		c-23-1.1-42.6-8.7-58.9-23c-17.9-15.7-26.9-32.9-27-51.6c0-18.7,8.2-37.6,24.8-56.5c25.4-29,60-53,103.9-71.9
		c43.9-18.9,87.3-28.9,130.2-29.9c42.9-1,75.8,8.4,98.6,28.4c8.8,7.7,13.6,16.5,14.4,26.4c0.8,9.9-2.8,20.5-11,31.8l27.8-18
		c26.4,22.5,52.2,40.7,77.4,54.7L5624.5,1306c-6.5,4.1-11.3,8-14.4,11.6c-6.3,7.2-6.3,13.5-0.1,18.9c11.4,10,32.8,5.9,64.1-12.1
		L5703.4,1308.5z M5752.1,1121.4c1.7-1.3,4.1-3.6,6.9-6.9c7.1-8.2,11.2-15.6,12.1-22.2c0.9-6.7-1.4-12.4-6.9-17.3
		c-11.1-9.7-32.4-10.8-64-3.3c-31.6,7.5-65.5,21.9-101.7,43.2c-36.2,21.3-66.5,46-91.1,74.1c-9.4,10.8-15.1,19.4-17.1,26
		c-2,6.6-0.6,12,4.3,16.3c7.2,6.3,19.4,8.2,36.8,5.8c17.3-2.4,38.5-9.2,63.6-20.4c25-11.2,52.1-26.8,81.1-46.9l-12.7,9.6
		L5752.1,1121.4z"/>
	<path class="st0" d="M6072.1,1437.5c-28.7,26.4-71.4,48.7-128.1,66.8c-56.7,18.1-112.4,28.4-167.1,31.1
		c-34.4,1.7-68.1-0.4-101.2-6.2c-33-5.8-62.6-15.8-88.7-30.1c-16.5-8.3-29.3-17.5-38.4-27.3c-9.4-10.2-14.4-20.4-15.1-30.7
		c-0.6-10.3,3.2-19.3,11.5-26.9c8.6-7.9,18.6-11.4,29.9-10.3c11.3,1.1,21.4,6.4,30.2,16c17.3,18.8,22,46,14.1,81.5
		c32.3,12.7,66,19.9,101.2,21.6l194.1-247.8c7.4-9.8,11.9-17,13.3-21.5c1.4-4.5,0.6-8.4-2.3-11.6c-3.2-3.5-8.7-4.7-16.4-3.4
		c-7.7,1.2-20.9,5.7-39.7,13.6l-31.4,13l-8.4-9.1l45.9-20.2c24-10.4,44.2-14.1,60.5-11.1c16.3,3,30.6,11.1,42.9,24.5
		c12.6,13.7,18.6,27.9,18,42.6c-0.6,14.7-9.1,32.3-25.6,52.8l-143.7,173.1c33-4.5,64.6-11.2,94.9-20.3c30.3-9,57.2-20,80.7-32.8
		c-5-19.5-5.9-38.4-2.7-56.7c3.2-18.3,11.2-33,23.9-44.1c9.9-9.1,20.4-13.5,31.6-13.2c11.2,0.3,21.3,5.4,30.4,15.3
		C6105.9,1386.9,6101.1,1410.7,6072.1,1437.5z"/>
	<path class="st0" d="M6065.8,1813.6c-4.3,1.4-8.2,3.3-11.8,5.8c-5.3,3.7-8.4,7.9-9.1,12.6c-0.7,4.7,0.7,9.5,4.1,14.5
		c5.4,7.8,14.5,12.8,27.2,14.8c12.7,2,28.7,0.6,48-4.3l27.5-7.1l7,10.2l-38.4,10.7c-51.7,15.2-91.2,3-118.5-36.6
		c-12.6-18.2-17.3-35.1-14.1-50.7c3.2-15.6,12.9-29.1,29.3-40.4c10.3-7.1,22.1-12.9,35.4-17.4l225.6-76l-33.3-48.1l12.5-4.7
		l33.6,48.7l95.6-32.1c21.3,30.1,41.6,54.2,61.1,72.4l-104.5,35.1l41.8,60.4l-11.8,5.8l-42.9-62L6065.8,1813.6z"/>
	<path class="st0" d="M6285.2,1861.6c41.6-4.7,81.5,0.4,119.8,15.4c38.3,15,68.3,41.8,89.9,80.3c16.6,29.5,21.3,56.6,14.2,81.5
		c-7.1,24.9-25.8,45.8-56,62.8c-31,17.4-67.2,28.5-108.8,33.3c-41.6,4.8-81.5-0.4-119.8-15.4c-38.3-15-68.3-41.8-89.9-80.3
		c-16.6-29.5-21.3-56.6-14.2-81.5c7.1-24.9,25.8-45.8,56-62.8C6207.4,1877.4,6243.7,1866.3,6285.2,1861.6z M6416,1937.6
		c-36.2-1.5-76.9,3-122.2,13.5c-45.3,10.6-84.7,25.3-118.3,44.2c-13.6,7.6-22.6,14.7-26.9,21.1c-4.3,6.4-4.6,13-0.8,19.8
		c7.9,14,29.4,21.8,64.7,23.6s75.5-2.6,120.6-13c45.1-10.4,85-25.4,119.7-45c14.7-8.3,24.2-15.6,28.3-21.9
		c4.1-6.3,4.4-12.7,0.8-19.1C6474.2,1946.8,6452.2,1939.1,6416,1937.6z"/>
	<path class="st0" d="M6536,2661.8l4.1,11.6l-52.4,0c-25.2,0.2-45.3-5.2-60.2-16.2c-14.9-11-25.6-25.5-32-43.5
		c-3.9-11-5.4-21.1-4.5-30.1c0.9-9.1,4-16.6,9.2-22.6c6-6.3,13.8-11.1,23.2-14.4c9.4-3.3,23.4-6,42-8l69-5.8
		c-44-2.3-79.5-7-106.3-14c-26.9-7-47.4-16.5-61.5-28.5c-14.1-12-24.5-27.4-31.2-46.2c-6.5-18.4-7.1-33.7-1.8-45.9
		c5.3-12.2,16.1-21.2,32.5-27c12.7-4.5,27.7-6.8,45.1-7l201.8-4.7c8.2-0.2,14.6-1,19.1-2.6c8.6-3,11.5-8.4,8.7-16.2
		c-2.3-6.5-8.1-11.7-17.3-15.6c-9.2-3.9-24.1-5.8-44.8-5.8l-33.3-0.6l-4.1-11.6l50.2-0.5c47.3-0.2,78,19.7,92.2,59.7
		c13.2,37.2,2.8,61.8-31.1,73.8c-12.7,4.5-29.2,7.1-49.6,7.9l-185,3.5c-12.3,0.2-21.8,1.5-28.3,3.8c-9.4,3.3-12.7,8.9-10,16.6
		c4.3,12.3,21.5,22.5,51.6,30.7c30,8.2,68,13.7,113.8,16.5c45.8,2.8,93.9,2.7,144.3-0.5l37.6-3c13.7,36.1,27.1,64.6,40.1,85.8
		l-300.4,20.3c-9.4,0.6-16.6,1.8-21.5,3.5c-7,2.5-9.2,7.2-6.7,14.1c2.7,7.8,8.9,13.4,18.4,16.9c9.5,3.5,24.1,5.2,43.9,5.1
		L6536,2661.8z"/>
	<path class="st0" d="M6624.8,3054.6l-49.8-5.8c-46.9-5.7-74.9-29.4-84-70.9c-5.2-23.7-1.9-42.2,9.9-55.4
		c6.8-7.3,16.2-12.2,28.1-14.8c13.5-3,31-3.2,52.4-0.8l183.9,19.8c12.3,1.3,21.8,1.2,28.6-0.2c9.7-2.1,13.7-7.2,12-15.2
		c-2.8-12.7-19-25.2-48.8-37.6c-29.8-12.4-67.7-23.1-113.8-32.1c-46.1-9-93.9-15.2-143.4-18.6l-33.6-1.3l-19.5-89.5l291.1,17.1
		c8.2,0.9,15.2,0.7,21.2-0.6c7.6-1.7,10.6-6.1,9.1-13.3c-1.8-8-7-14.3-15.8-18.9c-8.8-4.5-23.2-8.2-43.3-10.9l-35-5l-2.6-12.1
		l52,6.6c25,3,44.1,10.1,57.2,21.5c13.1,11.3,21.8,26.7,26,46.2c7.9,36.4-5.5,58.4-40.2,66c-11.9,2.6-24.5,3.6-37.9,2.9l-81.1-2.9
		c47,7.9,84.1,17.3,111.5,27.9c27.4,10.7,47.7,23.1,61,37.3c13.3,14.2,22.1,31.2,26.4,51.1c8.3,38.1-4.5,60.8-38.4,68.2
		c-12.7,2.8-28.3,3.3-46.9,1.6l-200.9-21.4c-8.2-0.9-14.6-0.8-19.2,0.2c-8.9,1.9-12.5,6.9-10.7,15c1.5,6.8,6.5,12.7,15.2,17.7
		c8.6,5,23.2,8.8,43.7,11.4l33,4.8L6624.8,3054.6z"/>
	<path class="st0" d="M6660.7,3416.4l1.1,12.3l-48.7-11.2c-25.3-5.5-43.6-15.5-54.9-29.9c-11.3-14.4-17.8-30.9-19.5-49.5
		c-2.4-26.8,5.9-44.7,25.1-53.9c7.5-4.2,16.4-6.7,26.7-7.7c12.5-1.1,28.1,0.1,46.7,3.6l2.6,0.4c-38.2-13.1-66.5-28-85-44.8
		c-18.5-16.8-28.9-37.9-31.2-63.4c-2.1-22.9,3.8-42.1,17.6-57.7c13.8-15.6,35.8-24.8,66-27.6c35-3.2,73.9,2.4,116.7,16.8
		c42.9,14.4,80.1,36.6,111.8,66.8c31.7,30.2,49.4,66.2,53.2,108.1c1.8,20.3-4.3,34.1-18.4,41.5l112.7,19.1c8,1.4,14.1,2,18.4,1.6
		c8.6-0.8,14.6-4.7,17.9-11.7c3.3-7,4.2-18.6,2.7-34.5l13.9,2.6c3.1,29.7,8,56.6,14.5,80.6c6.5,24,15.1,46.8,25.8,68.5l-471.2-85
		c-6.2-1.6-12.2-2.2-17.8-1.6c-9.9,0.9-14.5,5.5-13.8,13.7c0.6,6.5,5,12.6,13.1,18.4c8.1,5.8,22,11.3,41.6,16.4L6660.7,3416.4z
		 M6854.7,3317.1c14.7-6.1,21.4-15.4,20.3-28c-1.7-18.6-16.7-36.7-45.1-54.3s-63.5-31.4-105.3-41.3c-41.8-9.9-82.6-13-122.3-9.4
		c-15.1,1.4-26.2,4-33.2,7.9c-7,3.9-10.2,9.5-9.6,16.9c0.8,8.6,8.1,18.2,21.9,28.7c13.8,10.5,33.3,21,58.7,31.5
		c25.3,10.5,55.1,19.5,89.2,26.8L6854.7,3317.1z"/>
	<path class="st0" d="M6752.5,3702.2c-26.2-40.8-46.2-87.9-60-141.4c-14.7-2.9-29.4-4.4-44.1-4.7c-23-0.4-39.3,3.6-49,11.8
		c-9.7,8.3-14.7,20.7-14.9,37.1c-0.2,13.4,3.7,28.7,11.9,45.7c8.2,17,21.4,33.7,39.8,50.1l-5.4,10.3c-24-16-44.2-37.3-60.7-63.8
		c-16.4-26.5-24.4-56-23.8-88.5c0.5-29.9,9-54.2,25.3-73c16.4-18.8,39-27.9,68.1-27.4c38.6,0.7,78.2,11.7,119,33.2
		c40.8,21.5,74.4,50.5,100.9,86.9c26.5,36.4,39.3,76.1,38.6,119c-0.3,19.9-5.1,36.1-14.2,48.5c-9.1,12.4-21.9,18.5-38.3,18.2
		C6809.8,3763.6,6778.7,3743,6752.5,3702.2z M6860.2,3639.7c-17.5-16.3-40.3-31.5-68.5-45.4c-28.2-13.9-57.1-24.4-86.9-31.4
		c12.9,31,27,55.1,42.3,72.2c15.3,17.6,32.9,31.5,52.9,41.9c20,10.3,41.4,15.7,64.4,16.1c8.2,0.1,13.9-0.6,16.9-2.3
		c3.1-1.7,4.6-4.3,4.7-7.7C6886.3,3670.5,6877.7,3656,6860.2,3639.7z"/>
	<path class="st0" d="M6845.7,4094.9c-10.7,8.1-23.9,11.3-39.4,9.5c-18.5-2.1-33.7-9.9-45.4-23.2c-11.8-13.4-16.7-28.6-14.7-45.9
		c1.4-12.5,5.9-21.8,13.3-27.9c7.5-6.1,17.4-8.5,29.9-7c15.1,1.7,28.1,8.5,39.2,20.2c11.1,11.7,17.5,25.3,19.2,40.8
		c0.1-0.9,0.6-2.1,1.4-3.8c0.8-1.7,1.3-3.1,1.5-4.4c2.5-22-10.8-46.2-40.1-72.6c-29.2-26.5-83.4-56.3-162.5-89.3l-107.2-41.1
		l10.5-91.1l269.9,110.8c6.6,2.9,13.2,4.8,19.6,5.5c8.2,0.9,12.7-2,13.5-8.9c0.9-8.2-2.1-15.9-9.1-23.3c-7-7.3-19.4-15.5-37.1-24.5
		l-31.5-16.1l1.4-12.3l47.1,23.1c42.5,21,61.3,53.3,56.3,96.8c-3.8,33.1-23.1,47.7-58,43.7c-12.5-1.4-25-4.6-37.5-9.5l-20.1-7.5
		c39.1,20.6,65.9,40.2,80.6,58.7c14.7,18.5,20.7,39.3,18,62.6C6862.8,4074.5,6856.5,4086.7,6845.7,4094.9z"/>
	<path class="st0" d="M6508,4115.6c-3.4,16.1-1.2,30.1,6.5,41.9c7.7,11.8,20,19.5,37,23.1c13.6,2.9,28.2,2.8,43.9-0.1
		c15.7-2.9,33.9-8.4,54.6-16.4c2.9-1.2,11.6-4.5,26-10.1c14.5-5.6,27.9-9.2,40.5-10.7c12.5-1.6,24.5-1.2,35.9,1.3
		c27.6,5.8,47.9,20.8,60.9,45c13.1,24.2,15.8,54.4,8.2,90.4c-5.8,27.6-15.6,49.5-29.5,65.9c-13.9,16.3-32.9,22-57,16.9
		c-11.9-2.5-22-8.2-30.3-17c-8.3-8.8-11.2-19.4-8.6-31.7c2.2-10.6,8-18.2,17.4-22.9c9.4-4.7,20.2-5.7,32.5-3.1
		c10.6,2.2,20.1,6.2,28.4,12c8.3,5.7,15.1,12,20.3,18.9c4.6-4.8,7.8-11.9,9.8-21.2c3.2-15.3,1-28.3-6.7-39
		c-7.7-10.7-20-18.1-36.9-22c-11.4-2.4-22.3-2.4-32.6,0.1c-10.3,2.5-25,7.2-44.2,14.3l-15.2,6.1c-25.3,8.8-45.8,14.6-61.4,17.3
		c-15.6,2.7-30.6,2.5-45.1-0.5c-18.7-3.9-34.3-12.3-46.8-25.1c-12.6-12.8-21.2-29.2-25.9-49c-4.7-19.8-4.5-41.8,0.6-66
		c6.3-30.1,17.4-53.9,33.3-71.4c15.9-17.5,36.7-23.5,62.6-18c12.7,2.7,22.9,8.1,30.4,16.4c7.6,8.2,10.2,17.9,7.9,28.9
		c-2.3,11-8.8,18.8-19.6,23.4c-10.7,4.6-23.3,5.4-37.7,2.4c-9.3-2-17.5-4.8-24.5-8.5c-7-3.7-15.3-8.8-25-15.2
		C6513.4,4097.5,6510.2,4105.4,6508,4115.6z"/>
	<path class="st0" d="M6486.4,4419c-3.8-2.5-7.8-4.3-11.9-5.6c-6.2-1.9-11.4-1.6-15.5,0.8c-4.1,2.4-7,6.5-8.7,12.3
		c-2.7,9.1-0.9,19.3,5.5,30.5c6.4,11.2,17.5,22.7,33.4,34.7l22.8,16.9l-3.5,11.8l-32.4-23.2c-44.2-30.8-59.4-69.2-45.7-115.3
		c6.3-21.2,16.5-35.4,30.7-42.8c14.1-7.3,30.8-8.1,49.9-2.5c12,3.6,23.9,9.2,35.7,16.7l200.6,128.1l16.7-56.1l11.5,6.8l-16.9,56.7
		l84.9,54.4c-10.1,35.4-16.1,66.4-18.1,92.9l-92.9-59.5l-20.9,70.4l-11.9-5.6l21.5-72.3L6486.4,4419z"/>
	<path class="st0" d="M6381.7,4850l-4.6,11.4l-37.9-32.9c-19.2-17.2-30.7-34.8-34.4-52.8c-3.7-18.1-2.2-35.4,4.5-51.8
		c8.5-20.9,20.7-33.2,36.7-37c9.5-2.7,20.7-1.4,33.5,3.8c10.4,4.2,21.6,10.8,33.4,19.8c-24.2-25.7-39.5-49.6-46-71.6
		c-6.5-22-5.7-43.1,2.4-63.2c8.9-22.1,22.3-36.2,40-42.4c17.7-6.2,38.2-4.5,61.5,4.9c35.7,14.5,69.7,39.3,102,74.6
		c32.2,35.3,55.9,73,70.9,113.2c15,40.2,16.9,74.4,5.5,102.5c-4.4,10.8-11.1,18.3-20.3,22.3c-9.1,4-20.3,4-33.7,0l26.1,20.4
		c-12.6,32.3-21.4,62.6-26.3,91l-236.7-187.7c-6-4.8-11.2-8.1-15.7-9.8c-8.8-3.6-14.8-1.6-17.9,6.1c-5.7,14.1,5.1,32.9,32.5,56.6
		L6381.7,4850z M6574.4,4834.8c1.8,1.2,4.8,2.6,8.8,4.3c10,4.1,18.4,5.4,25,4.1c6.6-1.3,11.3-5.4,14.1-12.2
		c5.5-13.7-0.4-34.2-17.8-61.6c-17.4-27.4-42.1-54.7-74.1-81.9c-32-27.2-65.3-47.8-99.8-61.8c-13.3-5.4-23.3-7.9-30.2-7.7
		c-6.9,0.2-11.5,3.4-14,9.4c-3.6,8.8-1.4,21.1,6.5,36.7c7.9,15.6,21.3,33.4,40.1,53.4c18.8,20,42.4,40.4,70.9,61.3l-13.2-8.9
		L6574.4,4834.8z"/>
	<path class="st0" d="M6190.9,5205.9l-33.6-37.2c-31.5-35.3-36.9-71.5-16.3-108.6c11.8-21.2,26.4-32.9,44-35.1
		c9.9-0.9,20.2,1.5,30.8,7.4c12.1,6.7,25.4,18.1,39.9,34l125.1,136.3c8.3,9.1,15.5,15.3,21.6,18.7c8.7,4.8,15.1,3.6,19.1-3.5
		c6.3-11.4,2.4-31.5-11.8-60.4c-14.2-28.9-35.6-62-64.3-99.2c-28.7-37.2-60.5-73.4-95.4-108.7l-24.3-23.2l44.5-80.1l207.4,205
		c5.6,6.1,11,10.6,16.3,13.5c6.8,3.8,12,2.5,15.6-4c4-7.2,4.2-15.4,0.6-24.6c-3.6-9.2-12-21.4-25.3-36.7l-23-26.9l6-10.8l34.7,39.3
		c16.8,18.8,26.5,36.7,28.8,53.9c2.4,17.2-1.3,34.5-11,51.9c-18.1,32.6-42.7,40.3-73.7,23c-10.6-5.9-20.8-13.5-30.4-22.8l-59-55.8
		c30,37,51.8,68.5,65.3,94.6c13.5,26.1,20.6,48.8,21.2,68.3c0.6,19.4-4,38-13.9,55.8c-18.9,34.1-43.5,42.7-73.9,25.9
		c-11.4-6.3-23.5-16.2-36.3-29.8l-136.8-148.7c-5.6-6.1-10.4-10.2-14.6-12.6c-8-4.4-13.9-3-17.9,4.2c-3.4,6.1-3.5,13.8-0.3,23.3
		c3.2,9.4,11.6,21.9,25.3,37.5l21.6,25.4L6190.9,5205.9z"/>
	<path class="st0" d="M5979.2,5501.5l-7.3,10l-29.2-40.6c-15.4-20.9-22.5-40.4-21.5-58.7c1-18.3,7-35,18-50
		c15.8-21.7,34-29.7,54.4-23.9c8.3,1.8,16.7,5.8,25.1,11.9c10.2,7.4,21.1,18.6,32.7,33.5l1.7,2.1c-20.1-35-31.5-64.9-34.3-89.8
		c-2.8-24.8,3.3-47.6,18.4-68.2c13.5-18.6,30.6-29.1,51.3-31.8c20.7-2.6,43.3,5,67.8,22.9c28.4,20.7,53.9,50.6,76.6,89.6
		c22.7,39.1,36,80.4,39.9,124c3.9,43.6-6.6,82.4-31.3,116.3c-12,16.5-25.7,22.8-41.2,19l72.1,88.7c5,6.3,9.3,10.8,12.8,13.3
		c7,5.1,14.1,6.1,21.2,3c7.1-3.1,15.4-11.2,24.8-24.1l8.7,11.2c-17.3,24.4-31.4,47.8-42.3,70.1c-10.9,22.3-19.5,45.2-25.8,68.5
		l-297.9-374.8c-3.6-5.3-7.7-9.7-12.3-13c-8.1-5.9-14.5-5.5-19.4,1.2c-3.8,5.3-4.6,12.7-2.3,22.5c2.3,9.7,9.1,23,20.4,39.8
		L5979.2,5501.5z M6190.4,5554.9c15.1,5.1,26.3,2.5,33.7-7.6c11-15.1,11.6-38.6,2-70.6c-9.7-32-26.9-65.5-51.8-100.5
		c-24.9-35-53.4-64.3-85.6-87.8c-12.3-8.9-22.3-14.3-30.2-16c-7.9-1.7-14,0.4-18.3,6.4c-5.1,7-5.9,19-2.5,36
		c3.4,17,11.2,37.8,23.3,62.4c12.1,24.6,28.5,51,49.4,79L6190.4,5554.9z"/>
	<path class="st0" d="M5782.7,6035.9c-13.5-0.4-25.7-6.1-36.7-17.2c-13.1-13.3-20-28.8-20.8-46.6c-0.8-17.8,5-32.8,17.3-44.9
		c8.9-8.8,18.2-13.3,27.9-13.4c9.7-0.1,18.9,4.3,27.7,13.3c10.7,10.8,16.6,24.2,17.9,40.3c1.3,16.1-2.3,30.7-10.6,43.8
		c0.6-0.6,1.8-1.3,3.5-2c1.7-0.8,3-1.6,3.9-2.5c15.7-15.5,20.5-42.8,14.3-81.7c-6.2-39-29.7-96.1-70.6-171.4l-57.7-99.2l65.2-64.4
		l140.8,255.6c3.3,6.4,7.3,12,11.8,16.6c5.8,5.9,11.1,6.4,16.1,1.5c5.9-5.8,8.4-13.7,7.5-23.9c-0.9-10.1-5.4-24.3-13.5-42.4
		l-14.5-32.3l8.8-8.7l22.2,47.5c19.9,43,14.3,79.9-16.8,110.7c-23.7,23.4-48,22.7-72.6-2.3c-8.8-8.9-16.6-19.3-23.2-30.9l-10.9-18.5
		c17.5,40.6,26.2,72.6,26,96.2c-0.2,23.6-8.6,43.6-25.2,60C5808.8,6030.7,5796.2,6036.2,5782.7,6035.9z"/>
	<path class="st0" d="M5505.2,6093.4c14.2-46.3,37.4-92,69.4-137.1c-7.3-13.1-15.6-25.3-24.9-36.7c-14.5-17.8-28.1-27.7-40.6-29.8
		c-12.6-2-25.2,2.1-38,12.5c-10.4,8.5-19.5,21.4-27.2,38.6c-7.8,17.2-12,38.1-12.6,62.7l-11.3,2.5c-3.3-28.7-0.1-57.8,9.6-87.5
		c9.6-29.7,27-54.8,52.2-75.3c23.2-18.9,47.2-28.2,72.1-27.8c24.9,0.4,46.5,11.8,64.9,34.3c24.4,29.9,41.5,67.3,51.4,112.4
		c9.9,45,9.5,89.4-1.3,133.2c-10.8,43.7-32.8,79.1-66,106.3c-15.4,12.6-30.8,19.4-46.2,20.5c-15.4,1.1-28.2-4.8-38.6-17.6
		C5495.2,6176.7,5490.9,6139.7,5505.2,6093.4z M5622.4,6135.3c1.2-23.9-2-51.1-9.5-81.6c-7.5-30.5-18.2-59.4-32.1-86.6
		c-15.4,29.8-24.6,56.2-27.9,78.9c-3.6,23-2.8,45.5,2.2,67.4c5,21.9,14.8,41.8,29.3,59.6c5.2,6.4,9.4,10.2,12.7,11.5
		c3.3,1.2,6.2,0.8,8.9-1.4C5615.8,6175.1,5621.2,6159.2,5622.4,6135.3z"/>
	<path class="st0" d="M5362.8,6313.1c3.9-30.5,0.7-64.8-9.6-102.9c-10.3-38.2-26.4-73.7-48.2-106.5c-24-36.1-49.7-45-77.1-26.7
		c-26,17.3-39.2,49-39.7,95.2l-13.7,2.9c-0.9-29.6,4-57.9,14.9-84.9c10.9-27,29.2-49.1,54.8-66.1c26.3-17.5,52-24.5,77.1-20.8
		s46.7,19.1,65,46.6c20.6,31,34.2,68.2,40.6,111.5c6.5,43.3,2.9,85.4-10.6,126.1c-13.5,40.7-38.1,73-73.8,96.7
		c-19.8,13.2-39.1,18.9-57.8,17c-18.7-1.9-33-10.2-42.8-25c-6.5-9.7-10.5-20.9-12-33.4c-1.6-12.5-0.1-24.4,4.4-35.7
		c4.5-11.3,11.6-20.2,21.3-26.7c9-6,18.3-8,27.9-6.1c9.6,1.9,17.5,7.6,23.8,17c9.4,14.1,12.8,29.8,10.4,47.3
		c-2.4,17.5-9.2,32.3-20.4,44.4c10.9,3.1,22,1,33.2-6.5C5348.1,6364.7,5358.9,6343.6,5362.8,6313.1z"/>
	<path class="st0" d="M4840.7,6388.9l-11,5.7l-7.1-51.9c-3.6-25-1-45.6,7.9-61.9c8.9-16.3,21.8-28.8,38.8-37.6
		c10.4-5.4,20.2-8.2,29.3-8.5c9.1-0.3,17,1.7,23.6,6.1c7,5.1,12.8,12.1,17.4,21c4.6,8.9,9.1,22.4,13.6,40.5l15.1,67.5
		c-3.7-44-3.8-79.7-0.5-107.3c3.3-27.6,10-49.2,20-64.8c10-15.6,23.8-28,41.5-37.2c17.3-8.9,32.4-11.6,45.2-8
		c12.8,3.6,23.2,13.1,31.2,28.5c6.2,11.9,10.5,26.5,13.1,43.7l31.9,199.3c1.3,8.1,3,14.3,5.2,18.5c4.2,8.1,9.9,10.2,17.2,6.5
		c6.2-3.2,10.5-9.6,13.1-19.2c2.6-9.6,2.5-24.7-0.3-45.2l-3.9-33.1l11-5.7l7.3,49.6c6.6,46.8-9,80-46.7,99.4
		c-35,18.1-60.8,11.1-77.3-20.8c-6.2-11.9-11-28-14.6-48.1l-28.5-182.8c-1.9-12.2-4.4-21.4-7.6-27.5c-4.6-8.9-10.5-11.4-17.8-7.6
		c-11.6,6-19.4,24.4-23.4,55.2c-4.1,30.9-4.4,69.2-1,115c3.4,45.8,10.1,93.4,20,142.9l8,36.8c-33.9,18.4-60.4,35.6-79.6,51.3
		l-60.7-294.9c-1.9-9.3-4-16.2-6.4-20.9c-3.4-6.6-8.3-8.1-14.9-4.8c-7.3,3.8-12.1,10.6-14.3,20.5s-1.9,24.6,0.9,44.2L4840.7,6388.9z
		"/>
	<path class="st0" d="M4594.7,6723.9c-12.2-5.8-21-16-26.6-30.6c-6.6-17.4-6.7-34.4-0.3-51c6.4-16.6,17.7-28,33.9-34.2
		c11.7-4.5,22.1-4.8,30.9-1c8.9,3.8,15.5,11.6,20,23.3c5.4,14.2,5.4,28.9,0.1,44.1s-14.4,27.2-27.4,35.8c0.8-0.3,2.1-0.5,4-0.5
		c1.9,0,3.4-0.2,4.6-0.7c20.6-7.9,36-30.9,46-69c10-38.2,11.5-99.9,4.5-185.4l-12.9-114l85.6-32.7l25.9,290.6
		c0.4,7.2,1.8,13.9,4.1,20c2.9,7.7,7.6,10.3,14.1,7.8c7.7-2.9,13.2-9.2,16.5-18.8c3.3-9.6,4.9-24.4,4.7-44.2l-0.3-35.4l11.5-4.4
		l1.2,52.4c0.9,47.4-19.1,78.9-60,94.5c-31.2,11.9-53,1.4-65.5-31.4c-4.5-11.7-7.4-24.3-8.8-37.7l-2.6-21.3
		c-0.3,44.2-5.3,77-14.9,98.6c-9.6,21.5-25.4,36.5-47.3,44.8C4620.7,6729.6,4606.9,6729.7,4594.7,6723.9z"/>
	<path class="st0" d="M4420.8,6433.7c-15.9,4.4-27.3,12.7-34.2,25c-6.9,12.3-8.1,26.8-3.5,43.5c3.7,13.4,10.5,26.3,20.2,38.9
		c9.8,12.6,23,26.2,39.7,40.9c2.4,2,9.4,8.2,21,18.5c11.6,10.3,21,20.6,28.2,31c7.2,10.4,12.3,21.2,15.4,32.5
		c7.5,27.1,3.5,52.1-12,74.8c-15.5,22.7-41,39-76.5,48.9c-27.1,7.5-51.2,8.9-72,4.1c-20.9-4.8-34.6-19.1-41.2-42.9
		c-3.2-11.7-2.9-23.3,1.2-34.7c4-11.5,12.1-18.9,24.2-22.2c10.4-2.9,19.9-1.2,28.4,5c8.5,6.2,14.4,15.3,17.7,27.5
		c2.9,10.4,3.7,20.7,2.4,30.7c-1.3,10-3.7,18.9-7.4,26.7c6.4,1.8,14.1,1.5,23.3-1.1c15-4.2,25.5-12.1,31.5-23.9
		c6-11.8,6.8-26.1,2.6-42.9c-3.1-11.3-8.2-20.9-15.1-28.9c-6.9-8-17.9-18.9-33-32.7l-12.4-10.7c-19.5-18.4-34-34-43.6-46.6
		c-9.6-12.6-16.3-26.1-20.3-40.2c-5.1-18.4-4.8-36.1,0.8-53.2c5.6-17.1,16.1-32.2,31.6-45.5c15.4-13.3,35-23.2,58.8-29.8
		c29.7-8.2,55.9-9.3,78.7-3.3c22.8,6,37.7,21.8,44.8,47.3c3.5,12.5,3.3,24-0.5,34.5s-11.2,17.3-22,20.3c-10.9,3-20.8,0.8-29.8-6.6
		c-9-7.4-15.5-18.2-19.4-32.4c-2.5-9.2-3.8-17.7-3.7-25.6c0.1-7.9,0.7-17.6,2-29.2C4439.3,6430.1,4430.8,6430.9,4420.8,6433.7z"/>
	<path class="st0" d="M4199.6,6792.4c1.7,8.5,6.3,12,14,10.5c7.7-1.5,13.9-6.8,18.8-15.9c4.8-9.1,8.9-23.3,12.2-42.5l6.4-35
		l12.1-2.4l-8.4,52c-7.2,46.9-32.5,74.5-75.9,83c-19.6,3.8-34.7,1.8-45.5-6c-10.8-7.8-17.7-19.4-20.7-34.7
		c-2.4-12.3-2.5-25.3-0.3-39l28.9-208.3c1.1-8.2,1.1-14.6,0.2-19.2c-1.7-8.9-6.9-12.6-15.4-10.9c-6.4,1.2-12.2,6.1-17.3,14.6
		c-5.2,8.5-9.5,23-13,43.6l-5.5,32.9l-12.1,2.4l7.5-49.8c6.3-46.7,30.8-74.2,73.3-82.5c38.7-7.5,61.5,6.3,68.4,41.6
		c2.7,14,2.7,30.8-0.1,50.4l-26.8,195.3C4199.3,6782.7,4199.1,6789.4,4199.6,6792.4z M4196.4,6983c-10.3,12.6-24.7,20.7-42.9,24.3
		c-14.9,2.9-27.2,1.7-36.8-3.7c-9.7-5.4-15.7-14.3-18.1-26.6c-3.3-17,0.3-32.3,10.9-45.8c10.6-13.6,25.3-22.1,44-25.8
		c15.3-3,27.7-1.5,37.3,4.3c9.5,5.9,15.1,15.3,16.8,28.2C4210.5,6955.4,4206.8,6970.4,4196.4,6983z"/>
	<path class="st0" d="M4029.5,6732.5c-12.2,40-32.8,74.6-61.7,103.8c-29,29.2-65.5,46-109.4,50.6c-33.6,3.5-60.4-3-80.4-19.4
		c-20-16.4-31.8-41.9-35.4-76.4c-3.7-35.3,0.6-73,12.8-113.1c12.2-40,32.8-74.6,61.7-103.8c29-29.2,65.5-46,109.4-50.6
		c33.6-3.5,60.4,3,80.4,19.4c20,16.4,31.8,41.9,35.4,76.4C4045.9,6654.8,4041.7,6692.5,4029.5,6732.5z M3907.8,6822.3
		c15.8-32.6,27.8-71.7,36.1-117.5c8.3-45.7,10.5-87.8,6.5-126.1c-1.6-15.5-4.5-26.6-8.7-33.1c-4.2-6.5-10.1-9.4-17.9-8.6
		c-15.9,1.7-31.8,18.3-47.4,50c-15.7,31.7-27.7,70.3-36,115.8c-8.3,45.5-10.4,88.1-6.3,127.8c1.7,16.8,4.7,28.4,8.8,34.7
		c4.1,6.3,9.9,9.1,17.2,8.3C3876.2,6872,3892,6854.9,3907.8,6822.3z"/>
	<path class="st0" d="M3346.1,6657.3l17-47.2c16.3-44.4,45.7-66.2,88.2-65.5c24.3,0.4,41.5,7.8,51.6,22.3c5.5,8.3,8.2,18.5,8,30.7
		c-0.2,13.9-4,30.9-11.2,51.2l-61.3,174.5c-4.1,11.6-6.2,20.9-6.3,27.9c-0.2,10,3.9,15,12.1,15.1c13,0.2,28.9-12.8,47.8-38.9
		c18.8-26.1,37.9-60.6,57.3-103.4c19.3-42.8,36.3-87.9,51-135.4l9-32.4l91.6,1.5l-83.2,279.5c-2.7,7.8-4.1,14.7-4.2,20.7
		c-0.1,7.8,3.5,11.8,10.9,11.9c8.2,0.1,15.6-3.5,22-11c6.4-7.5,13.2-20.7,20.5-39.6l12.9-32.9l12.3,0.2l-18.3,49.1
		c-8.6,23.7-19.9,40.6-34,50.8c-14,10.2-31,15.1-50.9,14.8c-37.3-0.6-55.6-18.7-55-54.2c0.2-12.1,2.1-24.7,5.8-37.6l21.4-78.3
		c-18.5,43.9-36,78-52.7,102.2c-16.6,24.2-33.4,41.2-50.2,50.9c-16.8,9.7-35.4,14.4-55.8,14c-39-0.6-58.2-18.3-57.6-52.9
		c0.2-13,3.3-28.3,9.2-46l66.8-190.7c2.7-7.8,4.1-14,4.2-18.8c0.1-9.1-3.9-13.7-12.1-13.8c-6.9-0.1-13.8,3.5-20.7,10.7
		c-6.8,7.3-13.9,20.6-21.1,40l-12.2,31L3346.1,6657.3z"/>
	<path class="st0" d="M2958.7,6991.1c-14.1,8.2-30.3,10.8-48.7,7.8c-15-2.4-26-7.9-33.2-16.3c-7.2-8.4-9.8-18.8-7.7-31.2
		c2.8-17.1,11.5-30.2,26.2-39.2c14.6-9,31.4-12,50.2-8.9c15.4,2.5,26.5,8.2,33.4,17c6.9,8.8,8.9,19.6,5.9,32.3
		C2981.5,6970,2972.8,6982.9,2958.7,6991.1z M3027.9,6813.4c-1.4,8.5,1.7,13.5,9.4,14.7c7.7,1.3,15.4-1.5,23.1-8.4
		c7.7-6.9,16.5-18.7,26.2-35.6l18.2-30.6l12.2,2l-25.9,45.8c-23,41.5-56.4,58.6-100,51.5c-19.7-3.2-33.2-10.4-40.6-21.5
		c-7.4-11.1-9.8-24.3-7.3-39.7c2-12.4,6.4-24.6,13.3-36.7l99.5-185.3c3.8-7.3,6.1-13.3,6.9-18c1.5-9-2.1-14.2-10.6-15.6
		c-6.4-1-13.5,1.5-21.3,7.7c-7.8,6.2-16.9,18.3-27.4,36.4l-16.6,28.9l-12.2-2l24.3-44.1c22.2-41.6,54.7-58.9,97.4-51.9
		c38.9,6.4,55.5,27.3,49.7,62.8c-2.3,14.1-8.2,29.8-17.6,47.2l-93,173.8C3031,6804.3,3028.4,6810.4,3027.9,6813.4z"/>
	<path class="st0" d="M2899.2,6488.5c-16-3.9-30-2.2-42.1,5.1c-12,7.3-20.1,19.4-24.3,36.2c-3.3,13.5-3.7,28.1-1.4,43.8
		c2.4,15.7,7.3,34.1,14.6,55.1c1.1,2.9,4.2,11.7,9.3,26.4s8.3,28.2,9.4,40.8c1.2,12.6,0.4,24.5-2.4,35.9
		c-6.7,27.4-22.4,47.2-47,59.4c-24.6,12.3-54.8,14-90.6,5.2c-27.4-6.7-49-17.2-64.9-31.6c-15.9-14.4-20.9-33.6-15-57.5
		c2.9-11.8,8.9-21.7,18-29.7c9.1-8,19.8-10.6,32-7.6c10.5,2.6,18,8.6,22.3,18.2c4.4,9.5,5,20.4,2.1,32.6c-2.6,10.5-6.9,19.8-12.9,28
		c-6,8.1-12.5,14.7-19.5,19.6c4.7,4.7,11.6,8.2,20.9,10.5c15.2,3.7,28.2,1.9,39.1-5.5c11-7.4,18.7-19.4,23.2-36.1
		c2.8-11.4,3.1-22.2,0.9-32.6c-2.2-10.3-6.4-25.2-12.8-44.6l-5.6-15.4c-8-25.6-13.1-46.3-15.3-62c-2.2-15.7-1.5-30.7,2-45
		c4.5-18.5,13.4-33.9,26.7-46c13.2-12.1,29.8-20.2,49.8-24.3c20-4,41.9-3.1,65.9,2.8c29.9,7.3,53.3,19.2,70.2,35.6
		c16.9,16.4,22.3,37.5,16,63.1c-3.1,12.6-8.9,22.6-17.4,29.9s-18.2,9.6-29.1,6.9c-10.9-2.7-18.5-9.5-22.8-20.3
		c-4.3-10.9-4.6-23.4-1.1-37.8c2.3-9.3,5.4-17.3,9.3-24.2c3.9-6.9,9.3-15,16-24.5C2917.2,6494.4,2909.3,6490.9,2899.2,6488.5z"/>
	<path class="st0" d="M2443.6,6401.8c2.8-3.6,5-7.4,6.6-11.4c2.4-6,2.6-11.2,0.5-15.5c-2-4.3-5.9-7.6-11.5-9.8
		c-8.9-3.5-19.1-2.5-30.8,2.9c-11.7,5.4-24.2,15.5-37.4,30.3l-18.8,21.2l-11.5-4.5l25.9-30.3c34.5-41.4,74.1-53.3,118.8-35.6
		c20.6,8.1,33.9,19.5,40,34.2c6.1,14.7,5.5,31.4-1.8,49.9c-4.6,11.7-11.2,23.1-19.7,34.1l-144.9,188.8l54.4,21.4l-7.8,10.9l-55-21.7
		l-61.5,79.9c-34.4-13.1-64.8-21.8-91-26.1l67.2-87.4l-68.3-26.9l6.6-11.4l70.2,27.6L2443.6,6401.8z"/>
	<path class="st0" d="M2234.5,6484.2c-31.9,27.1-67.9,45.1-108.1,53.9s-80,3.3-119.4-16.6c-30.2-15.2-49.2-35.2-57.2-59.8
		c-7.9-24.7-4.1-52.4,11.5-83.4c16-31.7,40-61.1,71.9-88.2c31.9-27.1,67.9-45.1,108.1-53.9s80-3.3,119.4,16.6
		c30.2,15.2,49.2,35.2,57.2,59.8c7.9,24.6,4.1,52.4-11.5,83.4C2290.4,6427.7,2266.4,6457.1,2234.5,6484.2z M2083.6,6493.9
		c30.9-18.9,62.2-45.3,93.9-79.3c31.7-34,56.3-68.2,73.7-102.6c7-13.9,10.6-24.8,10.6-32.5c0-7.8-3.4-13.4-10.4-16.9
		c-14.3-7.2-36.6-1.8-66.9,16.4c-30.3,18.2-61.3,44.2-92.9,78c-31.6,33.8-56.4,68.5-74.4,104.1c-7.6,15.1-11.4,26.4-11.3,34
		c0.1,7.6,3.4,13,10,16.3C2030.1,6518.6,2052.7,6512.8,2083.6,6493.9z"/>
	<path class="st0" d="M1580.6,5959.4l-9.9-7.4l43.5-29.2c20.8-14.2,40.5-20.9,59.1-20.1c18.6,0.8,35.5,6.9,50.8,18.3
		c9.4,7,16.2,14.5,20.5,22.5c4.3,8,5.9,16,4.9,23.9c-1.5,8.6-5.2,16.9-11.2,24.9c-5.9,8-16.1,18-30.4,30l-54,43.3
		c37.9-22.6,69.9-38.5,96.1-47.7c26.2-9.1,48.5-12.7,67-10.6c18.4,2.1,35.6,9.1,51.6,20.9c15.7,11.6,24.7,24,27.1,37.1
		s-1.6,26.6-11.9,40.6c-8,10.8-19.2,21.1-33.5,31l-164.9,116.4c-6.7,4.7-11.5,9-14.4,12.8c-5.4,7.3-4.8,13.4,1.8,18.3
		c5.6,4.1,13.2,5.2,23,3.3c9.8-1.9,23.3-8.6,40.5-20.2l28-18.1l9.9,7.4l-41.3,28.4c-39.1,26.5-75.7,27.2-109.8,1.8
		c-31.7-23.5-36.8-49.7-15.3-78.6c8-10.8,20.3-22.2,36.8-34.2l151.6-106c10.1-7.1,17.2-13.4,21.4-19c5.9-8,5.6-14.5-1-19.4
		c-10.4-7.8-30.4-6.7-59.9,3.3c-29.5,9.9-64.1,26.5-103.7,49.7c-39.6,23.2-79.5,50.2-119.5,80.9l-29.5,23.4
		c-31.5-22.3-58.5-38.6-81.1-48.9l238-184.3c7.5-5.8,12.8-10.7,15.9-14.9c4.4-5.9,3.6-11.1-2.3-15.5c-6.6-4.9-14.9-6.2-24.7-3.8
		c-9.9,2.4-23,9.1-39.3,20.2L1580.6,5959.4z"/>
	<path class="st0" d="M1287.5,5683.2l44.5-23c42.1-21.5,78.5-17.5,109.2,11.8c17.5,16.8,25.1,33.9,22.7,51.4
		c-1.6,9.8-6.6,19.1-15,27.9c-9.6,10-23.9,20-43,29.9l-163.6,86.4c-10.9,5.8-18.8,11.1-23.6,16.2c-6.9,7.2-7.4,13.7-1.4,19.3
		c9.4,9,29.9,10.3,61.5,3.9c31.6-6.4,69-18.7,112.3-37c43.3-18.3,86.4-39.8,129.4-64.7l28.6-17.6l66.2,63.4l-251,148.5
		c-7.3,3.8-13,7.9-17.2,12.3c-5.4,5.6-5.4,11-0.1,16.1c6,5.7,13.8,8,23.6,6.8c9.8-1.1,23.8-6.2,42-15.2l31.8-15.4l8.9,8.5
		l-46.8,23.6c-22.4,11.5-42.2,16.3-59.5,14.2c-17.2-2.1-33-10-47.4-23.8c-26.9-25.8-28.1-51.5-3.5-77.2c8.4-8.8,18.3-16.6,29.8-23.6
		l68.9-42.9c-43.4,19.7-79.4,32.7-108.1,39.2c-28.7,6.5-52.5,7.5-71.4,3.2c-18.9-4.3-35.8-13.5-50.5-27.6c-28.2-27-30.3-53-6.3-78
		c9-9.4,21.7-18.6,38-27.5l178.6-94.5c7.3-3.8,12.6-7.5,15.9-10.9c6.3-6.6,6.5-12.7,0.5-18.4c-5-4.8-12.5-6.9-22.4-6.2
		c-9.9,0.7-24.2,5.7-42.7,15l-30,14.5L1287.5,5683.2z"/>
	<path class="st0" d="M1055.2,5403.4l-7.8-9.6l46.6-17.9c24.1-9.6,44.8-11.6,62.3-5.9c17.4,5.6,32.1,15.6,43.8,30.1
		c17,20.8,20.1,40.4,9.3,58.7c-3.8,7.6-9.8,14.7-17.9,21.3c-9.7,7.9-23.3,15.7-40.7,23.1l-2.4,1.1c39-10.5,70.8-14,95.5-10.4
		c24.7,3.6,45.2,15.3,61.4,35.1c14.5,17.8,20.4,37,17.7,57.7c-2.7,20.7-15.8,40.6-39.3,59.8c-27.2,22.2-62.6,39.3-106.1,51.4
		c-43.6,12.1-86.9,14.5-130.1,7.2c-43.1-7.3-78-27.2-104.6-59.8c-12.9-15.8-15.5-30.7-8-44.7L831,5647.8c-7.4,3.3-12.8,6.2-16.2,9
		c-6.7,5.5-9.5,12.1-8.2,19.7c1.2,7.7,6.9,17.7,17,30.1l-13,5.6c-19.2-22.9-38.3-42.4-57.1-58.7c-18.8-16.2-38.7-30.3-59.7-42.3
		l438.1-193.2c6.1-2.2,11.3-5,15.6-8.6c7.7-6.3,9-12.6,3.8-19c-4.1-5-11.2-7.7-21.1-7.9c-10-0.2-24.5,3-43.7,9.7L1055.2,5403.4z
		 M950,5594.2c-8.7,13.3-9.1,24.8-1.2,34.5c11.8,14.4,34.4,21,67.8,19.8s70.2-9.5,110.4-24.6c40.2-15.2,75.7-35.4,106.6-60.6
		c11.8-9.6,19.5-18,23.1-25.2c3.7-7.2,3.2-13.6-1.5-19.3c-5.5-6.7-16.9-10.6-34.2-11.5c-17.3-1-39.4,1.3-66.3,6.7
		c-26.9,5.4-56.5,14.7-89,27.7L950,5594.2z"/>
	<path class="st0" d="M819.3,5217.6c44.5,19.2,87.4,47.1,128.8,83.8c13.8-5.8,26.8-12.8,39.2-20.8c19.3-12.5,30.6-24.9,34-37.2
		c3.4-12.3,0.6-25.3-8.3-39.1c-7.3-11.3-19.1-21.7-35.4-31.3c-16.3-9.6-36.6-16-61-19.3l-1.3-11.6c28.9-0.1,57.5,6.2,85.9,19
		c28.5,12.8,51.5,32.8,69.2,60.1c16.3,25.1,22.9,50,19.8,74.7c-3.1,24.7-16.8,45-41.1,60.8c-32.4,21-71.5,34-117.3,38.9
		c-45.9,5-89.9-0.3-132.2-15.7c-42.3-15.4-75.1-41.1-98.5-77.1c-10.8-16.7-16-32.8-15.4-48.1c0.6-15.4,7.8-27.5,21.6-36.5
		C737.5,5198.6,774.9,5198.4,819.3,5217.6z M764.9,5329.6c23.6,3.8,51,3.6,82.1-0.6c31.1-4.2,61-11.7,89.6-22.5
		c-28-18.5-53.2-30.6-75.4-36.3c-22.5-6-44.9-7.8-67.3-5.2c-22.3,2.6-43.1,10.2-62.4,22.7c-6.9,4.5-11.2,8.3-12.8,11.4
		c-1.6,3.1-1.5,6.1,0.4,9C726.1,5318.7,741.3,5325.9,764.9,5329.6z"/>
	<path class="st0" d="M522.9,4943.7c4.4-12.8,13.5-22.7,27.4-29.9c16.6-8.6,33.4-10.6,50.6-6.1c17.2,4.5,29.8,14.5,37.8,29.9
		c5.8,11.2,7.3,21.4,4.5,30.6c-2.8,9.2-9.7,16.7-20.9,22.5c-13.5,7-28.1,8.7-43.8,5.1c-15.7-3.6-28.6-11.3-38.7-23.2
		c0.4,0.8,0.7,2.1,0.9,3.9c0.2,1.8,0.6,3.3,1.2,4.5c10.2,19.6,34.8,32.3,73.8,37.9c39,5.7,100.6,0.2,184.7-16.5l111.9-25.7
		l42.1,81.4l-285.8,58.6c-7.1,1.3-13.6,3.4-19.4,6.4c-7.3,3.8-9.4,8.8-6.2,14.9c3.8,7.3,10.6,12.1,20.5,14.3
		c9.9,2.2,24.7,2.1,44.5-0.3l35.1-4.3l5.7,11l-51.9,7.1c-47,6.3-80.6-10-100.7-48.9c-15.3-29.6-7.4-52.5,23.8-68.6
		c11.2-5.8,23.3-10.1,36.5-13l20.9-4.9c-43.9,4.7-77.1,3.4-99.6-3.7c-22.5-7.2-39.1-21.1-49.8-41.9
		C520.2,4970.2,518.6,4956.5,522.9,4943.7z"/>
	<path class="st0" d="M791.7,4738.1c-6.2-15.3-15.7-25.7-28.7-31.2c-13-5.5-27.5-5-43.6,1.5c-12.9,5.2-25,13.4-36.4,24.5
		c-11.4,11.1-23.4,25.8-36.2,44.1c-1.8,2.6-7.1,10.2-16,22.9c-8.9,12.7-18.1,23.2-27.6,31.5c-9.5,8.3-19.7,14.6-30.5,19
		c-26.1,10.5-51.3,9.4-75.7-3.4c-24.3-12.8-43.4-36.3-57.2-70.5c-10.5-26.1-14.6-49.8-12.3-71.1c2.4-21.3,15-36.6,37.9-45.8
		c11.3-4.5,22.8-5.5,34.6-2.8c11.8,2.7,20.1,9.9,24.8,21.5c4.1,10,3.5,19.6-1.7,28.7c-5.2,9.1-13.6,16-25.3,20.7
		c-10,4.1-20.1,6-30.2,5.9c-10.1-0.1-19.2-1.6-27.4-4.4c-1.1,6.5,0.1,14.2,3.7,23c5.8,14.5,15,24,27.3,28.6
		c12.4,4.6,26.7,3.8,42.9-2.3c10.8-4.4,19.8-10.5,27-18.3c7.1-7.8,16.7-20,28.7-36.5l9.2-13.6c16.1-21.5,29.9-37.7,41.4-48.6
		c11.5-10.9,24-19.2,37.7-24.7c17.7-7.1,35.3-8.9,52.9-5.2c17.6,3.6,33.9,12.4,48.8,26.2c14.9,13.8,27,32.2,36.3,55.1
		c11.5,28.5,15.6,54.5,12.2,77.8s-17.4,40-41.9,49.9c-12.1,4.9-23.5,6-34.4,3.4c-10.9-2.6-18.4-9.1-22.6-19.6
		c-4.2-10.4-3.2-20.6,3.2-30.4c6.3-9.8,16.3-17.5,30-23c8.8-3.6,17.2-5.8,25-6.6c7.8-0.8,17.6-1.3,29.3-1.3
		C797.3,4756.2,795.6,4747.8,791.7,4738.1z"/>
	<path class="st0" d="M640.5,4474.2c4.5-0.1,8.9-0.7,13-2c6.2-1.9,10.3-5,12.4-9.3c2.1-4.3,2.2-9.3,0.4-15.1
		c-2.8-9.1-10-16.5-21.6-22.2c-11.5-5.7-27.2-9.1-47.1-10.2l-28.3-1.4l-3.7-11.8l39.9,1.2c53.8,0.9,87.9,24.3,102.3,70.2
		c6.6,21.1,6,38.6-1.6,52.6s-21,23.9-40,29.9c-12,3.7-25,5.8-39,6l-238,5.5l17.4,55.8l-13.4,0.8l-17.6-56.5l-100.8,2.2
		c-11.4-35-23.6-64.1-36.8-87.3l110.2-2.4l-21.9-70.1l13-2l22.5,72L640.5,4474.2z"/>
	<path class="st0" d="M487,4058l-2.5-12.1l49.8,6.2c25.5,3.5,44.9,11.7,58,24.7c13.1,13,21.5,28.1,25.2,45.5
		c4.6,22.1,1.3,39.1-9.8,51.2c-6.4,7.5-16.4,12.7-29.9,15.6c-11,2.3-23.9,3-38.7,2.1c34.4,7.8,60.5,19.1,78.1,33.8
		c17.7,14.7,28.8,32.6,33.2,53.8c4.9,23.3,1.7,42.5-9.5,57.5s-29.2,25-53.8,30.2c-37.7,7.9-79.8,6.2-126.3-5.1
		c-46.4-11.3-87.1-29.4-122-54.4c-34.9-25-55.5-52.3-61.7-82c-2.4-11.5-0.9-21.4,4.4-29.8c5.3-8.4,14.6-14.7,27.9-18.8l-33-2.4
		c-7.5-33.8-17.2-63.9-28.9-90.2l301.2,23.8c7.7,0.6,13.8,0.4,18.5-0.6c9.3-2,13.2-7,11.5-15c-3.1-14.8-22.6-24.5-58.5-28.9
		L487,4058z M335.6,4178.1c-2.2,0-5.4,0.5-9.7,1.4c-10.6,2.2-18.3,5.7-23,10.5c-4.8,4.8-6.4,10.8-4.9,18c3,14.4,19.4,28.1,49.1,41.2
		c29.7,13,65.5,21.9,107.2,26.7c41.7,4.8,80.8,3.3,117.3-4.3c14-2.9,23.8-6.4,29.4-10.5c5.6-4,7.7-9.3,6.4-15.6
		c-2-9.3-10.6-18.3-25.9-26.8c-15.3-8.5-36.3-15.8-63.1-22c-26.7-6.1-57.8-9.9-93-11.4l15.9,0L335.6,4178.1z"/>
	<path class="st0" d="M446.9,3656.3l48.7,12.1c45.8,11.7,70.5,38.8,74.1,81.1c2.1,24.2-3.6,42.1-16.9,53.6c-7.7,6.3-17.6,10-29.7,11
		c-13.8,1.2-31.2-0.8-52-6l-179.8-43.3c-12-2.9-21.4-4-28.3-3.4c-9.9,0.8-14.5,5.4-13.8,13.6c1.1,13,15.6,27.5,43.5,43.6
		c27.9,16.1,64.1,31.6,108.7,46.5c44.6,14.9,91.2,27.2,139.8,37l33.1,5.6l7.8,91.3l-286.5-54.4c-8-1.9-15-2.6-21.1-2.1
		c-7.8,0.7-11.3,4.7-10.7,12c0.7,8.2,5.1,15.1,13.2,20.7c8.1,5.6,21.9,11.1,41.5,16.3l34.1,9.5l1.1,12.3l-50.7-13.3
		c-24.4-6.2-42.4-15.7-54-28.7c-11.5-12.9-18.2-29.3-19.9-49.2c-3.2-37.1,12.9-57.2,48.3-60.2c12.1-1,24.8-0.4,38,2l80.1,13.4
		c-45.6-13.9-81.2-28-107-42.1c-25.8-14.1-44.3-29-55.7-44.8c-11.3-15.8-17.9-33.8-19.6-54.1c-3.3-38.9,12.3-59.8,46.8-62.7
		c13-1.1,28.5,0.4,46.7,4.5l196.5,47.1c8,1.9,14.4,2.7,19.1,2.3c9.1-0.8,13.2-5.3,12.5-13.5c-0.6-6.9-4.8-13.4-12.8-19.5
		c-7.9-6.1-21.9-11.7-41.9-17l-32.1-9L446.9,3656.3z"/>
	<path class="st0" d="M457.2,3292.8l0.4-12.3l46.9,17.3c24.4,8.7,41.3,20.9,50.7,36.6c9.4,15.7,13.8,32.9,13.1,51.5
		c-1,26.9-11.6,43.6-31.8,50.2c-7.9,3.2-17.1,4.6-27.5,4.2c-12.6-0.5-27.8-3.6-45.8-9.5l-2.6-0.7c36.2,17.8,62.4,36.2,78.6,55.2
		c16.2,19,23.9,41.3,22.9,66.9c-0.8,23-9.1,41.3-24.8,55c-15.7,13.7-38.7,20.1-69,19c-35.1-1.3-73-11.8-113.7-31.5
		c-40.7-19.7-74.8-46.5-102.4-80.5c-27.6-34-40.6-71.9-39.1-113.9c0.7-20.3,8.6-33.3,23.5-38.8l-109.4-33.3
		c-7.7-2.4-13.7-3.8-18.1-3.9c-8.7-0.3-15.1,2.8-19.2,9.4c-4.1,6.6-6.5,17.9-7.1,33.9l-13.5-4.4c0.7-29.9-0.7-57.2-4.2-81.8
		c-3.4-24.6-9.1-48.4-16.9-71.2L505,3354.4c6,2.4,11.8,3.7,17.4,3.9c10,0.4,15.1-3.6,15.4-11.8c0.2-6.5-3.3-13.1-10.7-19.9
		c-7.3-6.8-20.4-14-39.2-21.6L457.2,3292.8z M252.2,3366.7c-15.3,4.2-23.2,12.6-23.7,25.2c-0.7,18.6,11.9,38.5,37.8,59.6
		c25.9,21.1,59,39.2,99.2,54.3c40.2,15.1,80.2,23.4,120.1,24.9c15.2,0.6,26.5-0.7,34-3.6c7.5-3,11.4-8.1,11.6-15.5
		c0.3-8.7-5.7-19.1-18-31.2c-12.3-12.2-30.4-25.1-54.2-38.7c-23.8-13.7-52.2-26.3-85.1-37.9L252.2,3366.7z"/>
	<path class="st0" d="M321.2,2739.9c11.4-7.2,24.7-9.3,40-6.2c18.3,3.7,32.7,12.7,43.3,27c10.6,14.3,14.2,29.9,10.8,46.9
		c-2.5,12.3-7.7,21.2-15.7,26.7c-8,5.5-18.1,7-30.4,4.5c-14.9-3-27.3-10.8-37.4-23.4c-10.1-12.6-15.3-26.7-15.7-42.3
		c-0.2,0.9-0.7,2.1-1.7,3.6c-1,1.6-1.6,3-1.9,4.3c-4.4,21.7,6.9,46.9,33.8,75.8c26.9,28.9,78.4,63.1,154.3,102.7l103.3,50
		l-18.1,89.8L326.4,2966c-6.4-3.5-12.7-5.9-19.1-7.2c-8.1-1.6-12.8,1-14.2,7.8c-1.6,8.1,0.7,16.1,7.1,24c6.4,7.9,18,17.1,34.9,27.6
		l30.1,18.7l-2.4,12.1l-45-27c-40.6-24.5-56.6-58.2-47.9-101.2c6.6-32.7,27.1-45.6,61.5-38.7c12.3,2.5,24.5,6.7,36.6,12.7l19.4,9.2
		c-37.2-23.8-62.3-45.6-75.4-65.3c-13.1-19.6-17.3-40.9-12.7-63.9C302.5,2758.8,309.8,2747.1,321.2,2739.9z"/>
	<path class="st0" d="M519.5,2537c14,46.4,20.3,97.2,18.9,152.5c13.3,6.8,27.1,12.3,41.2,16.6c22,6.7,38.8,7.4,50.3,2
		c11.6-5.3,19.8-15.8,24.5-31.6c3.9-12.8,4.3-28.6,1.1-47.2c-3.2-18.6-11.3-38.3-24.5-59.1l8-8.4c18.7,22,32.3,48,40.9,78
		c8.6,30,8.1,60.5-1.3,91.6c-8.7,28.6-23.5,49.7-44.3,63.3c-20.9,13.6-45.2,16.2-73,7.7c-36.9-11.2-72-32.7-105.4-64.6
		c-33.3-31.9-57.8-68.9-73.2-111.2c-15.5-42.3-17-83.9-4.5-125c5.8-19.1,14.8-33.3,26.9-42.8c12.2-9.4,26.1-11.8,41.9-7
		C481.3,2462.3,505.5,2490.7,519.5,2537z M398.8,2567.6c12.3,20.5,30.1,41.3,53.4,62.4c23.3,21.1,48.2,39.1,75,54
		c-3.9-33.3-10.9-60.4-20.9-81.1c-9.9-21.1-23-39.4-39.4-54.8c-16.4-15.4-35.6-26.4-57.5-33.1c-7.9-2.4-13.5-3.2-16.9-2.4
		c-3.4,0.8-5.6,2.8-6.6,6.1C382.1,2530.9,386.5,2547.1,398.8,2567.6z"/>
	<path class="st0" d="M515.3,2275.1c13.7,27.5,35.5,54.2,65.3,80.2c29.8,26,63,46.5,99.4,61.6c40,16.6,66.4,9.7,79-20.8
		c11.9-28.8,5.3-62.5-20-101.2l9.8-10c17.3,24,28.9,50.3,34.9,78.8c6,28.5,3.1,57-8.7,85.4c-12.1,29.2-29.6,49.3-52.4,60.3
		c-22.8,10.9-49.5,10.1-79.9-2.5c-34.4-14.3-66.4-37.6-95.9-70c-29.5-32.4-50-69.3-61.5-110.6c-11.5-41.3-9-81.8,7.4-121.5
		c9.1-22,22-37.4,38.5-46.3c16.6-8.8,33.1-9.9,49.5-3.1c10.8,4.5,20.3,11.5,28.6,21c8.3,9.5,13.7,20.2,16.3,32.1
		c2.6,11.9,1.6,23.2-2.8,34c-4.1,10-10.7,16.9-19.8,20.6c-9.1,3.8-18.8,3.5-29.2-0.8c-15.6-6.5-27.3-17.6-35-33.5
		c-7.7-15.9-10.3-32-7.8-48.3c-10.8,3.5-18.8,11.4-24,23.8C498.8,2224.1,501.6,2247.6,515.3,2275.1z"/>
	<path class="st0" d="M906.9,1921.4l6-10.8l34.8,39.2c16.9,18.7,26.2,37.3,27.9,55.8c1.7,18.5-2.1,36.1-11.3,52.8
		c-5.7,10.2-12.2,18-19.6,23.4c-7.4,5.3-15.1,8-23,8.1c-8.7-0.4-17.4-2.9-26.2-7.7c-8.7-4.8-20-13.5-33.9-26.1l-50.2-47.7
		c27.5,34.5,47.6,64.1,60.1,88.8c12.6,24.8,19.1,46.4,19.5,64.9c0.4,18.5-4.2,36.5-13.8,54c-9.4,17.1-20.5,27.7-33.1,31.8
		c-12.7,4.1-26.6,2-41.8-6.3c-11.8-6.5-23.5-16.2-35.2-29.1l-137.5-147.8c-5.6-6-10.4-10.2-14.6-12.5c-8-4.4-13.9-3-17.9,4.2
		c-3.3,6.1-3.4,13.8-0.2,23.3c3.2,9.4,11.7,21.9,25.4,37.4l21.7,25.3l-6,10.8l-33.7-37.1c-31.5-35.2-37.1-71.4-16.6-108.6
		c19-34.5,44.3-43.1,75.8-25.7c11.8,6.5,24.7,17.1,38.9,31.8l125.4,136c8.4,9.1,15.6,15.3,21.6,18.6c8.7,4.8,15.1,3.6,19.1-3.6
		c6.3-11.4,2.5-31-11.3-58.9c-13.8-27.9-34.9-59.9-63.2-96.1c-28.3-36.1-60.4-72-96.2-107.6l-27.2-26.1
		c17.9-34.2,30.4-63.2,37.5-86.9L922.9,2000c6.7,6.7,12.3,11.3,16.9,13.8c6.5,3.6,11.5,2.1,15-4.3c4-7.2,4.1-15.5,0.4-25
		c-3.7-9.5-12.1-21.5-25.3-36.2L906.9,1921.4z"/>
	<path class="st0" d="M924.4,1506.2c13.3-2,26.4,1.5,39.1,10.5c15.2,10.8,24.8,24.8,28.7,42.2c3.9,17.4,0.9,33.1-9.1,47.3
		c-7.3,10.3-15.6,16.3-25.1,18.1c-9.5,1.8-19.4-0.9-29.6-8.2c-12.4-8.8-20.6-20.9-24.7-36.6c-4.1-15.6-3.2-30.6,2.8-45
		c-0.5,0.7-1.5,1.6-3,2.6c-1.5,1-2.7,2.1-3.4,3.2c-12.8,18-12.7,45.7,0.3,83c12.9,37.3,46.1,89.4,99.6,156.4l74.2,87.5l-52.9,74.8
		l-183.5-226.9c-4.4-5.8-9.3-10.5-14.6-14.3c-6.7-4.7-12.1-4.3-16.1,1.4c-4.8,6.7-5.8,15-3.2,24.8c2.6,9.8,9.5,22.9,20.7,39.3
		l19.9,29.2l-7.1,10.1l-30.2-42.8c-27.2-38.8-28.2-76.1-2.9-111.9c19.3-27.2,43.2-30.7,71.9-10.5c10.3,7.3,19.7,16.1,28.3,26.4
		l14,16.3c-24.4-36.8-38.5-66.9-42.5-90.2c-4-23.2,0.8-44.4,14.3-63.5C899.6,1515.9,911.1,1508.2,924.4,1506.2z"/>
	<path class="st0" d="M1230.6,1650.1c10.7-12.5,15.5-25.8,14.4-39.8c-1.1-14-8.2-26.7-21.4-38c-10.5-9-23.4-16-38.5-21
		c-15.1-5-33.7-8.9-55.8-11.8c-3.1-0.4-12.3-1.6-27.7-3.6c-15.4-2-28.9-5.4-40.7-10c-11.7-4.6-22-10.7-30.9-18.3
		c-21.4-18.3-32-41.2-31.8-68.8c0.2-27.5,12.2-55.3,36.2-83.3c18.3-21.4,37.5-35.9,57.5-43.6c20-7.7,39.4-3.5,58.1,12.5
		c9.2,7.9,15.4,17.7,18.4,29.5c3.1,11.8,0.5,22.4-7.7,31.9c-7,8.2-15.8,12.1-26.3,11.7c-10.5-0.4-20.5-4.7-30-12.9
		c-8.2-7-14.6-15.1-19.2-24.1c-4.5-9-7.5-17.8-8.7-26.3c-6.3,2-12.5,6.7-18.7,13.9c-10.1,11.9-14.4,24.3-12.8,37.4
		c1.6,13.1,8.9,25.4,21.8,37c8.9,7.6,18.4,12.8,28.6,15.5c10.2,2.7,25.4,5.6,45.6,8.7l16.3,2c26.5,4.4,47.2,9.2,62.2,14.3
		c15,5.1,28.1,12.5,39.3,22.1c14.5,12.4,24.2,27.2,29,44.5c4.9,17.3,4.6,35.8-0.8,55.4c-5.4,19.6-16.1,38.8-32.2,57.6
		c-20,23.4-41.2,38.9-63.5,46.6s-43.5,3-63.6-14.2c-9.9-8.5-16.2-18.1-18.8-29c-2.7-10.9-0.4-20.6,7-29.1
		c7.3-8.6,16.8-12.3,28.4-11.2c11.6,1.1,23,6.4,34.2,16c7.2,6.2,13,12.6,17.4,19.2c4.4,6.6,9.2,15,14.6,25.4
		C1217.1,1663.4,1223.8,1658,1230.6,1650.1z"/>
	<path class="st0" d="M1109.7,1069.2c1.5-16.2,8.9-30.9,22-44.1c10.7-10.7,21.6-16.6,32.6-17.5c11-0.9,21,3.1,29.9,11.9
		c12.3,12.3,17.8,27,16.6,44.1c-1.2,17.2-8.6,32.5-22,46c-11,11-22.1,16.8-33.3,17.2c-11.2,0.5-21.1-4.2-29.7-14
		C1113.5,1100,1108.2,1085.4,1109.7,1069.2z M1213.6,1229.1c-6.1-6.1-12-6.4-17.5-0.9c-5.5,5.5-7.7,13.4-6.7,23.7
		c1.1,10.3,5.6,24.3,13.6,42.1l14.3,32.6l-8.7,8.7l-22.1-47.8c-20.2-42.9-14.7-80,16.5-111.2c14.1-14.1,27.8-20.9,41.1-20.5
		c13.3,0.5,25.5,6.2,36.5,17.2c8.9,8.9,16.2,19.6,22.1,32.2l92.5,188.9c3.7,7.4,7.2,12.7,10.6,16.1c6.4,6.4,12.7,6.6,18.8,0.5
		c4.6-4.6,6.7-11.9,6.2-21.8c-0.5-10-5-24.4-13.6-43.4l-13.8-30.3l8.7-8.7l21.6,45.5c20.8,42.3,16,78.7-14.7,109.4
		c-27.9,27.9-54.5,29.1-80,3.7c-10.1-10.1-19.5-24-28.1-41.8l-86.9-176.9C1219.3,1236.9,1215.8,1231.2,1213.6,1229.1z"/>
	<path class="st0" d="M1388,1183.7c-12.3-40-14.6-80.2-6.9-120.6c7.7-40.4,28.5-74.8,62.4-103.2c25.9-21.7,51.8-31.3,77.5-28.9
		c25.8,2.4,49.8,16.9,72.1,43.5c22.8,27.2,40.4,60.9,52.7,100.9c12.3,40,14.6,80.2,6.9,120.6c-7.7,40.4-28.5,74.8-62.4,103.2
		c-25.9,21.7-51.7,31.4-77.5,28.9c-25.8-2.4-49.8-16.9-72.1-43.5C1417.9,1257.3,1400.3,1223.7,1388,1183.7z M1438.7,1041.2
		c5.1,35.8,17.1,75,35.8,117.6c18.7,42.6,40.4,78.6,65.2,108.2c10,12,18.6,19.5,25.7,22.6c7.1,3.1,13.7,2.1,19.6-2.9
		c12.3-10.3,16.1-33,11.3-68c-4.8-35-16.4-73.7-35-116.1c-18.6-42.4-40.6-78.9-66.2-109.4c-10.9-13-19.8-20.9-26.7-23.8
		c-7-2.9-13.3-2-18.9,2.7C1437.1,982.3,1433.5,1005.4,1438.7,1041.2z"/>
	<path class="st0" d="M1996.7,863.2l12.4,48.6c11.4,45.9-0.7,80.5-36.2,103.7c-20.3,13.3-38.7,16.8-55.3,10.5
		c-9.2-3.8-17.2-10.8-23.8-20.9c-7.6-11.6-14.1-27.8-19.4-48.7l-47.2-178.9c-3.1-11.9-6.6-20.8-10.4-26.6
		c-5.5-8.3-11.6-10.3-18.5-5.7c-10.9,7.1-16.8,26.8-17.7,59c-0.9,32.2,2.6,71.5,10.6,117.7c8,46.3,19.3,93.2,33.8,140.6l10.7,31.8
		l-76.7,50.2l-88-278c-2.1-8-4.8-14.5-8.1-19.5c-4.3-6.5-9.5-7.8-15.7-3.7c-6.9,4.5-10.9,11.7-12,21.4c-1.1,9.8,0.7,24.6,5.3,44.3
		l7.8,34.5l-10.3,6.8l-12.4-50.9c-6.2-24.4-6.3-44.8-0.4-61.1c5.9-16.3,17.2-29.9,33.9-40.8c31.2-20.4,56.5-15.7,76,14
		c6.6,10.2,12.1,21.6,16.3,34.4l26.2,76.8c-9.3-46.7-13.9-84.8-13.7-114.1c0.2-29.4,4.5-52.8,13-70.3c8.5-17.5,21.3-31.8,38.3-42.9
		c32.6-21.4,58.4-17.5,77.4,11.5c7.1,10.9,13.2,25.3,18.2,43.2l51.7,195.3c2.1,8,4.5,13.9,7.1,17.9c5,7.6,10.9,9.2,17.8,4.7
		c5.8-3.8,9.5-10.6,11.1-20.5c1.6-9.8-0.1-24.8-4.9-44.9l-7.3-32.5L1996.7,863.2z"/>
	<path class="st0" d="M2132.2,370.7c7.1-14.7,19.1-25.9,36.1-33.7c13.8-6.3,26-8,36.7-5c10.7,3,18.6,10.2,23.8,21.6
		c7.2,15.8,7.3,31.5,0.1,47.1c-7.1,15.7-19.4,27.5-36.7,35.4c-14.2,6.5-26.6,8-37.2,4.5c-10.6-3.5-18.3-11.3-22.9-23.5
		C2125,400.9,2125.1,385.4,2132.2,370.7z M2173.8,556.8c-3.6-7.9-9-10.2-16-7s-11.9,9.9-14.5,19.9c-2.6,10-3.2,24.7-2,44.1l2,35.6
		l-11.2,5.1l-4-52.5c-4-47.2,14.1-80.1,54.3-98.5c18.1-8.3,33.4-9.9,45.7-4.8c12.3,5.1,21.7,14.7,28.2,28.9
		c5.2,11.4,8.4,24,9.5,37.8l20.7,209.3c0.9,8.2,2.3,14.4,4.3,18.8c3.8,8.3,9.6,10.6,17.5,7c5.9-2.7,10.4-8.8,13.4-18.3
		c3-9.5,3.8-24.6,2.4-45.4l-2.3-33.2l11.2-5.1l4.4,50.2c4.8,46.9-12.5,79.4-51.9,97.4c-35.9,16.4-61.3,8.3-76.2-24.4
		c-6-13-9.9-29.3-11.7-49l-19.7-196.1C2176.4,566.2,2175,559.6,2173.8,556.8z"/>
	<path class="st0" d="M2461.8,754.8c15.5-5.7,26.2-14.9,32.1-27.7c5.9-12.8,5.9-27.3-0.1-43.6c-4.8-13-12.5-25.4-23.3-37.1
		c-10.8-11.7-25.1-24.3-42.9-37.6c-2.5-1.8-10-7.4-22.4-16.7c-12.4-9.3-22.6-18.8-30.6-28.6c-8-9.8-14-20.2-18-31.1
		c-9.7-26.4-7.7-51.6,5.9-75.5c13.6-23.9,37.7-42.2,72.3-54.9c26.4-9.7,50.3-13,71.5-9.9c21.2,3.1,36.1,16.2,44.6,39.4
		c4.2,11.4,4.7,23,1.6,34.7c-3.1,11.8-10.5,19.8-22.3,24.1c-10.2,3.7-19.7,2.8-28.7-2.6c-8.9-5.5-15.6-14.1-19.9-25.9
		c-3.7-10.2-5.4-20.3-4.9-30.4c0.5-10.1,2.2-19.2,5.3-27.2c-6.5-1.3-14.2-0.3-23.1,2.9c-14.6,5.4-24.5,14.2-29.4,26.4
		c-5,12.2-4.7,26.5,0.9,43c4,11,9.8,20.2,17.4,27.6c7.6,7.4,19.4,17.4,35.5,29.9l13.2,9.7c20.9,16.8,36.7,31.1,47.2,42.9
		c10.6,11.8,18.4,24.7,23.5,38.5c6.6,17.9,7.7,35.6,3.5,53.1c-4.2,17.5-13.5,33.4-27.8,47.9c-14.3,14.5-33.1,26-56.3,34.5
		c-28.9,10.6-54.9,13.8-78.2,9.6s-39.4-18.7-48.5-43.5c-4.5-12.2-5.2-23.7-2.3-34.5c3-10.8,9.7-18.1,20.3-22
		c10.6-3.9,20.7-2.5,30.2,4.1c9.6,6.6,16.9,16.9,22,30.7c3.3,9,5.2,17.4,5.8,25.2c0.6,7.9,0.7,17.6,0.4,29.3
		C2443.6,759.9,2452,758.4,2461.8,754.8z"/>
</g>
</svg>
