<?xml version="1.0" encoding="utf-8"?>
<!-- Generator: Adobe Illustrator 23.0.3, SVG Export Plug-In . SVG Version: 6.00 Build 0)  -->
<svg version="1.1" id="Layer_1" xmlns="http://www.w3.org/2000/svg" xmlns:xlink="http://www.w3.org/1999/xlink" x="0px" y="0px"
	 viewBox="0 0 1905.7 1905.7" style="enable-background:new 0 0 1905.7 1905.7;" xml:space="preserve">
<style type="text/css">
	.st0{fill:#FFFFFF;}
	.st1{font-family:'ArialMT';}
	.st2{font-size:12px;}
</style>
<g>
	<path class="st0" d="M992.6,138.7c-0.4,1.2-0.7,2.3-0.7,3.5c-0.1,1.8,0.3,3.1,1.2,4.1c0.9,0.9,2.2,1.4,3.8,1.5
		c2.6,0.1,5.2-1,7.7-3.4c2.6-2.4,4.9-6.1,7.1-11.1l3-7.2l3.4,0.2l-4.1,10.1c-5.3,13.8-14.6,20.3-27.7,19.6c-6-0.3-10.5-2.1-13.4-5.4
		c-2.9-3.3-4.2-7.7-3.9-13.1c0.2-3.4,0.9-7,2.1-10.6l21.1-61.7l-16-0.8l1.1-3.5l16.2,0.8l9-26.1c10.1,0.4,18.7,0,25.9-1.2l-9.8,28.6
		l20.1,1l-0.7,3.5l-20.6-1L992.6,138.7z"/>
	<path class="st0" d="M1119.3,139.6l-6.3,12.2c-6,11.5-14.8,16.3-26.3,14.6c-10.7-1.6-15.3-7.2-13.9-16.7c0.6-4.2,2.2-8.7,4.7-13.3
		l22.8-45.2c1.6-3.2,2.5-5.7,2.7-7.5c0.4-2.6-0.5-4-2.8-4.4c-3.3-0.5-7.6,2-13.1,7.4c-5.4,5.4-11.3,12.9-17.5,22.6
		c-6.2,9.6-12.2,20.2-17.9,31.9l-6.4,14.2c-0.1,0.1-0.2,0.3-0.3,0.5l0-0.2l-0.8,1.9l-24.8-3.7L1072,41.6c0.9-2,1.4-3.6,1.6-4.8
		c0.4-2.3-0.3-4.2-2-5.5c-1.7-1.3-4.7-2.3-9-3l1.6-3.5c8.2,1.1,15.7,1.6,22.4,1.4c6.7-0.2,13.3-1,19.7-2.4l-36.2,78.2
		c8-12.4,15.3-20.7,21.8-25c6.6-4.3,13.6-5.9,21-4.8c5.5,0.8,9.4,2.7,11.6,5.6c2.2,2.9,3,6.5,2.3,10.9c-0.6,3.8-2,7.8-4.3,12.1
		l-25.1,49.3c-1,2-1.6,3.7-1.8,4.9c-0.4,2.5,0.6,3.9,3,4.2c3.9,0.6,8.2-3.5,13-12.3l4.4-8L1119.3,139.6z"/>
	<path class="st0" d="M1198.2,133.6c-12.6,4.3-26.4,6.5-41.6,6.6c-1.7,3.7-3.1,7.5-4.2,11.4c-1.6,6.1-1.7,10.7-0.1,13.8
		c1.6,3.1,4.5,5.3,8.9,6.4c3.6,0.9,7.9,0.9,12.9-0.1c5.1-1,10.4-3.5,15.9-7.3l2.4,2.1c-5.8,5.3-12.8,9.3-21,11.9
		c-8.1,2.6-16.5,2.8-25.1,0.5c-7.9-2.1-13.8-6-17.7-11.6c-3.9-5.6-4.8-12.2-2.8-19.9c2.7-10.2,8.3-20,16.7-29.4
		c8.4-9.4,18.3-16.4,29.8-21.1c11.4-4.6,22.8-5.4,34.2-2.4c5.3,1.4,9.3,3.7,12,7c2.7,3.2,3.5,7,2.3,11.4
		C1218.3,122.4,1210.8,129.3,1198.2,133.6z M1188.7,100.8c-5.5,3.6-11,8.6-16.6,15.2c-5.6,6.6-10.3,13.6-14.1,21
		c9.1-1.4,16.4-3.5,22-6.5c5.7-2.9,10.6-6.7,14.6-11.3c4.1-4.6,6.9-10,8.5-16.1c0.6-2.2,0.7-3.7,0.5-4.7c-0.2-0.9-0.8-1.5-1.7-1.8
		C1198.6,95.9,1194.2,97.3,1188.7,100.8z"/>
	<path class="st0" d="M1353.6,159.9c1.5,5.8,0.4,12.8-3.3,20.9c-4,8.9-10.4,17.3-19,25.3c-8.6,8-18.4,13.7-29.1,17
		c-10.8,3.3-21.1,2.7-31.1-1.8c-3-1.4-5.5-3.2-7.5-5.5c-1.9-2.3-3-4.8-3.2-7.5c-3.1-1.2-6.7-1.9-10.6-2.2c-4-0.3-8.6-0.4-13.8-0.3
		l-1.9-2.2c2.7-2.3,5.3-5,7.7-8l74.7-86.7c1.1-1.2,2-2.6,2.7-4.2c1-2.2,0.9-4.1-0.3-5.8s-3.8-3.5-7.8-5.3l2.5-3
		c7.5,3.3,14.5,5.7,20.9,7.3c6.4,1.6,12.9,2.6,19.6,3l-48.8,57.2c7.6-6.2,14.3-10.2,20.1-12c5.8-1.8,11.1-1.6,16.1,0.7
		C1348.1,149.7,1352.2,154.1,1353.6,159.9z M1288.4,210.9c8-4.7,15.8-11.4,23.4-20.2c7.6-8.7,13.4-17.4,17.2-25.9
		c1.8-4,2.7-7.1,2.5-9.2c-0.1-2.1-1.1-3.6-3-4.5c-3-1.4-7.6-0.2-13.8,3.4s-12.8,9-20.1,16l-31.7,37c1,3.3,2.9,5.6,5.7,6.9
		C1273.8,216.9,1280.4,215.7,1288.4,210.9z"/>
	<path class="st0" d="M1409.5,229.9c-13.2,0.7-27.2-0.9-41.8-4.9c-2.7,3.1-5,6.4-7.1,9.9c-3.2,5.4-4.5,9.8-3.8,13.3
		c0.7,3.4,2.9,6.3,6.8,8.6c3.2,1.9,7.3,3,12.5,3.4c5.2,0.4,10.9-0.5,17.3-2.7l1.7,2.7c-7.1,3.5-14.9,5.5-23.4,5.8
		c-8.5,0.3-16.6-1.8-24.3-6.3c-7-4.2-11.7-9.5-13.9-15.9c-2.3-6.4-1.4-13.1,2.7-19.9c5.4-9.1,13.4-17,24.1-23.8
		c10.6-6.8,22.1-10.9,34.4-12.2c12.3-1.4,23.4,1,33.5,6.9c4.7,2.8,7.9,6.1,9.6,9.9c1.7,3.8,1.4,7.7-0.9,11.6
		C1431.9,224.6,1422.8,229.2,1409.5,229.9z M1409.3,195.8c-6.3,1.9-13,5.3-20.1,10.1c-7.1,4.8-13.5,10.3-19.3,16.4
		c9.1,1.1,16.8,1,22.9-0.3c6.3-1.3,12-3.6,17.1-6.9c5.2-3.4,9.3-7.7,12.6-13.1c1.1-1.9,1.7-3.4,1.7-4.3c0-1-0.4-1.7-1.2-2.2
		C1420.1,193.8,1415.5,193.9,1409.3,195.8z"/>
	<path class="st0" d="M1410.6,294.9c3.6,2.7,7.4,3.7,11.2,3.1c3.8-0.6,7.1-2.8,9.9-6.6c2.2-3.1,3.9-6.7,4.9-11c1-4.2,1.7-9.4,2-15.5
		c0-0.9,0.2-3.4,0.4-7.6s0.8-8,1.9-11.3c1-3.3,2.5-6.2,4.4-8.8c4.5-6.2,10.6-9.6,18.1-10.2c7.5-0.5,15.3,2.2,23.5,8.1
		c6.2,4.5,10.6,9.5,13.1,14.8c2.5,5.3,1.8,10.7-2.2,16.1c-2,2.7-4.5,4.6-7.7,5.7c-3.1,1.1-6.1,0.6-8.9-1.4c-2.4-1.7-3.7-4.1-3.8-6.9
		c-0.1-2.9,0.8-5.7,2.9-8.5c1.7-2.4,3.8-4.3,6.2-5.7c2.4-1.4,4.7-2.4,7-2.9c-0.7-1.7-2.1-3.3-4.2-4.8c-3.5-2.5-6.9-3.4-10.5-2.7
		c-3.5,0.7-6.8,3-9.6,6.7c-1.9,2.6-3.1,5.3-3.6,8.1c-0.5,2.8-1,7.1-1.4,12.6l-0.2,4.5c-0.6,7.3-1.5,13.1-2.6,17.3
		c-1.1,4.2-2.8,7.9-5.2,11.2c-3.1,4.2-6.9,7.2-11.5,8.9c-4.6,1.7-9.7,2-15.1,1c-5.5-1.1-10.9-3.6-16.4-7.6
		c-6.8-5-11.5-10.4-14.1-16.3c-2.6-5.9-1.7-11.8,2.5-17.7c2.1-2.9,4.6-4.8,7.5-5.8c2.9-1,5.6-0.5,8.1,1.3c2.5,1.8,3.7,4.3,3.7,7.5
		c-0.1,3.2-1.3,6.4-3.6,9.7c-1.5,2.1-3.2,3.8-4.9,5.2c-1.7,1.3-3.9,2.8-6.6,4.5C1406.6,291.5,1408.3,293.2,1410.6,294.9z"/>
	<path class="st0" d="M1483.9,334.4c-1,0.7-2,1.4-2.7,2.3c-1.2,1.3-1.7,2.7-1.5,4c0.1,1.3,0.8,2.5,2.1,3.6c2,1.7,4.7,2.4,8.2,2.1
		c3.5-0.3,7.6-1.8,12.4-4.4l6.8-3.8l2.6,2.2l-9.4,5.5c-12.7,7.6-24,7-33.9-1.6c-4.6-4-7-8.1-7.2-12.5c-0.2-4.4,1.4-8.6,5-12.7
		c2.2-2.6,5-4.9,8.2-7l54.6-35.7l-12.1-10.5l3-2.1l12.3,10.6l23.1-15.1c7.7,6.5,14.8,11.5,21.2,15l-25.3,16.5l15.2,13.2l-2.7,2.3
		l-15.6-13.5L1483.9,334.4z"/>
	<path class="st0" d="M1644.7,445c-7.4,6.1-15.6,10.9-24.6,14.3c-9,3.4-17.7,4.5-26.2,3.5c-8.5-1.1-15.5-5-21.1-11.7
		c-6.1-7.3-7.9-14.6-5.4-21.9c-9.8-1.6-17.9-6.2-24.3-13.9c-4.9-5.9-7.1-11.8-6.6-17.5c0.5-5.8,3.2-10.7,8-14.7
		c5.4-4.5,12.5-7,21.2-7.7c8.8-0.7,18.4-0.1,29,1.6c10.5,1.7,23.8,4.5,39.8,8.3c-2.3-2-4.7-3.5-7.3-4.5c-2.6-1-5.8-2-9.5-2.9
		c-3.2-0.7-5.8-1.4-7.7-2.2c-1.9-0.7-3.5-1.8-4.7-3.3c-1.1-1.3-1.8-3.1-2.3-5.5c-0.2-2-0.8-3.5-1.7-4.6c-1-1.2-2.3-1.8-4-1.8
		c-1.7,0-4,0.6-7,1.9l-4.7,1.8l-2.2-2.6l12.5-5.3c6.6-2.7,11.8-3.8,15.7-3.3c3.9,0.5,6.9,2,9.1,4.7c0.9,1.1,1.6,2.2,2.1,3.4
		c0.5,1.1,0.9,2.6,1.4,4.4c0.1,0.4,0.4,1.3,0.9,2.7c0.5,1.5,1.1,2.9,1.9,4.3c0.8,1.4,1.7,2.8,2.8,4c3.1,3.7,7,6.5,11.6,8.1l3.9-0.7
		l1,4c-17.6-1.4-34-0.9-49.3,1.8c-15.3,2.6-27.2,7.4-35.6,14.4c-3.5,2.9-5.6,5.6-6.3,8c-0.7,2.5-0.1,4.9,2,7.4
		c2.7,3.2,6.5,5.4,11.5,6.6c1.6-3.1,4.2-6.2,7.8-9.3c5.3-4.4,11.5-7.5,18.5-9.2c7-1.8,13.6-2.2,19.6-1.2c6,0.9,10.2,2.8,12.6,5.6
		c2.9,3.5,1.3,7.7-4.7,12.7c-4.9,4.1-10.5,7.1-16.8,9c-6.3,1.9-13.1,2.6-20.3,2c-2.3,5.8-1.5,11,2.4,15.6c3.8,4.6,8.8,6.9,15.1,7.1
		c6.3,0.2,12.8-1.2,19.6-4.3c6.8-3,13-6.9,18.6-11.5c2-1.7,3.4-2.9,4.3-3.8c-2.2-6.8-3.4-13.1-3.4-18.8c0-5.8,2.2-10.5,6.7-14.2
		c2.2-1.8,4.7-2.6,7.4-2.5c2.8,0.2,5.2,1.5,7.2,4c3.5,4.2,3.6,9.3,0.4,15.3c-3.2,6-7.8,11.7-13.7,17.3
		C1647.5,442.5,1645.8,444.1,1644.7,445z M1617.3,413.6c-3.3,0.5-7.1,1.7-11.4,3.7c-4.3,2-8.2,4.5-11.9,7.6c-3,2.5-5.4,5.2-7.2,8.1
		c6,0.1,11.8-0.7,17.6-2.6c5.7-1.8,10.7-4.5,14.9-8c4.3-3.6,5.8-6.1,4.5-7.7C1622.8,413.5,1620.7,413.1,1617.3,413.6z"/>
	<path class="st0" d="M1675.4,544.7l1.8,2.9l-13.4,3.2c-6.9,1.5-12.6,1.3-17.2-0.8c-4.6-2.1-8.2-5.2-10.8-9.3
		c-3.3-5.2-4.1-9.9-2.3-14.1c0.9-2.5,3-4.8,6.2-6.8c2.6-1.6,5.9-3.1,9.7-4.2c-9.6,1.3-17.3,0.8-23.3-1.2
		c-5.9-2.1-10.5-5.6-13.6-10.7c-3.5-5.5-4.5-10.7-3-15.7s5.1-9.2,10.9-12.9c8.9-5.6,19.9-9.2,32.9-10.7c13-1.5,25.2-0.7,36.5,2.4
		c11.3,3.1,19.2,8.2,23.6,15.2c1.7,2.7,2.3,5.4,1.7,8.1c-0.6,2.7-2.4,5.2-5.4,7.5l8.7-2.5c5.2,8,10.5,14.8,16,20.4l-79.6,22.5
		c-2,0.6-3.6,1.2-4.7,1.9c-2.2,1.4-2.7,3-1.5,4.9c2.2,3.5,8.1,4.1,17.8,1.9L1675.4,544.7z M1702.9,499.5c0.6-0.2,1.3-0.6,2.4-1.3
		c2.5-1.6,4.1-3.2,4.9-4.9c0.8-1.7,0.6-3.4-0.5-5.1c-2.1-3.4-7.7-5.4-16.5-5.9c-8.9-0.5-18.9,0.6-30.1,3.3
		c-11.2,2.7-21.1,6.8-29.7,12.3c-3.3,2.1-5.5,3.9-6.5,5.5c-1,1.6-1.1,3.1-0.1,4.6c1.4,2.2,4.5,3.7,9.2,4.4
		c4.7,0.7,10.8,0.6,18.3-0.4c7.4-1,15.8-2.9,25-5.9l-4.1,1.5L1702.9,499.5z"/>
	<path class="st0" d="M1761.8,607.9c-9.6,4.6-22.6,7.1-38.9,7.3c-16.3,0.2-31.7-1.5-46.3-5.1c-9.1-2.3-17.8-5.5-26-9.7
		c-8.2-4.1-15.1-9.1-20.8-14.9c-3.7-3.5-6.3-6.9-7.9-10.2c-1.7-3.4-2.2-6.5-1.5-9.3c0.6-2.8,2.4-4.8,5.1-6.1
		c2.9-1.4,5.8-1.5,8.6-0.3c2.9,1.2,5.1,3.4,6.6,6.6c3,6.3,2.1,13.8-2.8,22.5c7.5,5.9,15.7,10.5,24.8,13.7l70.6-49.5
		c2.7-2,4.5-3.5,5.2-4.6c0.7-1.1,0.8-2.2,0.3-3.2c-0.6-1.2-1.9-1.9-4-2.2c-2.1-0.3-5.9-0.2-11.5,0.4l-9.2,0.9l-1.5-3l13.6-1.6
		c7.1-0.8,12.7-0.2,16.7,1.9c4,2.1,7.1,5.4,9.3,9.8c2.2,4.6,2.7,8.8,1.3,12.6c-1.3,3.8-5,7.7-10.9,11.8l-51.4,33.9
		c9,1.5,17.8,2.2,26.5,2.2c8.6,0,16.6-0.7,23.8-2.2c0.2-5.5,1.5-10.5,3.8-15.1c2.3-4.5,5.5-7.8,9.8-9.7c3.3-1.6,6.4-1.9,9.3-0.9
		c2.9,1,5.2,3.1,6.8,6.4C1774.7,597.3,1771.5,603.2,1761.8,607.9z"/>
	<path class="st0" d="M1729.9,705.9c-1.2,0-2.4,0.2-3.6,0.6c-1.7,0.5-2.8,1.4-3.4,2.6c-0.6,1.2-0.6,2.5-0.1,4.1
		c0.8,2.5,2.8,4.5,5.9,6.1c3.2,1.6,7.5,2.5,12.9,2.8l7.8,0.4l1,3.2l-10.9-0.3c-14.7-0.2-24.1-6.6-28-19.2
		c-1.8-5.8-1.7-10.6,0.4-14.4c2.1-3.8,5.7-6.6,10.9-8.2c3.3-1,6.8-1.6,10.7-1.7l65.2-1.6l-4.8-15.3l3.7-0.2l4.9,15.5l27.6-0.7
		c3.1,9.6,6.5,17.5,10.1,23.9l-30.2,0.7l6,19.2l-3.6,0.6l-6.2-19.7L1729.9,705.9z"/>
	<path class="st0" d="M1783.5,736.3c11.3,2.2,21.3,6.8,30.1,13.8c8.8,7.1,14.4,16.5,16.9,28.3c1.9,9.1,0.9,16.5-3,22.5
		c-3.9,5.9-10.5,9.9-19.8,11.8c-9.5,2-19.9,2-31.2-0.2c-11.3-2.2-21.3-6.8-30.1-13.8c-8.8-7.1-14.4-16.5-16.9-28.3
		c-1.9-9.1-0.9-16.5,3-22.5c3.9-5.9,10.5-9.9,19.8-11.8C1761.8,734.1,1772.2,734.2,1783.5,736.3z M1811.4,766.9
		c-9.3-3.4-20.3-5.5-33-6.4c-12.7-0.9-24.2-0.3-34.5,1.9c-4.2,0.9-7.1,2-8.8,3.3c-1.7,1.3-2.3,3-1.8,5.1c0.9,4.3,5.9,8.1,15,11.5
		c9.1,3.3,19.9,5.5,32.6,6.4c12.6,1,24.3,0.3,35-2c4.5-1,7.6-2.1,9.2-3.4c1.6-1.3,2.2-3,1.8-4.9
		C1825.9,774.1,1820.8,770.2,1811.4,766.9z"/>
	<path class="st0" d="M1783.2,966l0.1,3.4l-13.7-4.3c-6.6-2-11.4-5.1-14.4-9.2c-3-4.1-4.6-8.8-4.8-14c-0.1-3.2,0.3-6,1.3-8.2
		c1-2.3,2.4-4,4.3-5.1c2.1-1.1,4.5-1.8,7.2-1.9c2.7-0.1,6.6,0.4,11.6,1.4l18.5,4.2c-11.3-4.2-20.2-8.4-26.6-12.4
		c-6.4-4.1-11-8.2-13.7-12.5c-2.7-4.3-4.1-9.2-4.3-14.6c-0.2-5.3,0.9-9.4,3.3-12.1s6-4.2,10.7-4.4c3.7-0.1,7.8,0.5,12.4,1.9
		l53.1,15.4c2.2,0.6,3.9,0.9,5.2,0.9c2.5-0.1,3.7-1.3,3.6-3.5c-0.1-1.9-1.1-3.7-3.2-5.5c-2.1-1.8-5.8-3.5-11.2-5.2l-8.7-2.9
		l-0.1-3.4l13.1,4c12.4,3.8,18.7,11.6,19.1,23.2c0.4,10.8-4.4,16.4-14.2,16.7c-3.7,0.1-8.2-0.5-13.6-2l-48.6-14.4
		c-3.2-1-5.8-1.4-7.7-1.3c-2.7,0.1-4.1,1.3-4,3.5c0.1,3.6,3.8,7.6,10.9,12.3c7.2,4.6,16.6,9.2,28.3,13.7
		c11.7,4.5,24.3,8.5,37.7,11.8l10.1,2.3c0.6,10.5,1.7,19.1,3.4,25.7l-80.1-19.5c-2.5-0.6-4.5-0.9-5.9-0.9c-2,0.1-3,1.1-2.9,3.1
		c0.1,2.3,1.2,4.2,3.4,5.9s5.9,3.4,11,5L1783.2,966z"/>
	<path class="st0" d="M1773.9,1075.9l-12.5-5.6c-11.8-5.4-17.1-13.9-16.1-25.4c0.6-6.6,3-11.2,7.2-13.6c2.4-1.3,5.2-1.8,8.5-1.5
		c3.8,0.3,8.4,1.7,13.7,4.1l46.4,20.4c3.1,1.4,5.6,2.1,7.5,2.3c2.7,0.3,4.2-0.7,4.4-3c0.3-3.5-2.9-8.2-9.6-13.9
		c-6.7-5.7-15.8-11.6-27-17.8c-11.3-6.2-23.3-11.7-35.9-16.7l-8.6-3.1l2.3-25l74.6,28.5c2.1,0.9,3.9,1.4,5.6,1.6
		c2.1,0.2,3.3-0.7,3.5-2.7c0.2-2.2-0.6-4.3-2.6-6.2c-1.9-1.9-5.4-4-10.4-6.4l-8.7-4.2l0.3-3.4l13,6c6.3,2.8,10.7,6.3,13.2,10.3
		c2.5,4,3.5,8.8,3,14.2c-0.9,10.2-6.3,14.8-15.9,13.9c-3.3-0.3-6.7-1.1-10.1-2.4l-20.9-7.5c11.6,6,20.5,11.5,26.8,16.5
		c6.3,5,10.5,10,12.8,14.8c2.3,4.8,3.2,10,2.7,15.5c-1,10.6-6.2,15.5-15.7,14.6c-3.5-0.3-7.7-1.5-12.4-3.5l-50.7-22.2
		c-2.1-0.9-3.7-1.4-5-1.5c-2.5-0.2-3.8,0.8-4,3c-0.2,1.9,0.7,3.8,2.5,5.9c1.8,2,5.3,4.2,10.5,6.6l8.2,4L1773.9,1075.9z"/>
	<path class="st0" d="M1753.1,1173.3l-0.7,3.3l-11.8-7c-6.1-3.6-10.1-7.7-11.8-12.4c-1.7-4.7-2.1-9.6-1-14.5
		c1.6-7.2,5.3-11.2,11.1-11.9c2.3-0.5,4.8-0.4,7.6,0.2c3.4,0.7,7.3,2.4,11.9,4.8l0.7,0.3c-8.9-6.6-15-12.9-18.4-18.8
		c-3.4-5.9-4.4-12.3-2.8-19.1c1.4-6.1,4.5-10.7,9.4-13.6c4.9-2.9,11.4-3.5,19.5-1.7c9.4,2.1,19.1,6.8,29,14.1
		c10,7.3,17.8,16.3,23.6,26.8c5.7,10.5,7.4,21.4,4.9,32.6c-1.2,5.4-4,8.5-8.3,9.3l27.8,14.4c2,1,3.5,1.7,4.7,2
		c2.3,0.5,4.2,0,5.6-1.6c1.4-1.6,2.6-4.5,3.6-8.8l3.4,1.9c-1.7,8-2.6,15.4-2.9,22.2c-0.3,6.8,0,13.5,1,20l-115.8-61.5
		c-1.5-0.9-3-1.6-4.5-1.9c-2.7-0.6-4.2,0.2-4.7,2.4c-0.4,1.7,0.2,3.7,1.9,5.9c1.6,2.2,4.8,4.8,9.5,7.8L1753.1,1173.3z
		 M1811.9,1163.6c4.3-0.4,6.9-2.2,7.6-5.6c1.1-5-1.3-11-7.2-17.9s-13.9-13.5-24-19.6c-10.1-6.1-20.4-10.3-31.1-12.7
		c-4.1-0.9-7.2-1.1-9.3-0.7c-2.2,0.4-3.5,1.6-3.9,3.6c-0.5,2.3,0.6,5.4,3.3,9.3c2.7,3.9,6.9,8.3,12.7,13.1c5.7,4.9,12.7,9.7,21,14.4
		L1811.9,1163.6z"/>
	<path class="st0" d="M1752.7,1255.5c-3.4-12.8-4.6-26.8-3.6-41.9c-3.6-2-7.3-3.6-11.1-5c-5.9-2.1-10.5-2.4-13.8-1.1
		c-3.2,1.3-5.6,4.1-7,8.4c-1.2,3.5-1.5,7.8-0.8,12.9s2.7,10.6,6.1,16.4l-2.3,2.2c-4.9-6.2-8.3-13.5-10.4-21.8
		c-2-8.3-1.6-16.7,1.3-25.1c2.7-7.7,6.9-13.4,12.8-16.9c5.9-3.5,12.5-4,20.1-1.4c10,3.4,19.4,9.7,28.2,18.8
		c8.8,9.1,15.1,19.5,18.9,31.2c3.8,11.7,3.8,23.1-0.1,34.3c-1.8,5.2-4.4,9-7.8,11.4c-3.4,2.5-7.3,3-11.5,1.5
		C1762.4,1276.4,1756.1,1268.3,1752.7,1255.5z M1786.1,1248.4c-3.2-5.7-7.8-11.6-14-17.6c-6.1-6-12.8-11.2-20-15.6
		c0.7,9.2,2.4,16.6,4.9,22.4c2.5,5.9,5.9,11,10.2,15.4c4.3,4.4,9.5,7.6,15.4,9.7c2.1,0.7,3.7,1,4.6,0.8c0.9-0.2,1.6-0.7,1.9-1.6
		C1790.3,1258.6,1789.2,1254.1,1786.1,1248.4z"/>
	<path class="st0" d="M1743.2,1365.7c-3.5,1.2-7.2,0.9-11.1-0.9c-4.6-2.1-7.9-5.5-9.8-9.9c-1.9-4.5-1.9-8.9,0.1-13.2
		c1.4-3.1,3.4-5.2,5.9-6.1c2.5-1,5.3-0.7,8.4,0.7c3.8,1.7,6.6,4.6,8.5,8.6c1.9,4,2.4,8.1,1.5,12.3c0.1-0.2,0.3-0.5,0.7-0.9
		c0.4-0.4,0.6-0.7,0.8-1c2.5-5.5,1.2-12.9-4.2-22.3c-5.3-9.4-16.8-21.8-34.6-37.2l-24.3-19.9l10.5-22.8l60.6,52
		c1.5,1.3,3,2.4,4.6,3.1c2,0.9,3.5,0.6,4.3-1.2c0.9-2,0.8-4.3-0.4-6.8c-1.2-2.5-3.7-5.7-7.5-9.6l-6.8-6.9l1.4-3.1l10.3,10
		c9.2,9.1,11.4,19.1,6.3,30c-3.8,8.3-10.1,10.4-18.8,6.4c-3.1-1.4-6.1-3.3-8.9-5.7l-4.6-3.7c8.4,8.7,13.7,16.1,15.9,22.2
		c2.2,6.1,2,12-0.7,17.8C1749.4,1361.9,1746.7,1364.5,1743.2,1365.7z"/>
	<path class="st0" d="M1653.6,1342c-2.3,3.9-2.9,7.7-1.9,11.4c1,3.7,3.5,6.8,7.6,9.2c3.3,1.9,7.1,3.2,11.4,3.8
		c4.3,0.6,9.5,0.8,15.6,0.5c0.9-0.1,3.4-0.2,7.6-0.4s8.1,0,11.4,0.7c3.4,0.7,6.5,1.8,9.2,3.4c6.7,3.9,10.6,9.6,11.9,17
		c1.3,7.4-0.6,15.5-5.7,24.2c-3.9,6.7-8.4,11.5-13.4,14.6c-5,3-10.4,2.9-16.3-0.6c-2.9-1.7-5-4-6.4-7c-1.4-3-1.2-6,0.5-9
		c1.5-2.6,3.7-4,6.5-4.4c2.8-0.4,5.8,0.3,8.7,2c2.6,1.5,4.7,3.4,6.3,5.6c1.7,2.2,2.9,4.4,3.6,6.7c1.6-0.9,3.1-2.4,4.4-4.7
		c2.2-3.7,2.7-7.3,1.6-10.7c-1.1-3.4-3.6-6.4-7.7-8.9c-2.8-1.6-5.6-2.5-8.5-2.8c-2.9-0.2-7.1-0.3-12.7-0.1l-4.5,0.3
		c-7.3,0.1-13.2-0.2-17.5-0.8c-4.3-0.7-8.2-2-11.7-4c-4.5-2.6-7.8-6.2-10-10.6c-2.2-4.4-3-9.4-2.5-15c0.5-5.6,2.5-11.2,5.9-17.1
		c4.3-7.3,9.2-12.5,14.8-15.7c5.6-3.2,11.6-2.9,17.8,0.7c3.1,1.8,5.2,4.1,6.5,6.9s1.1,5.5-0.5,8.2c-1.6,2.7-3.9,4.1-7.1,4.4
		c-3.2,0.3-6.5-0.6-10-2.7c-2.3-1.3-4.1-2.8-5.6-4.3c-1.5-1.6-3.2-3.6-5.2-6.1C1656.6,1337.7,1655.1,1339.5,1653.6,1342z"/>
	<path class="st0" d="M1621.7,1418.9c-0.8-1-1.6-1.8-2.6-2.5c-1.5-1-2.8-1.4-4.1-1.1c-1.3,0.3-2.4,1.1-3.3,2.4
		c-1.5,2.1-1.9,4.9-1.2,8.4c0.7,3.5,2.6,7.4,5.7,11.9l4.4,6.4l-1.9,2.8l-6.4-8.8c-8.8-11.8-9.4-23.1-1.8-33.9
		c3.5-5,7.4-7.8,11.7-8.4c4.3-0.7,8.7,0.6,13.2,3.7c2.8,2,5.4,4.5,7.8,7.4l40.9,50.7l9.2-13.1l2.4,2.8l-9.3,13.3l17.3,21.5
		c-5.7,8.3-10,15.8-12.8,22.6l-18.9-23.5l-11.6,16.5l-2.6-2.5l11.9-16.9L1621.7,1418.9z"/>
	<path class="st0" d="M1556.9,1521.6l-2.2,2.6l-7-11.8c-3.5-6.1-4.9-11.7-4.3-16.7c0.6-5,2.5-9.4,5.7-13.1c4-4.7,8.3-6.8,12.8-6.4
		c2.7,0.1,5.5,1.4,8.4,3.9c2.3,2,4.6,4.7,6.9,8.1c-4-8.8-5.9-16.3-5.7-22.6c0.2-6.3,2.3-11.7,6.2-16.2c4.3-5,8.9-7.5,14.1-7.5
		c5.1-0.1,10.3,2.2,15.5,6.6c8,6.9,14.7,16.3,20,28.3c5.3,12,8.1,23.8,8.5,35.6c0.4,11.7-2.1,20.8-7.5,27.1c-2.1,2.4-4.5,3.8-7.2,4
		c-2.7,0.2-5.6-0.7-8.7-2.9l5,7.6c-6.1,7.3-11,14.4-14.8,21.3l-45-69.4c-1.1-1.8-2.2-3.1-3.2-3.9c-2-1.7-3.7-1.7-5.2,0
		c-2.7,3.2-1.5,9,3.5,17.5L1556.9,1521.6z M1608.3,1534.5c0.4,0.5,1,1.1,1.9,1.9c2.2,1.9,4.3,3,6.1,3.3c1.8,0.2,3.4-0.4,4.7-1.9
		c2.6-3.1,2.9-8.9,0.7-17.5c-2.1-8.6-6.2-17.9-12.1-27.7c-5.9-9.9-12.8-18.1-20.5-24.8c-3-2.6-5.4-4.1-7.2-4.6
		c-1.8-0.5-3.3-0.1-4.5,1.2c-1.7,2-2.2,5.3-1.5,10.1c0.7,4.7,2.6,10.5,5.7,17.4c3.1,6.8,7.5,14.2,13,22.1l-2.7-3.5L1608.3,1534.5z"
		/>
	<path class="st0" d="M1476.2,1597.2l-5.4-12.6c-5.1-11.9-3.3-21.8,5.3-29.6c4.9-4.5,9.7-6.2,14.5-5.2c2.7,0.6,5.1,2.2,7.3,4.6
		c2.6,2.8,5,6.9,7.4,12.3l20.5,46.3c1.4,3.1,2.7,5.3,4,6.7c1.8,2,3.6,2.3,5.3,0.8c2.6-2.4,3.4-8,2.2-16.7c-1.1-8.8-3.8-19.2-8-31.4
		c-4.2-12.2-9.2-24.4-15.2-36.6l-4.3-8.1l18.6-16.9l35.8,71.4c0.9,2.1,1.9,3.7,3,4.9c1.4,1.6,2.9,1.7,4.4,0.3
		c1.7-1.5,2.4-3.6,2.3-6.3c-0.1-2.7-1.2-6.6-3.3-11.8l-3.6-9l2.5-2.3l5.5,13.2c2.7,6.3,3.6,11.8,2.7,16.5c-0.9,4.7-3.4,8.8-7.4,12.5
		c-7.6,6.9-14.6,6.7-21.1-0.5c-2.2-2.5-4.2-5.3-5.9-8.6l-10.4-19.6c4.5,12.2,7.4,22.3,8.6,30.3c1.2,8,1.1,14.5-0.5,19.6
		c-1.5,5.1-4.4,9.5-8.5,13.3c-7.9,7.2-15,7.3-21.4,0.2c-2.4-2.6-4.7-6.3-6.8-10.9l-22.4-50.6c-0.9-2.1-1.8-3.6-2.7-4.5
		c-1.7-1.8-3.3-2-5-0.5c-1.4,1.3-2.1,3.3-2.1,6c0,2.7,1.1,6.7,3.3,11.9l3.4,8.5L1476.2,1597.2z"/>
	<path class="st0" d="M1395.2,1655l-2.8,1.9l-4-13.1c-2.1-6.8-2.3-12.5-0.4-17.1c1.9-4.7,4.9-8.4,9.1-11.4c6-4.2,11.4-4.7,16.2-1.4
		c2,1.2,3.8,3,5.5,5.3c2,2.8,3.8,6.7,5.5,11.6l0.3,0.7c-2.1-10.8-2.4-19.6-0.9-26.3c1.5-6.7,5.1-12,10.8-16.1
		c5.2-3.6,10.5-4.8,16.1-3.7c5.6,1.2,10.8,5.1,15.5,11.9c5.5,7.9,9.5,17.9,11.9,30c2.4,12.1,2.2,24-0.6,35.7
		c-2.9,11.6-9,20.8-18.4,27.4c-4.6,3.2-8.7,3.6-12.4,1.3l10.8,29.4c0.7,2.1,1.5,3.6,2.1,4.6c1.4,1.9,3.1,2.8,5.2,2.6
		c2.1-0.2,5-1.5,8.6-4.1l1.3,3.7c-6.6,4.8-12.4,9.6-17.2,14.4c-4.8,4.8-9.1,10-12.7,15.5l-44-123.5c-0.5-1.7-1.1-3.2-2-4.4
		c-1.6-2.2-3.3-2.7-5.1-1.4c-1.5,1-2.3,2.9-2.6,5.6c-0.3,2.7,0.3,6.8,1.8,12.1L1395.2,1655z M1445.2,1687.6c3.5,2.6,6.6,3,9.4,1
		c4.2-2.9,6.4-9,6.8-18.1c0.3-9.1-1.2-19.4-4.5-30.6c-3.3-11.3-8.2-21.4-14.4-30.3c-2.4-3.4-4.5-5.7-6.4-6.8c-1.9-1.1-3.7-1.1-5.3,0
		c-1.9,1.4-3.2,4.4-3.8,9.1c-0.6,4.7-0.4,10.8,0.5,18.2c1,7.4,2.9,15.7,5.8,24.9L1445.2,1687.6z"/>
	<path class="st0" d="M1296.4,1775.8c-3.5-1.3-6.1-3.9-7.9-7.8c-2.2-4.6-2.6-9.2-1.2-13.9c1.4-4.7,4.2-8,8.5-10.1
		c3.1-1.5,5.9-1.8,8.4-1c2.5,0.8,4.5,2.8,6,5.9c1.8,3.7,2.1,7.8,1,12c-1.1,4.3-3.3,7.7-6.7,10.4c0.2-0.1,0.6-0.2,1.1-0.2
		c0.5,0,0.9-0.1,1.2-0.3c5.5-2.6,9.1-9.2,11.1-19.9c1.9-10.6,1-27.5-2.8-50.7l-6-30.8l22.7-10.8l13.5,78.8c0.3,2,0.8,3.8,1.6,5.4
		c1,2,2.3,2.6,4,1.8c2-1,3.4-2.8,4.1-5.5c0.7-2.7,0.8-6.8,0.3-12.2l-0.8-9.7l3.1-1.5l1.5,14.3c1.3,12.9-3.5,22-14.3,27.1
		c-8.2,3.9-14.4,1.6-18.6-7.1c-1.5-3.1-2.6-6.5-3.2-10.1l-1.2-5.8c0.9,12.1,0.2,21.1-1.9,27.2c-2.2,6.1-6.1,10.5-11.9,13.3
		C1303.6,1776.8,1299.9,1777.1,1296.4,1775.8z"/>
	<path class="st0" d="M1219.3,1765.5c7.9-10.7,18-20.4,30.4-29.1c-0.7-4-1.7-8-3.1-11.7c-2.1-5.9-4.7-9.7-7.8-11.4
		c-3.1-1.7-6.7-1.7-11-0.2c-3.5,1.2-7,3.7-10.5,7.5s-6.6,8.8-9,15.1l-3.2-0.4c1.8-7.7,5.2-14.9,10.4-21.7c5.2-6.8,12-11.7,20.3-14.7
		c7.7-2.8,14.8-3,21.2-0.6c6.4,2.4,11,7.3,13.6,14.8c3.6,9.9,4.6,21.2,3.1,33.7c-1.5,12.5-5.7,24-12.4,34.3
		c-6.7,10.3-15.6,17.5-26.7,21.5c-5.1,1.9-9.7,2.2-13.8,1.1c-4.1-1.1-6.9-3.8-8.4-8C1209.2,1786.1,1211.4,1776.2,1219.3,1765.5z
		 M1245.8,1787c2.5-6.1,4.1-13.4,5-21.9c0.8-8.6,0.7-17-0.4-25.3c-6.7,6.3-11.5,12.3-14.4,17.9c-3,5.6-4.9,11.5-5.6,17.6
		c-0.7,6.1,0,12.1,2.2,18c0.8,2.1,1.5,3.5,2.2,4.1c0.7,0.6,1.5,0.8,2.4,0.4C1240.5,1796.7,1243.3,1793.1,1245.8,1787z"/>
	<path class="st0" d="M1162.3,1809.2c3.8-7.5,6.1-16.6,7-27.4c0.8-10.8,0-21.4-2.7-31.9c-2.9-11.5-8.7-16.2-17.4-14
		c-8.3,2.1-14.6,9-19,20.9l-3.8-0.5c2.5-7.7,6.4-14.6,11.6-20.5c5.3-6,12-10,20.2-12c8.4-2.1,15.7-1.5,21.8,1.7s10.3,9.2,12.5,18
		c2.5,9.9,2.6,20.7,0.3,32.5c-2.3,11.8-7.1,22.3-14.3,31.6c-7.2,9.3-16.5,15.3-27.9,18.2c-6.3,1.6-11.8,1.3-16.5-0.9
		c-4.6-2.2-7.6-5.7-8.7-10.4c-0.8-3.1-0.8-6.3,0-9.7c0.7-3.4,2.2-6.3,4.4-8.8c2.2-2.5,4.8-4.1,7.9-4.9c2.9-0.7,5.5-0.4,7.8,1
		c2.3,1.4,3.8,3.6,4.6,6.6c1.1,4.5,0.6,8.9-1.7,13.2c-2.2,4.3-5.3,7.5-9.3,9.6c2.5,1.8,5.6,2.3,9.2,1.4
		C1153.8,1821.2,1158.5,1816.7,1162.3,1809.2z"/>
	<path class="st0" d="M1020.6,1780.6l-3.4,0.4l3-14c1.4-6.8,4-11.8,7.8-15.2c3.8-3.4,8.3-5.4,13.5-6.1c3.2-0.4,6-0.2,8.3,0.5
		c2.4,0.8,4.2,2,5.5,3.8c1.3,2,2.2,4.3,2.5,7c0.4,2.7,0.3,6.6-0.2,11.7l-2.4,18.8c3.1-11.7,6.4-20.9,9.8-27.7
		c3.4-6.8,7.1-11.7,11.1-14.8c4-3.1,8.7-5,14.1-5.7c5.3-0.7,9.4,0,12.4,2.1c3,2.1,4.8,5.5,5.4,10.2c0.5,3.6,0.3,7.8-0.7,12.5
		l-10.2,54.3c-0.4,2.2-0.6,4-0.4,5.3c0.3,2.5,1.6,3.6,3.8,3.3c1.9-0.2,3.6-1.5,5.2-3.7c1.6-2.2,2.9-6.1,4.1-11.7l2.1-8.9l3.4-0.4
		l-2.7,13.5c-2.6,12.7-9.7,19.8-21.2,21.3c-10.7,1.4-16.7-2.8-18-12.5c-0.5-3.6-0.2-8.2,0.7-13.7l9.6-49.7c0.6-3.3,0.8-5.9,0.6-7.8
		c-0.4-2.7-1.7-3.9-3.9-3.6c-3.5,0.5-7.2,4.5-11.2,12.1c-3.9,7.6-7.5,17.4-10.9,29.5c-3.4,12.1-6.1,25-8.1,38.7l-1.3,10.2
		c-10.4,1.6-18.9,3.6-25.3,5.9l11.7-81.6c0.4-2.6,0.5-4.6,0.3-6c-0.3-2-1.4-2.9-3.4-2.6c-2.2,0.3-4.1,1.6-5.6,4
		c-1.5,2.4-2.8,6.2-3.9,11.5L1020.6,1780.6z"/>
	<path class="st0" d="M926,1844c-2.6-2.6-3.9-6.1-4-10.3c-0.1-5.1,1.5-9.5,4.7-13.2c3.2-3.7,7.2-5.6,11.9-5.6
		c3.4-0.1,6.1,0.8,8.1,2.6c1.9,1.8,2.9,4.4,3,7.9c0.1,4.2-1.3,7.9-4.1,11.4c-2.8,3.4-6.2,5.7-10.4,6.7c0.2,0,0.6,0.1,1.1,0.2
		c0.5,0.2,0.9,0.3,1.3,0.2c6.1-0.1,12.1-4.6,18.3-13.5c6.1-8.9,12.3-24.7,18.4-47.3l7.3-30.6l25.1-0.4l-20.3,77.3
		c-0.6,1.9-0.8,3.8-0.8,5.5c0,2.3,1,3.4,2.9,3.3c2.3,0,4.3-1.1,6-3.3c1.7-2.2,3.5-5.8,5.3-11l3.2-9.1l3.4-0.1l-4.6,13.6
		c-4.2,12.3-12.2,18.6-24.2,18.8c-9.1,0.2-13.8-4.6-14-14.2c-0.1-3.4,0.4-6.9,1.2-10.5l1.3-5.7c-4.2,11.3-8.5,19.3-13,24
		c-4.5,4.6-9.9,7-16.3,7.1C932.2,1847.9,928.6,1846.6,926,1844z"/>
	<path class="st0" d="M908.3,1753.1c-4.5-0.3-8.2,0.7-11.1,3.3c-2.9,2.5-4.6,6.1-4.9,10.9c-0.3,3.8,0.2,7.8,1.6,11.9
		c1.4,4.1,3.5,8.9,6.4,14.2c0.4,0.7,1.6,3,3.7,6.7c2,3.7,3.5,7.3,4.4,10.6c0.9,3.3,1.2,6.6,0.9,9.8c-0.6,7.7-3.9,13.7-10,18.2
		c-6.1,4.4-14.2,6.2-24.2,5.5c-7.7-0.6-14-2.5-18.9-5.6c-4.9-3.2-7.1-8.1-6.6-14.9c0.3-3.3,1.4-6.3,3.5-8.8c2.1-2.6,4.9-3.7,8.3-3.5
		c3,0.2,5.2,1.5,6.8,3.9c1.6,2.4,2.3,5.3,2,8.7c-0.2,3-1,5.7-2.2,8.1c-1.3,2.5-2.7,4.5-4.4,6.2c1.5,1.1,3.5,1.7,6.1,1.9
		c4.3,0.3,7.7-0.8,10.3-3.2c2.6-2.5,4.2-6.1,4.7-10.8c0.2-3.2-0.2-6.1-1.2-8.8c-1-2.7-2.9-6.5-5.5-11.5l-2.2-3.9
		c-3.3-6.6-5.6-11.9-6.9-16.1c-1.3-4.1-1.8-8.2-1.5-12.3c0.4-5.2,2.1-9.7,5.1-13.6c3-3.9,7.2-6.8,12.4-8.8c5.2-2,11.2-2.7,17.9-2.2
		c8.4,0.6,15.3,2.8,20.6,6.5c5.3,3.7,7.7,9.1,7.1,16.3c-0.3,3.5-1.4,6.5-3.4,8.8c-2,2.3-4.5,3.4-7.6,3.2c-3.1-0.2-5.4-1.7-7.1-4.5
		c-1.6-2.7-2.3-6.1-2-10.1c0.2-2.6,0.7-4.9,1.4-6.9c0.8-2,1.8-4.5,3.2-7.3C913.4,1753.9,911.1,1753.3,908.3,1753.1z"/>
	<path class="st0" d="M799.3,1873.6c-3.8,2.3-8.3,3-13.3,2.2c-4.1-0.6-7.1-2.1-9.1-4.4s-2.7-5.1-2.2-8.5c0.7-4.7,3.1-8.3,7.1-10.8
		c4-2.5,8.6-3.3,13.7-2.5c4.2,0.7,7.3,2.2,9.2,4.6c1.9,2.4,2.5,5.3,1.7,8.8C805.5,1867.8,803.1,1871.3,799.3,1873.6z M817.9,1824.8
		c-0.4,2.3,0.5,3.7,2.6,4c2.1,0.3,4.2-0.5,6.3-2.3c2.1-1.9,4.5-5.2,7.1-9.8l4.9-8.4l3.3,0.5l-7,12.6c-6.2,11.4-15.3,16.2-27.3,14.3
		c-5.4-0.8-9.1-2.8-11.2-5.8c-2-3-2.7-6.6-2.1-10.9c0.5-3.4,1.7-6.8,3.6-10.1l26.9-50.9c1-2,1.7-3.6,1.9-4.9
		c0.4-2.5-0.6-3.9-2.9-4.2c-1.8-0.3-3.7,0.4-5.8,2.1c-2.1,1.7-4.6,5-7.4,10l-4.5,7.9l-3.3-0.5l6.6-12.1c6-11.4,14.9-16.2,26.6-14.4
		c10.7,1.7,15.2,7.4,13.7,17.1c-0.6,3.9-2.2,8.2-4.7,13l-25.1,47.8C818.7,1822.3,818,1824,817.9,1824.8z"/>
	<path class="st0" d="M779.6,1793.5c-6.9,9.2-15.4,16.1-25.6,20.9c-10.2,4.8-21.2,5.7-32.9,2.7c-9-2.3-15.3-6.5-18.9-12.6
		c-3.6-6.1-4.2-13.8-1.9-23c2.4-9.4,7-18.7,13.9-27.9c6.9-9.2,15.4-16.1,25.6-20.9c10.2-4.8,21.2-5.7,32.9-2.7
		c9,2.3,15.3,6.4,18.9,12.6c3.6,6.1,4.2,13.8,1.9,23C791.2,1775.1,786.5,1784.4,779.6,1793.5z M739.9,1805.2
		c7.1-6.9,13.9-15.8,20.3-26.8c6.4-11,11-21.6,13.5-31.8c1-4.1,1.3-7.3,0.9-9.3c-0.5-2.1-1.7-3.4-3.8-3.9c-4.3-1.1-9.9,1.7-16.9,8.4
		c-7,6.7-13.7,15.5-20.2,26.4c-6.4,10.9-11,21.7-13.6,32.3c-1.1,4.5-1.5,7.7-1,9.8c0.5,2,1.7,3.3,3.6,3.8
		C727.1,1815,732.8,1812.1,739.9,1805.2z"/>
	<path class="st0" d="M611,1709.5l8.8-10.5c8.4-9.9,18-12.7,28.9-8.5c6.2,2.4,9.9,5.9,11.2,10.6c0.6,2.7,0.3,5.5-0.9,8.6
		c-1.4,3.5-3.9,7.6-7.7,12.1l-32.3,39c-2.2,2.6-3.6,4.8-4.3,6.6c-1,2.5-0.4,4.2,1.7,5c3.3,1.3,8.6-0.5,16-5.5
		c7.3-4.9,15.5-12,24.5-21.1c9-9.2,17.7-19.2,25.9-30l5.4-7.5l23.4,9.1l-47.8,63.9c-1.4,1.7-2.5,3.4-3.1,4.9c-0.8,2-0.2,3.4,1.7,4.1
		c2.1,0.8,4.3,0.6,6.7-0.8c2.4-1.3,5.4-4.1,9-8.2l6.4-7.2l3.2,1.2l-9.4,10.9c-4.5,5.3-9,8.6-13.5,9.8c-4.6,1.3-9.4,0.9-14.5-1
		c-9.5-3.7-12.5-10.1-9-19.1c1.2-3.1,2.9-6.1,5.1-9.1l12.9-18.1c-8.9,9.5-16.6,16.6-23.2,21.3c-6.6,4.6-12.5,7.4-17.7,8.3
		c-5.2,0.9-10.5,0.3-15.7-1.7c-10-3.9-13.2-10.2-9.8-19.1c1.3-3.3,3.5-7,6.7-11l35.2-42.7c1.4-1.7,2.4-3.2,2.9-4.4
		c0.9-2.3,0.3-3.9-1.8-4.7c-1.8-0.7-3.9-0.4-6.3,0.8c-2.4,1.2-5.5,4-9.2,8.3l-6.1,6.8L611,1709.5z"/>
	<path class="st0" d="M479.5,1757.4c-4.4,0.7-8.8-0.2-13.2-2.7c-3.6-2.1-5.9-4.5-6.9-7.4c-1-2.9-0.7-5.8,1-8.7
		c2.4-4.1,5.9-6.6,10.5-7.5c4.6-0.9,9.2,0,13.7,2.6c3.7,2.1,6,4.7,6.9,7.6c0.9,2.9,0.4,5.9-1.6,8.8
		C487.4,1754.2,483.9,1756.7,479.5,1757.4z M514.5,1718.6c-1.2,2.1-0.9,3.6,1,4.7s4.1,1.1,6.7,0.1c2.6-1,6-3.2,10.2-6.6l7.6-6.1
		l2.9,1.7l-11.1,9.2c-9.9,8.4-20.1,9.6-30.6,3.5c-4.7-2.7-7.5-5.9-8.3-9.4s-0.2-7.2,2-10.9c1.7-3,4-5.7,6.9-8.1l43.4-37.8
		c1.7-1.5,2.9-2.8,3.5-3.9c1.2-2.2,0.8-3.8-1.2-5c-1.5-0.9-3.6-0.9-6.2-0.1c-2.6,0.8-6.1,3-10.5,6.7l-7,5.8l-2.9-1.7l10.5-8.9
		c9.7-8.5,19.7-9.8,30-3.9c9.4,5.4,11.6,12.4,6.6,20.9c-2,3.4-5,6.8-9.1,10.4l-40.7,35.5C516.2,1716.6,514.9,1717.9,514.5,1718.6z"
		/>
	<path class="st0" d="M513.1,1622.9c-3.7-2.6-7.5-3.5-11.3-2.8c-3.8,0.7-7,3-9.7,6.9c-2.2,3.1-3.7,6.8-4.6,11.1
		c-0.9,4.3-1.5,9.4-1.6,15.5c0,0.9-0.1,3.4-0.2,7.7s-0.6,8-1.6,11.4c-0.9,3.3-2.3,6.3-4.1,8.9c-4.4,6.4-10.3,9.9-17.8,10.6
		c-7.5,0.7-15.4-1.7-23.7-7.5c-6.4-4.4-10.9-9.2-13.5-14.4c-2.7-5.2-2.1-10.6,1.8-16.2c1.9-2.7,4.4-4.7,7.5-5.9
		c3.1-1.2,6.1-0.8,8.9,1.2c2.4,1.7,3.8,4,3.9,6.8c0.2,2.9-0.7,5.7-2.6,8.6c-1.7,2.4-3.7,4.4-6,5.9c-2.3,1.5-4.6,2.5-6.9,3.1
		c0.7,1.7,2.2,3.2,4.3,4.7c3.5,2.4,7,3.2,10.6,2.4c3.5-0.8,6.7-3.1,9.5-7c1.8-2.6,3-5.4,3.4-8.2c0.5-2.9,0.8-7.1,1.1-12.7l0.1-4.5
		c0.4-7.3,1.1-13.1,2.1-17.3c1-4.2,2.6-8,4.9-11.3c3-4.3,6.7-7.4,11.3-9.2c4.6-1.8,9.6-2.3,15.1-1.4c5.5,0.9,11,3.3,16.6,7.1
		c6.9,4.8,11.8,10.1,14.5,15.9s2.1,11.8-2,17.7c-2,2.9-4.5,4.9-7.3,6c-2.9,1-5.6,0.7-8.1-1.1c-2.5-1.8-3.8-4.2-3.9-7.4
		c0-3.2,1.1-6.5,3.4-9.8c1.5-2.2,3.1-3.9,4.7-5.3c1.7-1.4,3.8-2.9,6.5-4.7C517.1,1626.2,515.4,1624.5,513.1,1622.9z"/>
	<path class="st0" d="M404.9,1556.4c1.1-0.6,2-1.4,2.8-2.3c1.2-1.3,1.8-2.6,1.6-3.9c-0.1-1.3-0.8-2.5-2-3.6
		c-1.9-1.8-4.6-2.5-8.2-2.3c-3.5,0.2-7.7,1.6-12.5,4.1l-6.9,3.6l-2.5-2.3l9.6-5.2c12.9-7.2,24.2-6.4,33.9,2.5
		c4.5,4.1,6.8,8.3,6.9,12.7s-1.7,8.6-5.4,12.6c-2.3,2.5-5.1,4.8-8.4,6.8l-55.5,34.1l11.8,10.8l-3.1,2l-12-10.9l-23.5,14.4
		c-7.5-6.7-14.4-11.9-20.7-15.6l25.7-15.8l-14.9-13.6l2.8-2.3l15.2,13.9L404.9,1556.4z"/>
	<path class="st0" d="M343.4,1557c-10.8,3.8-21.8,4.9-32.9,3.2c-11.1-1.7-20.8-7-28.9-16c-6.2-6.9-9.1-13.8-8.7-20.9
		c0.4-7.1,4.1-13.8,11.1-20.2c7.2-6.5,16.2-11.7,27-15.5c10.8-3.8,21.8-4.9,32.9-3.2s20.8,7,28.9,16c6.2,6.9,9.1,13.8,8.7,20.9
		c-0.4,7.1-4.1,13.8-11.1,20.2C363.2,1548,354.2,1553.2,343.4,1557z M303.9,1544.7c9.8-1.8,20.3-5.5,31.8-11.1
		c11.4-5.6,21.1-11.9,28.9-19c3.2-2.9,5.1-5.3,5.9-7.3c0.8-2,0.4-3.8-1-5.3c-2.9-3.3-9.2-4-18.7-2.4c-9.5,1.7-20,5.3-31.4,10.8
		c-11.4,5.5-21.1,12-29.2,19.3c-3.4,3.1-5.5,5.6-6.2,7.6c-0.7,1.9-0.4,3.7,0.9,5.1C287.8,1545.7,294.1,1546.5,303.9,1544.7z"/>
	<path class="st0" d="M228,1358.4l-1.8-2.9l14-3.1c6.7-1.6,12.4-1.3,17.1,0.7c4.7,2,8.4,5.3,11.2,9.7c1.7,2.7,2.7,5.3,3,7.8
		c0.3,2.5-0.1,4.7-1.1,6.6c-1.2,2-3,3.8-5.3,5.2c-2.3,1.5-5.9,3-10.7,4.7l-18.1,5.7c11.9-2,21.7-2.9,29.3-2.6
		c7.6,0.3,13.6,1.6,18.1,3.9c4.5,2.4,8.2,5.8,11.1,10.5c2.8,4.5,3.9,8.6,3.2,12.2s-3,6.6-7.1,9.2c-3.1,2-7,3.5-11.6,4.6l-53.6,13.4
		c-2.2,0.5-3.8,1.2-4.9,1.8c-2.1,1.3-2.6,2.9-1.4,4.9c1,1.6,2.9,2.7,5.5,3.1c2.7,0.5,6.8,0.1,12.3-1.1l8.9-1.8l1.8,2.9l-13.4,3.2
		c-12.6,2.9-22-0.6-28.2-10.4c-5.8-9.1-4.5-16.3,3.9-21.6c3.1-2,7.4-3.7,12.8-5.1l49.2-12.1c3.3-0.8,5.7-1.7,7.3-2.7
		c2.3-1.5,2.9-3.1,1.7-5c-1.9-3-7.1-4.7-15.6-5.1c-8.5-0.4-19,0.4-31.4,2.4c-12.4,2-25.3,4.9-38.5,8.8l-9.9,3.1
		c-5.8-8.8-11.1-15.6-15.9-20.5l79-23.5c2.5-0.7,4.3-1.5,5.5-2.2c1.7-1.1,2-2.5,0.9-4.2c-1.2-1.9-3.2-3-5.9-3.4s-6.8,0.1-12,1.3
		L228,1358.4z"/>
	<path class="st0" d="M180.9,1258.7l13.7-1.4c12.9-1.3,21.8,3.4,26.7,14c2.8,6,3,11.2,0.6,15.4c-1.4,2.3-3.6,4.2-6.6,5.6
		c-3.4,1.6-8.1,2.7-14,3.3l-50.3,5.6c-3.4,0.4-5.9,1-7.6,1.8c-2.5,1.1-3.2,2.7-2.3,4.8c1.5,3.2,6.6,5.6,15.3,7.2
		c8.7,1.5,19.5,2.1,32.3,1.8c12.9-0.3,26-1.5,39.5-3.5l9-1.6l10.5,22.8l-78.8,12.7c-2.2,0.2-4.1,0.7-5.6,1.4
		c-1.9,0.9-2.5,2.3-1.6,4.1c0.9,2,2.7,3.4,5.3,4.1c2.6,0.7,6.7,0.8,12.2,0.3l9.7-0.7l1.4,3.1l-14.3,1.3c-6.9,0.7-12.4-0.1-16.6-2.3
		c-4.2-2.3-7.4-5.9-9.7-10.8c-4.3-9.3-2-15.9,6.8-20c3-1.4,6.3-2.4,10-3l21.9-4c-13,0.7-23.5,0.4-31.5-0.8c-8-1.2-14.1-3.3-18.5-6.3
		c-4.4-3-7.8-7-10.1-12.1c-4.5-9.7-2.4-16.5,6.2-20.5c3.2-1.5,7.4-2.6,12.4-3.2l55-6.2c2.2-0.2,3.9-0.6,5.1-1.2c2.3-1,2.9-2.6,2-4.6
		c-0.8-1.7-2.5-3-5.1-3.8c-2.6-0.8-6.7-1-12.4-0.5l-9.1,0.7L180.9,1258.7z"/>
	<path class="st0" d="M150.1,1164l-1-3.2l13.7,0.2c7.1,0,12.6,1.6,16.4,4.8c3.9,3.2,6.6,7.2,8.1,12.1c2.2,7,1,12.3-3.6,15.9
		c-1.8,1.5-4,2.8-6.7,3.6c-3.3,1-7.5,1.6-12.7,1.8l-0.7,0c11,1.3,19.4,3.6,25.4,7c5.9,3.4,9.9,8.5,12.1,15.1
		c1.9,6,1.4,11.5-1.3,16.5c-2.8,5-8.1,8.7-16.1,11.2c-9.2,2.9-19.9,3.7-32.2,2.3c-12.3-1.3-23.6-5.1-33.8-11.4
		c-10.2-6.2-17.1-14.8-20.6-25.8c-1.7-5.3-0.8-9.4,2.5-12.2l-31.3,1.5c-2.2,0.1-3.9,0.3-5,0.7c-2.3,0.7-3.6,2.1-4.1,4.2
		c-0.5,2.1,0,5.2,1.3,9.4l-3.9,0.1c-2.6-7.8-5.4-14.7-8.6-20.7c-3.1-6-6.8-11.6-10.9-16.8l131-4.8c1.8,0.1,3.4-0.1,4.9-0.6
		c2.6-0.8,3.6-2.3,2.9-4.5c-0.5-1.7-2.1-3.1-4.6-4.2c-2.5-1.1-6.5-1.7-12.1-2L150.1,1164z M104,1201.9c-3.6,2.5-4.8,5.4-3.8,8.7
		c1.5,4.9,6.6,8.8,15.2,11.9s18.8,4.7,30.6,4.9c11.8,0.2,22.9-1.3,33.3-4.6c4-1.2,6.8-2.6,8.4-4.1c1.7-1.5,2.2-3.1,1.6-5.1
		c-0.7-2.3-3.2-4.4-7.5-6.4c-4.3-2-10.1-3.7-17.5-5c-7.4-1.3-15.9-2-25.4-2L104,1201.9z"/>
	<path class="st0" d="M109.2,1092.7c9.3,9.4,17.4,20.9,24.1,34.5c4.1-0.1,8.1-0.5,12.1-1.3c6.2-1.2,10.3-3.2,12.4-6
		c2.1-2.8,2.7-6.4,1.9-10.8c-0.7-3.6-2.6-7.5-5.8-11.6s-7.7-7.8-13.5-11.1l0.9-3.1c7.3,2.9,14,7.5,19.9,13.6
		c5.9,6.2,9.7,13.6,11.4,22.3c1.6,8,0.7,15-2.6,21c-3.3,6-8.9,9.7-16.7,11.2c-10.4,2-21.6,1.3-33.8-2.1c-12.2-3.4-22.8-9.3-32-17.5
		c-9.2-8.2-14.9-18.1-17.1-29.7c-1-5.4-0.7-10,1-13.8c1.7-3.8,4.8-6.2,9.2-7.1C90.4,1079.5,99.9,1083.3,109.2,1092.7z M83.9,1115.6
		c5.6,3.4,12.6,6.1,20.9,8.3c8.3,2.1,16.7,3.3,25.1,3.5c-5.2-7.6-10.4-13.2-15.5-16.9c-5.1-3.8-10.6-6.6-16.6-8.2
		c-5.9-1.6-12-1.8-18.2-0.6c-2.2,0.4-3.7,1-4.4,1.6c-0.7,0.6-1,1.4-0.8,2.3C75.2,1108.8,78.3,1112.2,83.9,1115.6z"/>
	<path class="st0" d="M62.2,992.6c2.4-2.8,5.8-4.4,10-4.8c5.1-0.5,9.6,0.8,13.5,3.7c3.9,2.9,6.1,6.7,6.5,11.5c0.3,3.4-0.4,6.2-2,8.2
		c-1.7,2.1-4.2,3.2-7.6,3.6c-4.1,0.4-8-0.7-11.6-3.2c-3.6-2.5-6.1-5.8-7.4-9.9c0,0.2,0,0.6-0.2,1.1c-0.1,0.5-0.2,0.9-0.2,1.3
		c0.6,6,5.5,11.8,14.8,17.2c9.3,5.5,25.5,10.4,48.6,14.8l31,5l2.3,25l-78.6-14.6c-1.9-0.4-3.8-0.5-5.6-0.4c-2.2,0.2-3.3,1.3-3.1,3.1
		c0.2,2.2,1.5,4.2,3.7,5.7c2.3,1.6,6.1,3.1,11.3,4.5l9.3,2.5l0.3,3.4l-13.9-3.5c-12.6-3.2-19.4-10.8-20.5-22.8
		c-0.8-9.1,3.5-14.1,13.1-15c3.4-0.3,7-0.2,10.6,0.5l5.8,0.9c-11.6-3.3-19.9-7.1-24.9-11.2c-5-4.1-7.7-9.4-8.3-15.8
		C58.7,999,59.8,995.4,62.2,992.6z"/>
	<path class="st0" d="M151.3,968.5c0.1-4.5-1.2-8.1-3.9-10.9c-2.7-2.8-6.4-4.2-11.1-4.3c-3.8-0.1-7.7,0.7-11.8,2.3
		c-4.1,1.6-8.7,4-13.8,7.3c-0.7,0.5-2.9,1.8-6.5,4.1c-3.6,2.3-7,3.9-10.3,5c-3.3,1.1-6.5,1.6-9.7,1.5c-7.7-0.1-14-3.1-18.7-8.9
		c-4.8-5.8-7.1-13.8-6.9-23.9c0.1-7.7,1.6-14.1,4.5-19.2c2.9-5.1,7.7-7.6,14.5-7.5c3.3,0.1,6.3,1.1,9,3c2.7,1.9,4,4.6,4,8.1
		c0,3-1.2,5.3-3.5,7.1c-2.3,1.7-5.1,2.6-8.6,2.5c-3,0-5.7-0.6-8.2-1.7c-2.5-1.1-4.7-2.4-6.4-4c-1,1.5-1.5,3.6-1.5,6.2
		c-0.1,4.3,1.2,7.6,3.8,10.1c2.6,2.5,6.3,3.8,11.1,4c3.2,0.1,6.1-0.5,8.8-1.7c2.6-1.2,6.3-3.2,11.1-6.1l3.8-2.4
		c6.4-3.7,11.6-6.3,15.6-7.8c4.1-1.5,8.1-2.3,12.1-2.2c5.2,0.1,9.9,1.5,13.9,4.3c4,2.8,7.2,6.7,9.5,11.8c2.3,5.1,3.4,11,3.3,17.8
		c-0.1,8.4-1.9,15.4-5.2,20.9s-8.6,8.2-15.9,8.1c-3.6-0.1-6.6-1-9-2.8c-2.5-1.8-3.7-4.3-3.6-7.4c0.1-3.1,1.4-5.5,4-7.3
		c2.6-1.8,6-2.7,10-2.6c2.6,0,5,0.4,7,1c2.1,0.6,4.6,1.6,7.5,2.8C150.8,973.7,151.3,971.4,151.3,968.5z"/>
	<path class="st0" d="M140.5,885.6c1.2,0.5,2.3,0.7,3.5,0.8c1.8,0.1,3.1-0.2,4.1-1.1c1-0.9,1.5-2.1,1.7-3.8c0.2-2.6-0.8-5.2-3.2-7.9
		c-2.3-2.6-6-5.1-10.9-7.4l-7-3.3l0.3-3.4l10,4.4c13.6,5.8,19.8,15.2,18.7,28.4c-0.5,6-2.5,10.4-5.8,13.2c-3.4,2.8-7.8,3.9-13.2,3.4
		c-3.4-0.3-6.9-1.1-10.5-2.5l-60.9-23.2l-1.3,16l-3.5-1.2l1.4-16.1l-25.8-9.9c0.7-10.1,0.6-18.7-0.3-25.9l28.2,10.8l1.7-20l3.5,0.8
		l-1.7,20.6L140.5,885.6z"/>
	<path class="st0" d="M144.7,764.2l0.6-3.3l12,6.7c6.1,3.5,10.2,7.6,12.1,12.3c2,4.6,2.5,9.4,1.7,14.1c-1.1,6.1-3.7,10.1-7.8,12
		c-2.4,1.2-5.5,1.5-9.2,0.8c-3-0.6-6.4-1.7-10-3.5c7.9,5.6,13.3,11.1,16.3,16.7c3,5.6,3.9,11.2,2.8,17.1c-1.2,6.4-4,10.9-8.4,13.6
		c-4.4,2.6-10,3.3-16.8,2.1c-10.4-1.9-20.9-6.7-31.5-14.4c-10.6-7.7-19-16.5-25.3-26.5c-6.3-10-8.6-19-7.1-27.2
		c0.6-3.2,2-5.5,4.2-7.1c2.2-1.6,5.2-2.2,9-1.9l-8.1-4c1.6-9.4,2.3-18,2-25.9l73.9,37.3c1.9,1,3.5,1.5,4.7,1.8
		c2.6,0.5,4.1-0.4,4.5-2.6c0.8-4.1-3.2-8.6-11.8-13.4L144.7,764.2z M93.8,778.9c-0.6-0.2-1.4-0.4-2.6-0.7c-2.9-0.5-5.2-0.4-6.9,0.3
		c-1.7,0.7-2.7,2.1-3.1,4c-0.7,4,2,9.1,8.2,15.5c6.2,6.4,14.3,12.3,24.4,17.9c10.1,5.5,20.1,9.2,30.2,11.1c3.9,0.7,6.7,0.8,8.5,0.4
		c1.8-0.4,2.9-1.5,3.2-3.3c0.5-2.6-0.8-5.7-3.8-9.5c-3-3.7-7.6-7.8-13.7-12.1c-6.1-4.3-13.6-8.5-22.4-12.5l4,1.6L93.8,778.9z"/>
	<path class="st0" d="M176.5,658.3l11,8.2c10.4,7.8,13.8,17.2,10.3,28.3c-2,6.3-5.3,10.3-9.9,11.8c-2.6,0.8-5.5,0.7-8.7-0.3
		c-3.6-1.1-7.8-3.5-12.5-7l-41-29.8c-2.7-2-5-3.3-6.8-3.8c-2.6-0.8-4.2-0.2-4.9,2c-1.1,3.4,1.1,8.6,6.4,15.6
		c5.4,7,12.9,14.7,22.6,23.1c9.7,8.4,20.2,16.4,31.5,24l7.8,4.9l-7.6,23.9L108,715.4c-1.8-1.3-3.5-2.2-5.1-2.7c-2-0.6-3.4,0-4,1.9
		c-0.7,2.2-0.3,4.4,1.2,6.6c1.5,2.3,4.4,5.1,8.8,8.5l7.6,6l-1,3.2l-11.4-8.7c-5.5-4.1-9.1-8.4-10.7-12.9c-1.6-4.5-1.5-9.3,0.1-14.5
		c3.1-9.7,9.3-13.1,18.5-10.2c3.2,1,6.3,2.5,9.4,4.5l18.9,11.8c-10.1-8.3-17.6-15.6-22.7-21.8c-5-6.3-8.2-12-9.4-17.2
		c-1.2-5.2-1-10.4,0.7-15.7c3.2-10.2,9.4-13.8,18.4-11c3.4,1.1,7.2,3.1,11.3,6l44.8,32.5c1.8,1.3,3.4,2.2,4.6,2.6
		c2.4,0.8,3.9,0.1,4.6-2.1c0.6-1.8,0.2-3.9-1.2-6.3c-1.4-2.4-4.3-5.3-8.8-8.7l-7.2-5.6L176.5,658.3z"/>
	<path class="st0" d="M217.7,567.7l1.4-3.1l10,9.3c5.2,4.8,8.2,9.7,8.9,14.6c0.7,5,0,9.8-2.2,14.4c-3.1,6.7-7.5,9.8-13.3,9.3
		c-2.3,0-4.8-0.7-7.4-1.9c-3.1-1.4-6.6-3.9-10.6-7.3l-0.6-0.5c7.2,8.3,11.9,15.8,14,22.3c2.1,6.5,1.6,13-1.3,19.3
		c-2.6,5.7-6.7,9.5-12.1,11.3c-5.4,1.8-11.9,1-19.4-2.5c-8.7-4-17.2-10.7-25.3-20c-8.2-9.3-13.9-19.7-17.3-31.2
		c-3.4-11.5-2.6-22.5,2.2-32.9c2.3-5.1,5.7-7.5,10.1-7.3l-24.1-20c-1.7-1.4-3.1-2.4-4.1-2.9c-2.2-1-4.1-0.9-5.8,0.3
		c-1.7,1.2-3.5,3.8-5.4,7.8l-2.9-2.5c3.3-7.5,5.9-14.5,7.6-21.1c1.7-6.6,2.8-13.2,3.3-19.8l99.9,84.9c1.3,1.2,2.6,2.2,4,2.8
		c2.5,1.1,4.2,0.7,5.1-1.3c0.7-1.6,0.6-3.7-0.6-6.2c-1.1-2.5-3.7-5.7-7.6-9.6L217.7,567.7z M158.1,564.5c-4.3-0.6-7.2,0.7-8.6,3.8
		c-2.1,4.6-1.1,11,3.2,19.1s10.7,16.2,19.3,24.2c8.5,8.1,17.8,14.4,27.7,19c3.8,1.8,6.8,2.6,9,2.7c2.2,0,3.7-0.9,4.6-2.7
		c1-2.2,0.6-5.4-1.2-9.8c-1.8-4.4-5-9.6-9.6-15.5c-4.6-6-10.4-12.2-17.5-18.6L158.1,564.5z"/>
	<path class="st0" d="M242.7,413.7c3.6-0.6,7.2,0.3,10.7,2.7c4.2,2.9,6.9,6.7,8,11.4c1.1,4.7,0.4,9.1-2.3,13c-1.9,2.8-4.2,4.5-6.8,5
		c-2.6,0.5-5.3-0.2-8.1-2.1c-3.4-2.4-5.7-5.7-6.9-9.9c-1.2-4.3-1-8.4,0.6-12.3c-0.1,0.2-0.4,0.4-0.8,0.7c-0.4,0.3-0.7,0.6-0.9,0.9
		c-3.4,5-3.3,12.6,0.4,22.7c3.7,10.2,13,24.3,27.8,42.5L285,512l-14.2,20.7l-51.1-61.4c-1.2-1.6-2.6-2.9-4-3.9
		c-1.9-1.3-3.3-1.1-4.4,0.4c-1.3,1.9-1.5,4.1-0.8,6.8c0.8,2.7,2.7,6.2,5.8,10.7l5.6,7.9L220,496l-8.4-11.6
		c-7.6-10.5-8-20.7-1.2-30.6c5.2-7.5,11.7-8.6,19.6-3.1c2.8,1.9,5.5,4.3,7.8,7.1l3.9,4.4c-6.8-10-10.8-18.2-12-24.5
		c-1.2-6.4,0-12.2,3.7-17.5C236,416.5,239.1,414.3,242.7,413.7z"/>
	<path class="st0" d="M314.6,384c-1.5,13.2-5.4,26.7-11.7,40.4c2.6,3.1,5.5,6,8.6,8.6c4.8,4,9,6,12.5,5.9c3.5-0.1,6.7-1.9,9.6-5.3
		c2.4-2.8,4.2-6.7,5.4-11.8c1.2-5,1.3-10.9,0.2-17.5l2.9-1.3c2.3,7.5,3,15.6,1.9,24c-1.1,8.5-4.5,16.1-10.2,22.9
		c-5.3,6.3-11.3,10-18,11.2c-6.7,1.2-13.1-0.8-19.2-5.9c-8.1-6.8-14.6-16-19.6-27.6c-5-11.6-7.1-23.6-6.4-35.9
		c0.7-12.3,4.8-23,12.3-32c3.5-4.2,7.3-6.8,11.4-7.9c4.1-1.1,7.8-0.2,11.3,2.8C313,361,316,370.8,314.6,384z M280.9,378.7
		c0.9,6.5,3.1,13.6,6.7,21.5c3.6,7.8,7.9,15,13.1,21.7c2.6-8.8,3.8-16.4,3.5-22.7c-0.2-6.4-1.6-12.4-4-18
		c-2.5-5.6-6.1-10.5-10.9-14.5c-1.7-1.4-3.1-2.3-4-2.4c-0.9-0.2-1.7,0.1-2.3,0.8C280.6,367.6,280,372.2,280.9,378.7z"/>
	<path class="st0" d="M341.8,317.6c0.5,8.4,3.1,17.5,7.8,27.2c4.7,9.8,10.8,18.5,18.3,26.2c8.3,8.5,15.6,9.6,22.1,3.3
		c6.1-6,8.1-15.2,5.9-27.6l3.5-1.5c1.7,7.9,1.8,15.8,0.3,23.6c-1.6,7.8-5.4,14.7-11.4,20.6c-6.2,6-12.8,9.2-19.7,9.5
		c-6.9,0.3-13.5-2.8-19.8-9.3c-7.1-7.3-12.6-16.6-16.6-28c-3.9-11.3-5.1-22.8-3.5-34.5c1.6-11.6,6.6-21.6,15-29.8
		c4.7-4.6,9.6-7,14.7-7.5c5.1-0.4,9.4,1.1,12.8,4.6c2.2,2.3,3.9,5.1,4.9,8.4c1,3.3,1.3,6.6,0.6,9.8c-0.6,3.3-2.1,6-4.4,8.2
		c-2.1,2.1-4.5,3.1-7.2,3.1c-2.7,0-5.1-1.2-7.3-3.4c-3.2-3.3-5-7.4-5.2-12.2c-0.2-4.8,0.9-9.2,3.3-13c-3.1-0.3-6,0.8-8.6,3.4
		C343.2,302.9,341.4,309.2,341.8,317.6z"/>
	<path class="st0" d="M478.7,271l2.7-2.1l4.5,13.6c2.2,6.5,2.5,12.2,0.9,17.1c-1.6,4.8-4.4,8.8-8.6,12c-2.5,2-5,3.2-7.5,3.7
		c-2.4,0.5-4.7,0.4-6.7-0.5c-2.2-1-4.1-2.6-5.7-4.8c-1.7-2.2-3.6-5.6-5.7-10.2l-7.4-17.4c3.2,11.7,5,21.3,5.5,28.9
		c0.5,7.6-0.2,13.7-2.1,18.4c-1.9,4.7-5,8.7-9.3,12.1c-4.2,3.3-8.1,4.7-11.8,4.4c-3.6-0.3-6.9-2.4-9.8-6.1
		c-2.3-2.9-4.2-6.6-5.7-11.1L393.4,277c-0.7-2.1-1.5-3.7-2.3-4.7c-1.5-2-3.2-2.3-5-0.9c-1.5,1.2-2.4,3.1-2.6,5.8
		c-0.2,2.7,0.6,6.8,2.3,12.2l2.7,8.7l-2.7,2.1l-4.4-13c-4.1-12.3-1.6-22,7.6-29.1c8.5-6.6,15.8-6,21.9,1.8c2.3,2.9,4.4,7,6.3,12.2
		l16.8,47.8c1.1,3.2,2.3,5.5,3.4,7c1.7,2.2,3.4,2.5,5.2,1.2c2.8-2.2,4-7.5,3.6-16c-0.4-8.5-2.3-18.9-5.5-31
		c-3.2-12.2-7.4-24.7-12.5-37.5l-4-9.5c8.2-6.7,14.5-12.6,18.9-17.8l31,76.4c1,2.4,1.9,4.2,2.8,5.3c1.2,1.6,2.6,1.8,4.2,0.5
		c1.8-1.4,2.7-3.5,2.8-6.2c0.1-2.8-0.7-6.7-2.4-11.9L478.7,271z"/>
	<path class="st0" d="M528.4,168.6c3.6,1,6.5,3.3,8.7,6.9c2.6,4.4,3.5,8.9,2.6,13.7c-0.9,4.8-3.4,8.4-7.5,10.9
		c-2.9,1.8-5.7,2.4-8.3,1.8c-2.6-0.6-4.8-2.4-6.5-5.3c-2.2-3.6-2.9-7.5-2.2-11.9c0.7-4.4,2.6-8,5.6-11c-0.2,0.1-0.6,0.2-1.1,0.3
		c-0.5,0.1-0.9,0.2-1.2,0.4c-5.2,3.1-8.2,10.1-9,20.9c-0.8,10.8,1.8,27.5,7.9,50.1l9.1,30.1l-21.5,13l-21.3-77
		c-0.5-1.9-1.2-3.7-2.1-5.2c-1.2-1.9-2.6-2.4-4.2-1.4c-1.9,1.2-3.1,3.1-3.5,5.9c-0.4,2.7-0.1,6.8,0.9,12.1l1.8,9.5l-2.9,1.8
		l-2.9-14.1c-2.6-12.7,1.2-22.2,11.5-28.4c7.8-4.7,14.2-3,19.2,5.2c1.8,2.9,3.2,6.2,4.2,9.7l1.7,5.6c-2.1-11.9-2.4-21-0.8-27.3
		c1.5-6.3,5-11.1,10.5-14.4C521.2,168.4,524.9,167.7,528.4,168.6z"/>
	<path class="st0" d="M589.5,238.3c4.1-2,6.7-4.8,8-8.4c1.3-3.6,0.9-7.6-1.2-11.9c-1.6-3.4-4.1-6.6-7.3-9.5
		c-3.3-2.9-7.5-5.9-12.7-9.1c-0.7-0.4-2.9-1.8-6.6-4s-6.7-4.5-9.1-7c-2.4-2.4-4.3-5.1-5.7-8c-3.4-6.9-3.5-13.9-0.4-20.7
		c3.1-6.9,9.1-12.5,18.2-16.9c6.9-3.4,13.4-4.9,19.2-4.6c5.9,0.3,10.3,3.4,13.2,9.5c1.4,3,1.9,6.1,1.4,9.4c-0.5,3.3-2.3,5.7-5.4,7.2
		c-2.7,1.3-5.3,1.3-7.9,0c-2.6-1.3-4.6-3.4-6.1-6.5c-1.3-2.7-2-5.4-2.2-8.2c-0.1-2.8,0.1-5.3,0.7-7.6c-1.8-0.2-3.9,0.3-6.2,1.4
		c-3.8,1.9-6.3,4.5-7.3,8c-1,3.5-0.6,7.4,1.4,11.7c1.4,2.9,3.2,5.2,5.5,7c2.3,1.8,5.8,4.2,10.5,7.2l3.9,2.3c6.2,4,10.8,7.5,14,10.4
		c3.2,2.9,5.7,6.2,7.4,9.9c2.3,4.7,3.1,9.5,2.4,14.4c-0.7,4.9-2.8,9.5-6.3,13.8c-3.5,4.3-8.3,8-14.4,10.9c-7.6,3.7-14.6,5.2-21,4.7
		s-11.2-4-14.4-10.6c-1.5-3.2-2.1-6.3-1.5-9.3s2.2-5.2,4.9-6.5c2.8-1.3,5.6-1.2,8.4,0.3c2.8,1.6,5.1,4.1,6.8,7.8
		c1.1,2.4,1.9,4.6,2.3,6.7c0.4,2.1,0.7,4.8,0.9,8C584.7,240.2,587,239.6,589.5,238.3z"/>
	<path class="st0" d="M631.8,130.9c-0.9-2.2-2.3-2.9-4.3-2.2c-2,0.8-3.4,2.5-4.3,5.2c-0.9,2.7-1.3,6.7-1.3,12l0,9.8l-3.2,1.2
		l-0.2-14.4c-0.3-13,5.2-21.7,16.4-26c5.1-2,9.3-2.2,12.6-0.6c3.3,1.6,5.7,4.4,7.2,8.4c1.2,3.2,1.9,6.7,2,10.5l2.2,57.5
		c0.1,2.2,0.4,4,0.9,5.2c0.9,2.3,2.5,3.1,4.7,2.2c1.7-0.6,3-2.2,4-4.8c1-2.5,1.5-6.7,1.4-12.4l-0.1-9.1l3.2-1.2l0.4,13.8
		c0.5,12.9-4.7,21.5-15.8,25.8c-10.1,3.9-16.9,1.3-20.4-7.9c-1.4-3.7-2.2-8.2-2.4-13.6l-2.2-53.9
		C632.3,133.5,632.1,131.7,631.8,130.9z M623.4,79.3c2.2-3.9,5.6-6.8,10.4-8.6c3.9-1.5,7.2-1.8,10.1-0.8s4.9,3.1,6.2,6.3
		c1.7,4.4,1.5,8.7-0.7,12.9c-2.2,4.2-5.7,7.2-10.6,9.1c-4,1.5-7.4,1.8-10.3,0.6c-2.9-1.1-4.8-3.4-5.9-6.8
		C621,87.5,621.3,83.2,623.4,79.3z"/>
	<path class="st0" d="M680.6,138.8c1.4-11.4,5.3-21.7,11.7-30.9c6.4-9.2,15.5-15.5,27.1-18.8c8.9-2.5,16.4-2.1,22.6,1.4
		c6.2,3.5,10.6,9.8,13.2,18.9c2.7,9.4,3.3,19.7,1.9,31.1c-1.4,11.4-5.3,21.7-11.7,30.9c-6.4,9.2-15.5,15.5-27.1,18.8
		c-8.9,2.5-16.4,2.1-22.6-1.4c-6.2-3.5-10.6-9.8-13.2-18.9C679.9,160.5,679.2,150.2,680.6,138.8z M709.2,108.8
		c-2.7,9.5-4.1,20.7-4.2,33.4c-0.1,12.7,1.3,24.2,4.2,34.3c1.2,4.1,2.5,6.9,3.9,8.5c1.4,1.6,3.2,2.1,5.2,1.5
		c4.2-1.2,7.7-6.5,10.4-15.7c2.7-9.3,4.1-20.3,4.2-32.9c0.1-12.7-1.4-24.3-4.4-34.8c-1.3-4.5-2.6-7.4-4-8.9c-1.4-1.5-3.1-2-5-1.4
		C715.3,93.9,711.9,99.3,709.2,108.8z"/>
	<path class="st0" d="M868.6,127l-2.4,13.5c-2.3,12.7-9.2,20-20.7,21.8c-6.6,1-11.6-0.2-15-3.6c-1.9-2-3.1-4.6-3.6-7.9
		c-0.6-3.8-0.4-8.5,0.6-14.3l8.4-50c0.6-3.3,0.7-5.9,0.4-7.8c-0.4-2.7-1.8-3.9-4-3.5c-3.5,0.6-7.2,4.8-11.1,12.7
		c-3.9,7.9-7.4,18.1-10.6,30.6c-3.2,12.5-5.7,25.4-7.4,38.9l-0.9,9.2l-24.8,3.9l9.4-79.3c0.4-2.2,0.4-4.1,0.2-5.8
		c-0.3-2.1-1.5-3-3.5-2.7c-2.2,0.4-4,1.7-5.4,4c-1.4,2.3-2.6,6.2-3.7,11.7l-1.9,9.5l-3.3,0.5l2.6-14.1c1.2-6.8,3.5-11.9,6.8-15.3
		c3.3-3.4,7.7-5.5,13.1-6.4c10.1-1.6,15.9,2.4,17.4,12c0.5,3.3,0.6,6.8,0.2,10.4l-2.1,22.1c2.9-12.7,6.1-22.7,9.4-30
		c3.4-7.3,7.1-12.7,11.2-16.1c4.1-3.4,8.9-5.5,14.4-6.4c10.6-1.7,16.6,2.2,18,11.6c0.6,3.5,0.4,7.8-0.3,12.8l-9.1,54.6
		c-0.4,2.2-0.5,4-0.3,5.3c0.4,2.5,1.7,3.5,3.9,3.2c1.9-0.3,3.6-1.6,5.1-3.9c1.5-2.3,2.8-6.2,3.8-11.8l1.8-8.9L868.6,127z"/>
</g>
<text transform="matrix(1 0 0 1 1752.5527 932.6523)" class="st1 st2"> </text>
<text class="st1 st2"> </text>
</svg>
